SplineFontDB: 3.0
FontName: Coiny-Regular
FullName: Coiny
FamilyName: Coiny Regular
Weight: Regular
Copyright: Copyright (c) 2015, Marcelo Magalhaes
Version: 1.0
ItalicAngle: 0
UnderlinePosition: -140
UnderlineWidth: 50
Ascent: 760
Descent: 240
InvalidEm: 0
UFOAscent: 760
UFODescent: -240
LayerCount: 2
Layer: 0 0 "Back" 1
Layer: 1 0 "Fore" 0
PreferredKerning: 4
FSType: 0
OS2Version: 0
OS2_WeightWidthSlopeOnly: 0
OS2_UseTypoMetrics: 0
CreationTime: 1439837839
ModificationTime: 1442360477
PfmFamily: 16
TTFWeight: 400
TTFWidth: 5
LineGap: 90
VLineGap: 0
Panose: 2 0 5 3 0 0 0 0 0 0
OS2TypoAscent: 760
OS2TypoAOffset: 0
OS2TypoDescent: -240
OS2TypoDOffset: 0
OS2TypoLinegap: 90
OS2WinAscent: 765
OS2WinAOffset: 0
OS2WinDescent: 240
OS2WinDOffset: 0
HheadAscent: 765
HheadAOffset: 0
HheadDescent: -240
HheadDOffset: 0
OS2SubXSize: 650
OS2SubYSize: 700
OS2SubXOff: 0
OS2SubYOff: 140
OS2SupXSize: 650
OS2SupYSize: 700
OS2SupXOff: 0
OS2SupYOff: 480
OS2StrikeYSize: 49
OS2StrikeYPos: 258
OS2CapHeight: 0
OS2XHeight: 515
OS2Vendor: 'PfEd'
OS2CodePages: 00000001.00000000
OS2UnicodeRanges: 00000005.00000000.00000000.00000000
Lookup: 257 1 0 "Tamil.socks" { } ['sock' ('DFLT' <'dflt' > 'deva' <'dflt' > 'grek' <'dflt' > 'latn' <'dflt' > 'taml' <'dflt' > 'tibt' <'dflt' > ) ]
Lookup: 260 0 0 "'mark' Mark Positioning lookup 0" { "'mark' Mark Positioning lookup 0-1"  } ['mark' ('DFLT' <'dflt' > 'deva' <'dflt' > 'grek' <'dflt' > 'latn' <'dflt' > 'taml' <'dflt' > 'tibt' <'dflt' > ) ]
MarkAttachClasses: 1
DEI: 91125
LangName: 1033 "Copyright (c) 2015, Marcelo Magalhaes" "" "" "FontForge : Coiny : 10-8-2015" "" "Version 001.000"
Encoding: TamilPlusLatin3
UnicodeInterp: none
NameList: AGL For New Fonts
DisplaySize: -96
AntiAlias: 1
FitToEm: 1
WidthSeparation: 35
WinInfo: 0 13 5
BeginPrivate: 5
BlueValues 14 [-4 0 515 515]
OtherBlues 11 [-240 -240]
StemSnapH 36 [79 117 122 134 147 162 170 178 711]
StemSnapV 35 [90 95 102 213 217 224 236 243 258]
BlueShift 1 0
EndPrivate
Grid
-1000 502 m 0

StartChar: uni0B85
Encoding: 6 2949 1
GlifName: uni0B_85
Width: 1216
VWidth: 0
GlyphClass: 2
Flags: HW
HStem: -273.796 197.57<266.424 535.634> -254.61 704.164<1007.53 1148.67> 1.05371 126.5<234.062 979.636> 182.502 62.498<395.7 447.985> 364.087 85.4668<362.852 516.909> 385.154 19.6064<371.415 552.647>
VStem: 242.872 146.037<248.33 378.254> 456.163 145.982<247.857 347.401> 672.189 198.202<-10.5898 222.211> 970.116 217.993<-210.914 1.05371 127.554 412.056> 970.116 9.52246<1.05371 127.554>
LayerCount: 2
Back
Fore
SplineSet
456.163085938 375.215820312 m 0
 456.163085938 404.178710938 446.040039062 436.94921875 423.599609375 436.94921875 c 0
 402.940192354 436.94921875 390.526962653 407.795294284 389.056557608 380.614250828 c 0
 388.983557354 378.85472266 388.946288884 377.055540599 388.946289062 375.215820312 c 2
 388.909179688 375.215820312 l 1
 388.909179688 346.6875 400.00390625 317.862304688 423.31640625 317.862304688 c 0
 446.751953125 317.862304688 456.163085938 346.296875 456.163085938 375.215820312 c 0
27 -3.5 m 0
 27 118.399414062 119.440429688 162.099609375 267.790039062 162.099609375 c 2
 671.443354323 162.099609375 l 1
 671.942182169 168.962069052 672.188915476 175.9324395 672.189453125 183 c 0
 672.189453125 276.419560453 647.193990771 364.605352898 590.767851337 414.88036369 c 1
 598.159361365 403.071666627 602.145507818 389.793006654 602.145507812 375.215820312 c 0
 602.145507812 298.099609375 522.87109375 255.364257812 423.040039062 255.364257812 c 0
 323.317382812 255.364257812 242.872070312 298.099609375 242.872070312 375.215820312 c 1
 242.20703125 375.215820312 l 1
 242.20703125 471.538085938 324.140625 522.661132812 451.790039062 522.416015625 c 0
 660.847787946 522.013968788 856.790704521 400.747327525 869.713570365 162.099609375 c 1
 969.070360643 162.099609375 l 1
 968.49553344 258.141328077 967.8984375 352.119998949 967.8984375 402.466796875 c 0
 967.8984375 489.275390625 1016.08398438 522.416015625 1078.14941406 522.416015625 c 0
 1140.99609375 522.416015625 1187.79003906 508.598632812 1187.79003906 411.453125 c 0
 1187.79003906 309.280273438 1188.11132812 71.7783203125 1188.11132812 -69.759765625 c 0
 1188.11132812 -181.197265625 1149.89746094 -220.064453125 1078.14941406 -220.064453125 c 0
 1006.40039062 -220.064453125 970.118164062 -187.864257812 970.118164062 -77.4072265625 c 0
 970.118164062 -46.6296800412 969.980360049 -7.42444502916 969.773422972 35.599609375 c 1
 860.256503742 35.599609375 l 1
 824.131349153 -132.716706748 690.395703253 -239.25 442.58984375 -239.25 c 0
 221.790039062 -239.25 27 -143.685546875 27 -3.5 c 0
620.137166556 35.599609375 m 1
 229.83984375 35.599609375 l 1
 229.83984375 -24 310.024414062 -41.6796875 393.140625 -41.6796875 c 0
 502.36646153 -41.6796875 576.048113946 -12.3144207405 620.137166556 35.599609375 c 1
EndSplineSet
PickledDataWithLists: "(dp1
S'com.fontlab.hintData'
p2
(dp3
S'vhints'
p4
(lp5
(dp6
S'position'
p7
I349
sS'width'
p8
I127
sa(dp9
g7
I535
sg8
I127
sa(dp10
g7
I749
sg8
I183
sa(dp11
g7
I1026
sg8
I190
sa(dp12
g7
I1026
sg8
I8
sasS'hhints'
p13
(lp14
(dp15
g7
I-239
sg8
I184
sa(dp16
g7
I-222
sg8
I570
sa(dp17
g7
I0
sg8
I82
sa(dp18
g7
I116
sg8
I54
sa(dp19
g7
I274
sg8
I74
sa(dp20
g7
I292
sg8
I17
sass."
EndChar

StartChar: uni0B86
Encoding: 7 2950 2
GlifName: uni0B_86
Width: 1556
VWidth: 0
GlyphClass: 2
Flags: HW
HStem: -589.156 208.944<969.055 1199.69> -299.356 77.0508<948.236 1012.68> -272.646 197.57<320.819 590.029> -253.46 704.164<1061.93 1203.07> -75.9766 157.671<1267.38 1415.9> 2.20371 126.5<288.457 1034.03> 183.652 62.498<450.095 502.38> 365.237 85.4668<417.247 571.304> 386.304 19.6064<425.81 607.042>
VStem: 297.267 146.037<249.48 379.404> 510.558 145.982<249.007 348.551> 726.584 198.202<-9.43984 223.361> 775.515 171.35<-431.207 -303.604> 1024.51 9.52246<2.20371 128.704> 1024.51 217.993<-209.764 2.20371 128.704 413.206> 1153.33 87.6641<-140 -85.4119> 1328.41 253.253<-264.346 -80.0552>
LayerCount: 2
Back
Fore
SplineSet
1149.56738281 -315.650390625 m 0
 1231.10253906 -284.088867188 1274.6640625 -225.950195312 1274.6640625 -96 c 0
 1274.6640625 -59.2001953125 1266.8671875 -32.470703125 1236.20800781 -32.470703125 c 0
 1210.05122732 -32.470703125 1191.4087832 -48.4458470943 1187.86429445 -83.6763203337 c 0
 1187.72185935 -87.8904345385 1187.51794745 -91.9896664054 1187.25286347 -95.9762093601 c 2
 1187.25195312 -96.494140625 l 2
 1187.24064004 -96.494140625 1187.22932696 -96.4944721988 1187.21801388 -96.4944721988 c 0
 1181.09031123 -186.617230178 1143.55253759 -218.9140625 1078.14941406 -218.9140625 c 0
 1006.40039062 -218.9140625 970.118164062 -186.713867188 970.118164062 -76.2568359375 c 0
 970.118164062 -45.4792894162 969.980360049 -6.27405440416 969.773422972 36.75 c 1
 860.256503742 36.75 l 1
 824.131349153 -131.566316123 690.395703253 -238.099609375 442.58984375 -238.099609375 c 0
 221.790039062 -238.099609375 27 -142.53515625 27 -2.349609375 c 0
 27 119.549804688 119.440429688 163.25 267.790039062 163.25 c 2
 671.443354323 163.25 l 1
 671.942182169 170.112459677 672.188915476 177.082830125 672.189453125 184.150390625 c 0
 672.189453125 277.569951078 647.193990771 365.755743523 590.767851337 416.030754315 c 1
 598.159361365 404.222057252 602.145507818 390.943397279 602.145507812 376.366210938 c 0
 602.145507812 299.25 522.87109375 256.514648438 423.040039062 256.514648438 c 0
 323.317382812 256.514648438 242.872070312 299.25 242.872070312 376.366210938 c 1
 242.20703125 376.366210938 l 1
 242.20703125 472.688476562 324.140625 523.811523438 451.790039062 523.56640625 c 0
 660.847787946 523.164359413 856.790704521 401.89771815 869.713570365 163.25 c 1
 969.070360643 163.25 l 1
 968.49553344 259.291718702 967.8984375 353.270389574 967.8984375 403.6171875 c 0
 967.8984375 490.42578125 1016.08398438 523.56640625 1078.14941406 523.56640625 c 0
 1140.99609375 523.56640625 1187.79003906 509.749023438 1187.79003906 412.603515625 c 0
 1187.79003906 342.486599493 1187.94135007 208.636474734 1188.03629537 85.8053979922 c 1
 1218.68458887 111.913106917 1257.74693103 125.200195313 1301.3671875 125.200195312 c 0
 1422.93261719 125.200195312 1527.91699219 79.43359375 1527.91699219 -145.450195312 c 0
 1527.91699219 -380.049804688 1337.13183594 -545.650390625 1069.06738281 -545.650390625 c 0
 871.267578125 -545.650390625 721.767578125 -460.549804688 721.767578125 -314.5 c 0
 721.767578125 -223.650390625 797.666992188 -178.799804688 871.267578125 -178.799804688 c 0
 934.517578125 -178.799804688 971.6484375 -198.350585938 971.6484375 -224.799804688 c 0
 971.6484375 -252.400390625 951.767578125 -255.850585938 936.817382812 -255.850585938 c 0
 905.767578125 -255.850585938 893.1171875 -268.5 893.1171875 -288.049804688 c 0
 893.1171875 -316.227539062 955.026367188 -336.706054688 1027.66699219 -336.706054688 c 0
 1067.90527344 -336.706054688 1111.44433594 -330.407226562 1149.56738281 -315.650390625 c 0
456.163085938 376.366210938 m 0
 456.163085938 405.329101562 446.040039062 438.099609375 423.599609375 438.099609375 c 0
 402.940192354 438.099609375 390.526962653 408.945684909 389.056557608 381.764641453 c 0
 388.983557354 380.005113285 388.946288884 378.205931224 388.946289062 376.366210938 c 2
 388.909179688 376.366210938 l 1
 388.909179688 347.837890625 400.00390625 319.012695312 423.31640625 319.012695312 c 0
 446.751953125 319.012695312 456.163085938 347.447265625 456.163085938 376.366210938 c 0
620.137166556 36.75 m 1
 229.83984375 36.75 l 1
 229.83984375 -22.849609375 310.024414062 -40.529296875 393.140625 -40.529296875 c 0
 502.36646153 -40.529296875 576.048113946 -11.1640301155 620.137166556 36.75 c 1
EndSplineSet
PickledDataWithLists: "(dp1
S'com.fontlab.hintData'
p2
(dp3
S'vhints'
p4
(lp5
(dp6
S'position'
p7
I267
sS'width'
p8
I127
sa(dp9
g7
I453
sg8
I127
sa(dp10
g7
I667
sg8
I183
sa(dp11
g7
I708
sg8
I149
sa(dp12
g7
I944
sg8
I8
sa(dp13
g7
I944
sg8
I190
sa(dp14
g7
I1037
sg8
I76
sa(dp15
g7
I1189
sg8
I201
sasS'hhints'
p16
(lp17
(dp18
g7
I-515
sg8
I182
sa(dp19
g7
I-263
sg8
I67
sa(dp20
g7
I-244
sg8
I184
sa(dp21
g7
I-227
sg8
I570
sa(dp22
g7
I-69
sg8
I134
sa(dp23
g7
I-5
sg8
I82
sa(dp24
g7
I111
sg8
I54
sa(dp25
g7
I269
sg8
I74
sa(dp26
g7
I287
sg8
I17
sass."
EndChar

StartChar: uni0B87
Encoding: 8 2951 3
GlifName: uni0B_87
Width: 1322
VWidth: 0
GlyphClass: 2
Flags: HW
HStem: -401.045 154.563<264.464 394.362 692.572 811.722> -22.6943 122.798<423.223 675.587> 149.554 71.4297<528.892 576.333> 322.206 94.3994<494.128 691.894> 336.105 35.707<499.246 678.458> 473.94 184.165<438.401 795.758>
VStem: 27 178.149<-197.537 -107.537> 87.85 212.75<181.871 369.362> 372.576 151.081<223.094 325.755> 580.823 151.026<222.82 309.75> 756 182.85<93.9292 260.368> 854.899 188.358<-206.783 -86.858> 1083.68 217.982<-284.899 220.78>
LayerCount: 2
Back
Fore
SplineSet
580.823242188 410.127929688 m 0
 580.823242188 434.745117188 572.217773438 462.600585938 553.14453125 462.600585938 c 0
 534.412109375 462.600585938 523.657226562 434.40625 523.657226562 410.127929688 c 0
 523.657226562 385.87890625 533.087890625 361.377929688 552.904296875 361.377929688 c 0
 572.82421875 361.377929688 580.823242188 385.545898438 580.823242188 410.127929688 c 0
1293.34082031 224.349609375 m 0
 1293.34082031 120.427734375 1293.66308594 83.4951171875 1293.66308594 -42.896484375 c 0
 1293.66308594 -154.333984375 1258.23925781 -193.200195312 1191.71191406 -193.200195312 c 0
 1122.609375 -193.200195312 1087.68066406 -161 1087.68066406 -50.54296875 c 0
 1087.68066406 56.8251953125 1085.44921875 136.421875 1085.44921875 220.799804688 c 0
 1085.44921875 466.029296875 960.243164062 615.334960938 588.099609375 615.334960938 c 0
 403.204101562 615.334960938 295.599609375 550.758789062 295.599609375 425.899414062 c 0
 295.599609375 360.889780894 320.399416816 290.143845357 359.686036606 221.871726716 c 1
 421.303738362 231.13691055 486.390856323 235.498046875 550.149414062 235.498046875 c 0
 609.929861033 235.498046875 670.259070962 232.029845142 727.143319596 224.350448947 c 1
 745.749367076 266.553750631 756 307.790268138 756 345.399414062 c 0
 756 377.489387986 745.506586203 406.518682329 729.380865682 429.055998823 c 1
 731.007910379 422.922548796 731.849609363 416.498272596 731.849609375 409.799804688 c 0
 731.849609375 332.682617188 652.57421875 289.948242188 552.744140625 289.948242188 c 0
 453.020507812 289.948242188 372.576171875 332.682617188 372.576171875 409.799804688 c 1
 371.911132812 409.799804688 l 1
 371.911132812 506.12109375 453.84375 557 581.494140625 557 c 0
 802.293945312 557 938.849609375 458.099609375 938.849609375 301.700195312 c 0
 938.849609375 266.852534804 928.701067413 223.845962033 909.45215748 177.531613292 c 1
 974.661216488 148.988745275 1020.93487553 108.694675485 1034.29980469 54.0498046875 c 0
 1040.55566406 28.4716796875 1043.2578125 4.7265625 1043.2578125 -17.25 c 0
 1043.2578125 -165.521484375 887.224609375 -227.650390625 755.14453125 -227.650390625 c 0
 685.695069462 -227.650390625 616.258374569 -212.441171074 549.835537046 -185.743613764 c 1
 486.819928566 -212.019869863 417.565537153 -227.650390633 343.149414062 -227.650390625 c 0
 115.469726562 -227.650390625 27 -114.736328125 27 -12.650390625 c 0
 27 10.525390625 30.126953125 33.4931640625 38.3994140625 54.0498046875 c 0
 57.1741555356 100.705349027 100.469978597 137.390427322 158.621922712 165.198670448 c 1
 113.859480993 246.702194014 87.849609375 332.385275989 87.849609375 413.25 c 0
 87.849609375 637.373046875 259.19921875 779.5 629.5 779.5 c 0
 1099.93066406 779.5 1293.34082031 557.8828125 1293.34082031 224.349609375 c 0
385.773503762 -92.7851591295 m 1
 330.724386414 -51.8508709686 280.57517633 -3.7094699597 237.771260322 48.6071477917 c 1
 217.29496091 35.6301468177 205.149414063 20.2560294659 205.149414062 2.2998046875 c 0
 205.149414062 -40.1328125 270.9921875 -95.0869140625 354.649414062 -95.0869140625 c 0
 364.808101822 -95.0869140625 375.205522069 -94.3517046393 385.773503762 -92.7851591295 c 1
650.737485739 100.726226119 m 1
 617.909321922 104.130128804 584.052255243 105.700195312 551.59375 105.700195312 c 0
 518.332544947 105.700195312 482.129655263 104.109714615 446.078325531 100.778752323 c 1
 478.561535959 62.8330262651 514.085200707 27.6904099457 550.30057247 -2.7792716877 c 1
 587.910547393 29.2953056083 621.811670963 64.3897736509 650.737485739 100.726226119 c 1
832.926634413 43.5635369082 m 1
 798.053336543 -4.15406161424 755.239848842 -50.6929637838 705.498776388 -91.3666523704 c 1
 715.993917999 -93.0738311877 726.362392622 -93.8564453556 736.44921875 -93.8564453125 c 0
 801.537109375 -93.8564453125 854.899414062 -52.48828125 854.899414062 -1.150390625 c 0
 854.899414062 16.0840662649 846.894873676 30.9147891048 832.926634413 43.5635369082 c 1
EndSplineSet
PickledDataWithLists: "(dp1
S'com.fontlab.hintData'
p2
(dp3
S'vhints'
p4
(lp5
(dp6
S'position'
p7
I144
sS'width'
p8
I155
sa(dp9
g7
I197
sg8
I185
sa(dp10
g7
I445
sg8
I131
sa(dp11
g7
I626
sg8
I131
sa(dp12
g7
I796
sg8
I141
sa(dp13
g7
I864
sg8
I164
sa(dp14
g7
I1063
sg8
I190
sasS'hhints'
p15
(lp16
(dp17
g7
I-363
sg8
I134
sa(dp18
g7
I-34
sg8
I107
sa(dp19
g7
I116
sg8
I62
sa(dp20
g7
I266
sg8
I82
sa(dp21
g7
I292
sg8
I17
sa(dp22
g7
I398
sg8
I160
sass."
EndChar

StartChar: uni0B88
Encoding: 9 2952 4
GlifName: uni0B_88
Width: 1103
VWidth: 0
GlyphClass: 2
Flags: HW
HStem: 0.509766 21G<99.1543 170.905 641.955 713.705> 113.942 151.983<320.649 486.074 858.849 1024.27> 344.763 126.849<58.0312 135.03 244.668 567.573 787.468 1062.16>
VStem: 27 217.987<44.6975 348.558 360.649 457.794> 292.778 217.54<139.525 238.813> 569.8 217.987<44.2054 438.471> 830.978 217.54<139.525 238.813>
LayerCount: 2
Back
Fore
SplineSet
244.987304688 150.813476562 m 0
 244.987304688 39.3759765625 206.779296875 0.509765625 135.029296875 0.509765625 c 0
 63.279296875 0.509765625 27 25.701171875 27 136.158203125 c 0
 27 259.100585938 27.49609375 335.008789062 27.49609375 431.625976562 c 0
 27.49609375 457.845640953 35.6016011664 473.990653521 49.6395981558 483.894281629 c 0
 64.3749597773 495.802934719 86.284395218 501.611328346 114.825195312 501.611328125 c 2
 981.428710938 501.611328125 l 2
 1054.03222656 501.611328125 1075.37792969 484.329101562 1075.37792969 433.439453125 c 0
 1075.37792969 386.619140625 1041.83105469 374.762695312 969.928710938 374.762695312 c 2
 787.47016474 375.566568584 l 1
 787.499411964 286.736321728 787.787109375 288.171561814 787.787109375 150.813476562 c 0
 787.787109375 39.3759765625 749.580078125 0.509765625 677.829101562 0.509765625 c 0
 606.079101562 0.509765625 569.799804688 32.708984375 569.799804688 143.166992188 c 0
 569.799804688 267.312480123 567.649437879 281.878820174 567.574282559 376.535382738 c 1
 244.669641474 377.95803142 l 1
 244.694467573 286.699818339 244.987304688 289.393078925 244.987304688 150.813476562 c 0
292.77734375 190.025390625 m 0
 292.77734375 132.837890625 345.608398438 113.942382812 401.067382812 113.942382812 c 0
 466.889648438 113.942382812 510.317382812 129.889648438 510.317382812 190.025390625 c 0
 510.317382812 241.643554688 473.217773438 265.92578125 401.067382812 265.92578125 c 0
 329.8984375 265.92578125 292.77734375 233.16796875 292.77734375 190.025390625 c 0
830.977539062 190.025390625 m 0
 830.977539062 132.837890625 883.80859375 113.942382812 939.267578125 113.942382812 c 0
 1005.08984375 113.942382812 1048.51757812 129.889648438 1048.51757812 190.025390625 c 0
 1048.51757812 241.643554688 1011.41699219 265.92578125 939.267578125 265.92578125 c 0
 868.098632812 265.92578125 830.977539062 233.16796875 830.977539062 190.025390625 c 0
EndSplineSet
PickledDataWithLists: "(dp1
S'com.fontlab.hintData'
p2
(dp3
S'vhints'
p4
(lp5
(dp6
S'position'
p7
I55
sS'width'
p8
I190
sa(dp9
g7
I286
sg8
I189
sa(dp10
g7
I527
sg8
I190
sa(dp11
g7
I754
sg8
I189
sasS'hhints'
p12
(lp13
(dp14
g7
I0
sg8
I21
sa(dp15
g7
I99
sg8
I132
sa(dp16
g7
I300
sg8
I110
sass."
EndChar

StartChar: uni0B8E
Encoding: 12 2958 5
GlifName: uni0B_8E_
Width: 1089
VWidth: 0
GlyphClass: 2
Flags: HW
HStem: 0.0771484 71.5391<251.825 524.135> 235.777 73.3584<440.816 486.838> 355.666 121.736<304.416 976.63 976.9 1066.76>
VStem: 27.0001 218.5<153.399 304.68> 288.752 140.905<112.818 229.267> 496.891 140.843<100.58 231.721> 676.75 215.05<27.2639 431.24>
LayerCount: 2
Back
Fore
SplineSet
496.890625 154.180664062 m 0
 496.890625 193.763671875 486.565429688 236.77734375 464.458007812 236.77734375 c 0
 441.62109375 236.77734375 429.657226562 193.260742188 429.657226562 154.223632812 c 0
 429.657226562 115.202148438 440.776367188 73.080078125 464.141601562 73.080078125 c 0
 487.506835938 73.080078125 496.890625 114.618164062 496.890625 154.180664062 c 0
913.625 106.961914062 m 2
 913.625 26.2001953125 883.725585938 0.2744140625 800.172851562 0.2744140625 c 0
 718.125 0.2744140625 698.575195312 38.4638671875 698.575195312 118.034179688 c 2
 698.575195312 378 l 1
 442.150390625 378 l 2
 317.625 378 245.5 337.008789062 245.5 227.866210938 c 0
 245.5 187.865479816 261.587470758 153.29972998 290.737768073 127.004655668 c 1
 289.42989297 135.315538016 288.751953125 144.005404299 288.751953125 153.064453125 c 0
 288.751953125 251.010742188 363.497070312 310.135742188 463.836914062 310.135742188 c 0
 564.201171875 310.135742188 637.733398438 251.010742188 637.733398438 153.064453125 c 0
 637.733398438 127.493101811 632.4149316 104.863348437 622.813496625 85.3956377825 c 0
 609.811693049 57.2381973695 584.465322069 31.8290731331 546.799804688 15.2060546875 c 0
 518.489257812 2.7119140625 483.21875 -4.8173828125 441 -4.8173828125 c 0
 173.049804688 -4.8173828125 27 103.68359375 27 255 c 0
 27 421.352539062 142.625 502 464 502 c 2
 980.75 502 l 2
 1038.25 502 1061.25 484.868164062 1061.25 438.166015625 c 0
 1061.25 398.415039062 1037.12597656 378 973.625 378 c 2
 913.625 378 l 1
 913.625 106.961914062 l 2
EndSplineSet
PickledDataWithLists: "(dp1
S'com.fontlab.hintData'
p2
(dp3
S'vhints'
p4
(lp5
(dp6
S'position'
p7
I68
sS'width'
p8
I189
sa(dp9
g7
I296
sg8
I123
sa(dp10
g7
I477
sg8
I122
sa(dp11
g7
I632
sg8
I189
sasS'hhints'
p12
(lp13
(dp14
g7
I-5
sg8
I63
sa(dp15
g7
I-5
sg8
I44
sa(dp16
g7
I-1
sg8
I415
sa(dp17
g7
I200
sg8
I64
sa(dp18
g7
I312
sg8
I103
sass."
EndChar

StartChar: uni0B8F
Encoding: 13 2959 6
GlifName: uni0B_8F_
Width: 1089
VWidth: 0
GlyphClass: 2
Flags: HW
HStem: 0.0771484 71.5391<229.45 501.76> 235.777 73.3584<418.441 464.463> 355.666 121.736<282.041 954.26 954.53 1044.38>
VStem: 4.625 218.5<153.399 304.68> 266.377 140.905<112.818 229.267> 474.516 140.843<100.58 231.721> 654.375 215.05<27.2639 431.24>
LayerCount: 2
Back
Fore
SplineSet
570.599609375 -56.2412109375 m 0
 676.400390625 1.2724609375 698.25 15.30859375 698.25 63.3876953125 c 2
 698.25 113.999023438 l 1
 698.592468209 113.999023438 l 2
 698.580881923 115.332049289 698.575195312 116.677096095 698.575195312 118.034179688 c 2
 698.575195312 378 l 1
 442.150390625 378 l 2
 317.625 378 245.5 337.008789062 245.5 227.866210938 c 0
 245.5 187.865479816 261.587470758 153.29972998 290.737768073 127.004655668 c 1
 289.42989297 135.315538016 288.751953125 144.005404299 288.751953125 153.064453125 c 0
 288.751953125 251.010742188 363.497070312 310.135742188 463.836914062 310.135742188 c 0
 564.201171875 310.135742188 637.733398438 251.010742188 637.733398438 153.064453125 c 0
 637.733398438 127.493101811 632.4149316 104.863348437 622.813496625 85.3956377825 c 0
 609.811693049 57.2381973695 584.465322069 31.8290731331 546.799804688 15.2060546875 c 0
 518.489257812 2.7119140625 483.21875 -4.8173828125 441 -4.8173828125 c 0
 173.049804688 -4.8173828125 27 103.68359375 27 255 c 0
 27 421.352539062 142.625 502 464 502 c 2
 980.75 502 l 2
 1038.25 502 1061.25 484.868164062 1061.25 438.166015625 c 0
 1061.25 398.415039062 1037.12597656 378 973.625 378 c 2
 913.625 378 l 1
 913.625 106.961914062 l 2
 913.625 102.137137356 913.518289781 97.5080686611 913.299804688 93.0685439379 c 2
 913.299804688 88.693359375 l 2
 913.299804688 9.6611328125 911.89453125 -43.3056640625 902.950195312 -63.142578125 c 0
 876.5 -121.807617188 819 -154.013671875 647.82421875 -235.008789062 c 0
 608.064453125 -253.822265625 576.0390625 -262.614257812 549.900390625 -262.614257812 c 0
 509.814453125 -262.614257812 483.573242188 -241.181640625 464.514648438 -202.146484375 c 0
 457.243164062 -187.25390625 453.827148438 -174.099609375 453.827148438 -162.06640625 c 0
 453.827148438 -122.001953125 495.96484375 -96.8134765625 570.599609375 -56.2412109375 c 0
496.890625 154.180664062 m 0
 496.890625 193.763671875 486.565429688 236.77734375 464.458007812 236.77734375 c 0
 441.62109375 236.77734375 429.657226562 193.260742188 429.657226562 154.223632812 c 0
 429.657226562 115.202148438 440.776367188 73.080078125 464.141601562 73.080078125 c 0
 487.506835938 73.080078125 496.890625 114.618164062 496.890625 154.180664062 c 0
EndSplineSet
PickledDataWithLists: "(dp1
S'com.fontlab.hintData'
p2
(dp3
S'vhints'
p4
(lp5
(dp6
S'position'
p7
I68
sS'width'
p8
I189
sa(dp9
g7
I296
sg8
I123
sa(dp10
g7
I477
sg8
I122
sa(dp11
g7
I650
sg8
I189
sa(dp12
g7
I651
sg8
I190
sa(dp13
g7
I1009
sg8
I189
sasS'hhints'
p14
(lp15
(dp16
g7
I-5
sg8
I63
sa(dp17
g7
I-5
sg8
I44
sa(dp18
g7
I0
sg8
I415
sa(dp19
g7
I200
sg8
I64
sa(dp20
g7
I306
sg8
I109
sa(dp21
g7
I312
sg8
I103
sass."
EndChar

StartChar: uni0BBE
Encoding: 42 3006 7
GlifName: uni0B_B_E_
Width: 796
VWidth: 0
GlyphClass: 2
Flags: HW
HStem: 0.0175781 476.986<64.9396 208.588 477.79 621.438> 350.855 125.351<95.2516 688.479 688.774 756.263>
VStem: 27.0006 215.051<28.0065 437.382> 439.851 215.051<28.0065 437.382>
LayerCount: 2
Back
Fore
SplineSet
694.5234375 502.1484375 m 2
 751.129882812 502.1484375 767.772460938 485.821289062 767.772460938 437.748046875 c 0
 767.772460938 387.6953125 738.223632812 376.797851562 688.7734375 376.797851562 c 2
 688.7734375 376.797851562 676.43427511 376.769171802 654.705698524 376.721818721 c 1
 654.835536205 373.662951765 654.901367188 370.515260022 654.901367188 367.276367188 c 2
 654.901367188 106.704101562 l 2
 654.901367188 25.9423828125 625.000976562 0.017578125 541.448242188 0.017578125 c 0
 459.401367188 0.017578125 439.850585938 38.2060546875 439.850585938 117.776367188 c 2
 439.850585938 364.350585938 l 2
 439.850585938 368.417909513 439.992001876 372.403457738 440.271286312 376.302356043 c 1
 378.123990947 376.194338627 309.755881029 376.08802891 241.884255569 376.006214006 c 1
 241.994795777 373.172583913 242.05078125 370.263256198 242.05078125 367.276367188 c 2
 242.05078125 106.704101562 l 2
 242.05078125 25.9423828125 212.150390625 0.017578125 128.59765625 0.017578125 c 0
 46.55078125 0.017578125 27 38.2060546875 27 117.776367188 c 2
 27 364.350585938 l 2
 27 371.173108867 27.3978972334 377.765543267 28.1769491872 384.104882901 c 0
 30.8675184764 455.561941061 68.7937231605 501.206054703 131.5234375 501.206054688 c 2
 694.5234375 502.1484375 l 2
EndSplineSet
PickledDataWithLists: "(dp1
S'com.fontlab.hintData'
p2
(dp3
S'vhints'
p4
(lp5
(dp6
S'position'
p7
I54
sS'width'
p8
I189
sa(dp9
g7
I413
sg8
I189
sasS'hhints'
p10
(lp11
(dp12
g7
I0
sg8
I415
sa(dp13
g7
I306
sg8
I109
sass."
EndChar

StartChar: period
Encoding: 173 46 9
GlifName: period
Width: 283
VWidth: 0
GlyphClass: 2
Flags: HW
HStem: -6.9834 151.983<58.3313 223.755>
VStem: 30.4596 217.54<18.5996 117.887>
LayerCount: 2
Back
Fore
SplineSet
30.4599609375 69.099609375 m 0
 30.4599609375 11.912109375 83.2919921875 -6.9833984375 138.75 -6.9833984375 c 0
 204.573242188 -6.9833984375 248 8.9638671875 248 69.099609375 c 0
 248 120.717773438 210.900390625 145 138.75 145 c 0
 67.5810546875 145 30.4599609375 112.241210938 30.4599609375 69.099609375 c 0
EndSplineSet
PickledDataWithLists: "(dp1
S'com.fontlab.hintData'
p2
(dp3
S'vhints'
p4
(lp5
(dp6
S'position'
p7
I19
sS'width'
p8
I189
sasS'hhints'
p9
(lp10
(dp11
g7
I-5
sg8
I132
sass."
EndChar

StartChar: a
Encoding: 308 97 10
GlifName: a
Width: 619
VWidth: 0
GlyphClass: 2
Flags: HW
HStem: -6.25391 123.49<174.282 335.112> -0.0439453 476.987<399.814 542.302> 360.283 123.803<172.187 344.19>
VStem: 41.9998 216.776<141.793 333.31> 382.055 93.8389<130.948 316.333>
LayerCount: 2
Back
Fore
SplineSet
224.734375 -6.25390625 m 0
 123.831054688 -6.25390625 42 80.666015625 42 235.225585938 c 0
 42 390.409179688 119.981445312 484.0859375 224.39453125 484.0859375 c 0
 282.147627267 484.0859375 333.71922176 460.858724955 374.900786515 427.018114801 c 1
 391.510408631 458.313028289 421.892743112 476.943359375 461.70703125 476.943359375 c 0
 524.55078125 476.943359375 575.764648438 457.555664062 575.764648438 367.21484375 c 2
 575.764648438 106.643554688 l 2
 575.764648438 25.8818359375 545.865234375 -0.0439453125 462.3125 -0.0439453125 c 0
 416.117969026 -0.0439453125 389.734745713 12.0617610744 375.497772173 36.8427504455 c 1
 333.71346207 8.55572804532 281.650155212 -6.25390625 224.734375 -6.25390625 c 0
360.71484375 331.256364307 m 1
 350.192274389 348.914236995 335.602093931 360.283203125 316.557617188 360.283203125 c 0
 279.985351562 360.283203125 258.776367188 295.419921875 258.776367188 235.225585938 c 0
 258.776367188 179.513671875 277.107421875 117.236328125 315.814453125 117.236328125 c 0
 335.41653541 117.236328125 350.168234851 127.757556581 360.71484375 144.154596378 c 1
 360.71484375 331.256364307 l 1
EndSplineSet
PickledDataWithLists: "(dp1
S'com.fontlab.hintData'
p2
(dp3
S'vhints'
p4
(lp5
(dp6
S'position'
p7
I44
sS'width'
p8
I189
sa(dp9
g7
I327
sg8
I189
sa(dp10
g7
I339
sg8
I82
sasS'hhints'
p11
(lp12
(dp13
g7
I-5
sg8
I107
sa(dp14
g7
I0
sg8
I415
sa(dp15
g7
I313
sg8
I108
sass."
EndChar

StartChar: b
Encoding: 309 98 11
GlifName: b
Width: 633
VWidth: 0
GlyphClass: 2
Flags: HW
HStem: -6.51953 125.58<277.088 352.149> 360.957 123.803<311.783 460.701>
VStem: 49.1722 217.999<132.302 351.86 435.95 646.324> 374.225 216.774<140.663 330.751>
LayerCount: 2
Back
Fore
SplineSet
266.116210938 435.950195312 m 1
 305.893554688 465.483398438 354.538085938 484.759765625 408.602539062 484.759765625 c 0
 512.80078125 484.759765625 591 387.237304688 591 251.538085938 c 0
 591 84.4482421875 470.342773438 -6.51953125 307.411132812 -6.51953125 c 0
 153.595703125 -6.51953125 49.91796875 60.8876953125 49.1728515625 187.139648438 c 2
 46.9462890625 564.473632812 l 2
 46.9462890625 651.28125 94.3583984375 684.422851562 157.202148438 684.422851562 c 0
 231.052734375 684.422851562 266.983398438 640.236328125 266.700195312 573.459960938 c 2
 266.116210938 435.950195312 l 1
267.171875 153.265625 m 1
 277.859375 132.842773438 294.182617188 119.060546875 317.185546875 119.060546875 c 0
 355.891601562 119.060546875 374.225585938 178.302734375 374.225585938 231.30078125 c 0
 374.225585938 293.708984375 352.719726562 360.95703125 316.44140625 360.95703125 c 0
 293.979492188 360.95703125 277.713867188 345.87890625 267.010742188 323.900390625 c 1
 267.010742188 290.209960938 267.171875 215.237304688 267.171875 153.265625 c 1
EndSplineSet
PickledDataWithLists: "(dp1
S'com.fontlab.hintData'
p2
(dp3
S'vhints'
p4
(lp5
(dp6
S'position'
p7
I44
sS'width'
p8
I190
sa(dp9
g7
I327
sg8
I188
sasS'hhints'
p10
(lp11
(dp12
g7
I-4
sg8
I107
sa(dp13
g7
I313
sg8
I108
sass."
EndChar

StartChar: c
Encoding: 310 99 12
GlifName: c
Width: 599
VWidth: 0
GlyphClass: 2
Flags: HW
HStem: -7.02344 163.51<299.321 432.887> 369.662 114.805<285.639 340.924>
VStem: 40.5166 220.687<192.198 344.597> 342.247 208.817<277.017 368.868>
LayerCount: 2
Back
SplineSet
320.930664062 -6.25390625 m 260
 163.615234375 -6.25390625 39.943359375 78.5966796875 39.943359375 229.302734375 c 260
 39.943359375 388.249023438 158.1875 484.0859375 320.930664062 484.0859375 c 260
 484.151367188 484.0859375 547.041992188 419.482421875 547.041992188 328.8359375 c 260
 547.041992188 275.618164062 504.172851562 217.8125 398.83984375 216.99609375 c 262
 109.560546875 214.696289062 l 261
 146.8203125 277.8359375 l 261
 146.8203125 277.8359375 317.2734375 280.90234375 328.349609375 280.90234375 c 260
 338.91796875 280.90234375 345.004882812 286.745117188 349.583007812 298.739257812 c 260
 353.083984375 307.370117188 355.123046875 319.73046875 355.123046875 334.97265625 c 260
 355.123046875 372.715820312 346.811523438 398.03125 317.28515625 398.03125 c 260
 286.194335938 398.03125 252.180664062 337.345703125 252.180664062 257.99609375 c 260
 252.180664062 194.380859375 288.163085938 146.90625 359.739257812 146.90625 c 260
 391.049804688 146.90625 422.913085938 151.724609375 448.446289062 157.9921875 c 260
 486.5625 167.348632812 501.625976562 184.544921875 522.350585938 184.544921875 c 260
 546.329101562 184.544921875 558 167.904296875 558 150.35546875 c 260
 558 105.736328125 474.123046875 -6.25390625 320.930664062 -6.25390625 c 260
EndSplineSet
Fore
SplineSet
342.48046875 374 m 0
 342.48046875 388.31640625 334.21484375 396.662109375 316.307617188 396.662109375 c 0
 276.522460938 396.662109375 251.203125 325.506835938 251.203125 257.686523438 c 0
 251.203125 192.483398438 294.522460938 146.486328125 363.763671875 146.486328125 c 0
 395.07421875 146.486328125 427.244140625 150.166992188 452.46875 157.573242188 c 0
 484.333984375 166.9296875 501.674804688 184.125976562 519 184.125976562 c 0
 548.442382812 184.125976562 558.024414062 166.673828125 558.024414062 152.486328125 c 0
 558.024414062 105.900390625 475.5625 -7.0234375 324.953125 -7.0234375 c 0
 165.708007812 -7.0234375 40.5166015625 82.7978515625 40.5166015625 242.333007812 c 0
 40.5166015625 393.387695312 160.212890625 484.466796875 324.953125 484.466796875 c 0
 488.174804688 484.466796875 551.064453125 425.126953125 551.064453125 341.8671875 c 0
 551.064453125 296.249023438 518.153320312 218.01953125 405.163085938 218.01953125 c 0
 364.807617188 218.01953125 326.549804688 223.35546875 326.549804688 288 c 0
 326.549804688 325.03125 342.48046875 351.62890625 342.48046875 374 c 0
EndSplineSet
PickledDataWithLists: "(dp1
S'com.fontlab.hintData'
p2
(dp3
S'vhints'
p4
(lp5
(dp6
S'position'
p7
I41
sS'width'
p8
I192
sa(dp9
g7
I303
sg8
I182
sasS'hhints'
p10
(lp11
(dp12
g7
I-5
sg8
I141
sa(dp13
g7
I322
sg8
I100
sass."
EndChar

StartChar: d
Encoding: 311 100 13
GlifName: d
Width: 625
VWidth: 0
GlyphClass: 2
Flags: HW
HStem: -7.41016 123.49<173.886 334.716> -0.158203 684.812<406.975 539.566> 359.128 123.803<171.792 343.794>
VStem: 41.6028 216.776<140.637 332.154> 361.012 217.988<38.708 242.705 564.705 647.157> 381.659 93.8398<129.793 315.177>
LayerCount: 2
Back
Fore
SplineSet
579 150.145507812 m 2
 579 38.7080078125 540.791015625 -0.158203125 469.041015625 -0.158203125 c 0
 428.107141378 -0.158203125 398.717885914 10.3225434375 381.023945203 39.8365315314 c 1
 338.284554529 8.84966298105 283.974923452 -7.41015625 224.337890625 -7.41015625 c 0
 123.43359375 -7.41015625 41.6025390625 79.5107421875 41.6025390625 234.069335938 c 0
 41.6025390625 389.25390625 119.5859375 482.930664062 223.999023438 482.930664062 c 0
 274.917914306 482.930664062 321.031892795 464.875133285 359.456469363 437.409095738 c 1
 358.78515625 564.705078125 l 2
 358.78515625 651.512695312 406.975585938 684.654296875 469.041015625 684.654296875 c 0
 531.885742188 684.654296875 578.6796875 670.8359375 578.6796875 573.69140625 c 2
 579 150.145507812 l 2
361.003377524 144.080706466 m 1
 360.019754548 330.597624753 l 1
 349.520282623 347.97179189 335.025961858 359.127929688 316.161132812 359.127929688 c 0
 279.588867188 359.127929688 258.37890625 294.263671875 258.37890625 234.069335938 c 0
 258.37890625 178.357421875 276.711914062 116.080078125 315.41796875 116.080078125 c 0
 335.448325102 116.080078125 350.413894465 127.065794041 361.003377524 144.080706466 c 1
EndSplineSet
PickledDataWithLists: "(dp1
S'com.fontlab.hintData'
p2
(dp3
S'vhints'
p4
(lp5
(dp6
S'position'
p7
I37
sS'width'
p8
I189
sa(dp9
g7
I319
sg8
I190
sa(dp10
g7
I333
sg8
I82
sasS'hhints'
p11
(lp12
(dp13
g7
I-5
sg8
I107
sa(dp14
g7
I1
sg8
I595
sa(dp15
g7
I313
sg8
I108
sass."
EndChar

StartChar: e
Encoding: 312 101 14
GlifName: e
Width: 596
VWidth: 0
GlyphClass: 2
Flags: HW
HStem: -6.25391 153.16<296.214 429.456> 211.996 73.9062<151.936 342.418> 398.031 86.0547<287.68 337.991>
VStem: 345.122 201.919<286.574 395.344>
LayerCount: 2
Back
Fore
SplineSet
320.930664062 -6.25390625 m 0
 163.615234375 -6.25390625 39.943359375 78.5966796875 39.943359375 229.302734375 c 0
 39.943359375 388.249023438 158.1875 484.0859375 320.930664062 484.0859375 c 0
 484.151367188 484.0859375 547.041992188 419.482421875 547.041992188 328.8359375 c 0
 547.041992188 275.618164062 504.172851562 217.8125 398.83984375 216.99609375 c 2
 258.246397463 215.878359193 l 1
 271.248836409 174.533701092 305.137304841 146.90625 359.739257812 146.90625 c 0
 391.049804688 146.90625 422.913085938 151.724609375 448.446289062 157.9921875 c 0
 486.5625 167.348632812 501.625976562 184.544921875 522.350585938 184.544921875 c 0
 546.329101562 184.544921875 558 167.904296875 558 150.35546875 c 0
 558 105.736328125 474.123046875 -6.25390625 320.930664062 -6.25390625 c 0
253.040880069 279.709045317 m 1
 290.060469194 280.347036486 323.636131013 280.90234375 328.349609375 280.90234375 c 0
 338.91796875 280.90234375 345.004882812 286.745117188 349.583007812 298.739257812 c 0
 353.083984375 307.370117188 355.123046875 319.73046875 355.123046875 334.97265625 c 0
 355.123046875 372.715820312 346.811523438 398.03125 317.28515625 398.03125 c 0
 289.098476698 398.03125 258.509480587 348.153282876 253.040880069 279.709045317 c 1
EndSplineSet
PickledDataWithLists: "(dp1
S'com.fontlab.hintData'
p2
(dp3
S'vhints'
p4
(lp5
(dp6
S'position'
p7
I300
sS'width'
p8
I176
sasS'hhints'
p9
(lp10
(dp11
g7
I-5
sg8
I133
sa(dp12
g7
I184
sg8
I64
sa(dp13
g7
I346
sg8
I75
sass."
EndChar

StartChar: f
Encoding: 313 102 15
GlifName: f
Width: 470
VWidth: 0
GlyphClass: 2
Flags: HW
HStem: 324.722 121.9<41.503 114.33 331.731 423.835>
VStem: 100.131 217.988<41.1067 462.496 462.652 522.46>
LayerCount: 2
Back
Fore
SplineSet
317.921875 462.65234375 m 2
 317.921875 498.465820312 324.821289062 514.56640625 338.622070312 526.06640625 c 0
 350.979492188 536.364257812 366.943359375 543.31640625 408.204101562 543.31640625 c 0
 440.336914062 543.31640625 455.977539062 561.634765625 455.977539062 580.954101562 c 0
 455.977539062 619.262695312 403.461914062 683.663085938 280.471679688 683.663085938 c 0
 146.78125 683.663085938 102.950195312 620.71484375 101.967773438 470.01171875 c 0
 101.915492689 461.991251301 101.862534926 454.089799974 101.809191062 446.298786294 c 1
 42.658267754 443.115317541 27 416.784177414 27 383.484375 c 0
 27 347.561134064 46.0151748054 326.476220401 100.931573997 324.826372784 c 1
 100.47661696 260.935490851 100.129882812 202.530153435 100.129882812 142.577148438 c 0
 100.129882812 32.12109375 136.411132812 -0.0791015625 208.161132812 -0.0791015625 c 0
 279.91015625 -0.0791015625 318.118164062 32.12109375 318.118164062 150.223632812 c 0
 318.118164062 194.341446036 318.07752542 262.994688048 318.033230164 324.721679688 c 1
 331.729492188 324.721679688 l 2
 403.616210938 324.721679688 437.178710938 335.811523438 437.178710938 379.603515625 c 0
 437.178710938 430.521484375 413.698242188 446.229492188 341.09375 446.622070312 c 2
 317.936084201 446.622070312 l 1
 317.927195343 456.812142492 317.921875 462.65234375 317.921875 462.65234375 c 2
EndSplineSet
PickledDataWithLists: "(dp1
S'com.fontlab.hintData'
p2
(dp3
S'vhints'
p4
(lp5
(dp6
S'position'
p7
I86
sS'width'
p8
I190
sasS'hhints'
p9
(lp10
(dp11
g7
I283
sg8
I106
sa(dp12
g7
I473
sg8
I122
sass."
EndChar

StartChar: g
Encoding: 314 103 16
GlifName: g
Width: 624
VWidth: 0
GlyphClass: 2
Flags: HW
HStem: -226.494 140.05<229.864 350.912> -5.86523 123.49<177.32 338.15> 360.673 123.802<175.227 347.228>
VStem: 45.0377 216.776<142.182 333.699> 363.949 215.048<-75.0887 -1.91895 235.614 431.601> 385.094 93.8379<131.337 316.722>
LayerCount: 2
Back
Fore
SplineSet
227.766601562 -5.865234375 m 0
 126.862304688 -5.865234375 45.03125 81.0556640625 45.03125 235.614257812 c 0
 45.03125 390.797851562 123.014648438 484.474609375 227.427734375 484.474609375 c 0
 284.832988187 484.474609375 336.131118223 461.525880997 377.188895006 428.01607227 c 1
 393.346219961 458.514246833 422.864704313 476.62109375 463.212890625 476.62109375 c 0
 526.057617188 476.62109375 575.419921875 457.227539062 576.123046875 366.89453125 c 2
 578.991210938 -1.9189453125 l 2
 579.978515625 -128.899414062 494.581054688 -226.494140625 341.126953125 -226.494140625 c 0
 187.934570312 -226.494140625 111.616210938 -120.39453125 111.616210938 -76.0673828125 c 0
 111.616210938 -56.7470703125 128.421875 -40.98046875 161.291992188 -40.98046875 c 0
 178.6171875 -40.98046875 190.270507812 -59.7158203125 221.600585938 -70.7275390625 c 0
 246.404296875 -79.4462890625 267.19921875 -86.4443359375 298.508789062 -86.4443359375 c 0
 348.59375 -86.4443359375 364.029296875 -61.5126953125 363.943359375 -23.9140625 c 2
 363.823861714 28.0721319309 l 1
 324.793730285 5.75593548026 278.183958325 -5.865234375 227.766601562 -5.865234375 c 0
363.556814562 144.24817271 m 1
 363.123686602 332.675913757 l 1
 352.650795698 349.744702044 338.260915727 360.672851562 319.58984375 360.672851562 c 0
 283.017578125 360.672851562 261.807617188 295.80859375 261.807617188 235.614257812 c 0
 261.807617188 179.90234375 280.140625 117.625 318.846679688 117.625 c 0
 338.331319095 117.625 353.023387239 128.020102907 363.556814562 144.24817271 c 1
EndSplineSet
PickledDataWithLists: "(dp1
S'com.fontlab.hintData'
p2
(dp3
S'vhints'
p4
(lp5
(dp6
S'position'
p7
I39
sS'width'
p8
I189
sa(dp9
g7
I323
sg8
I187
sa(dp10
g7
I335
sg8
I82
sasS'hhints'
p11
(lp12
(dp13
g7
I-196
sg8
I122
sa(dp14
g7
I-4
sg8
I107
sa(dp15
g7
I314
sg8
I108
sass."
EndChar

StartChar: h
Encoding: 315 104 17
GlifName: h
Width: 621
VWidth: 0
GlyphClass: 2
Flags: HW
HStem: 0.698242 21G<118.382 190.132 426.335 511.824> 324.759 153.821<311.449 491.419>
VStem: 46.2275 217.988<44.7075 250.385 422.5 652.661> 359.818 218.163<44.1113 317.812>
LayerCount: 2
Back
Fore
SplineSet
358.612304688 268.418945312 m 2
 358.612304688 313.227539062 339.700195312 324.758789062 314.861328125 324.758789062 c 0
 284.670898438 324.758789062 264.75390625 293.873046875 264.75390625 250.384765625 c 1
 264.549690541 250.384765625 264.345474832 250.378787448 264.141259124 250.378787448 c 2
 264.21484375 152.080078125 l 2
 264.21484375 39.8427734375 226.005859375 0.6982421875 154.256835938 0.6982421875 c 0
 82.5068359375 0.6982421875 46.2265625 33.12890625 46.2265625 144.37890625 c 2
 44 569.6171875 l 2
 44 657.047851562 92.19140625 690.426757812 154.256835938 690.426757812 c 0
 217.100585938 690.426757812 263.895507812 676.510742188 263.895507812 578.66796875 c 2
 264.00389171 433.882328231 l 1
 318.243821219 466.68526186 375.652305245 478.580078125 444.41796875 478.580078125 c 0
 538.419921875 478.580078125 577.98046875 409.581054688 577.98046875 238.459960938 c 0
 577.98046875 37.9013671875 558.829101562 0.181640625 464.818359375 0.181640625 c 0
 387.850585938 0.181640625 359.817382812 29.62109375 359.817382812 82.7646484375 c 2
 358.612304688 268.418945312 l 2
EndSplineSet
PickledDataWithLists: "(dp1
S'com.fontlab.hintData'
p2
(dp3
S'vhints'
p4
(lp5
(dp6
S'position'
p7
I49
sS'width'
p8
I190
sa(dp9
g7
I162
sg8
I76
sa(dp10
g7
I321
sg8
I190
sasS'hhints'
p11
(lp12
(dp13
g7
I0
sg8
I21
sa(dp14
g7
I1
sg8
I600
sa(dp15
g7
I282
sg8
I134
sass."
EndChar

StartChar: i
Encoding: 316 105 18
GlifName: i
Width: 305
VWidth: 0
GlyphClass: 2
Flags: HW
HStem: 0.0175781 476.986<83.1438 226.792> 543.7 151.983<147.332 312.756>
VStem: 45.2048 215.051<28.0065 437.382> 119.46 217.54<569.283 668.571>
LayerCount: 2
Back
Fore
SplineSet
43.4599609375 616.098632812 m 0
 43.4599609375 558.911132812 96.2919921875 540.015625 151.75 540.015625 c 0
 217.573242188 540.015625 261 555.962890625 261 616.098632812 c 0
 261 667.716796875 223.900390625 691.999023438 151.75 691.999023438 c 0
 80.5810546875 691.999023438 43.4599609375 659.240234375 43.4599609375 616.098632812 c 0
260.254882812 106.704101562 m 2
 260.254882812 25.9423828125 230.354492188 0.017578125 146.801757812 0.017578125 c 0
 64.7548828125 0.017578125 45.2041015625 38.2060546875 45.2041015625 117.776367188 c 2
 45.2041015625 364.350585938 l 2
 45.2041015625 431.982421875 84.3046875 477.00390625 146.196289062 477.00390625 c 0
 209.040039062 477.00390625 260.254882812 457.616210938 260.254882812 367.276367188 c 2
 260.254882812 106.704101562 l 2
EndSplineSet
PickledDataWithLists: "(dp1
S'com.fontlab.hintData'
p2
(dp3
S'vhints'
p4
(lp5
(dp6
S'position'
p7
I42
sS'width'
p8
I199
sa(dp9
g7
I49
sg8
I189
sasS'hhints'
p10
(lp11
(dp12
g7
I0
sg8
I415
sa(dp13
g7
I451
sg8
I132
sass."
EndChar

StartChar: j
Encoding: 317 106 19
GlifName: j
Width: 306
VWidth: 0
GlyphClass: 2
Flags: HW
HStem: -196.472 150.028<-60.2623 22.3986> 518.594 151.983<68.6732 240.105>
VStem: 39.8127 229.04<544.177 642.835> 44.6194 218.024<-19.6219 48.46 356.742 434.495>
LayerCount: 2
Back
SplineSet
39.6337890625 594.676757812 m 256
 39.6337890625 537.489257812 94.765625 518.59375 150.223632812 518.59375 c 256
 216.046875 518.59375 268.673828125 534.541015625 268.673828125 594.676757812 c 256
 268.673828125 646.293945312 222.374023438 670.577148438 150.223632812 670.577148438 c 256
 79.0556640625 670.577148438 39.6337890625 637.818359375 39.6337890625 594.676757812 c 256
260.624023438 372.299804688 m 258
 260.624023438 429.33984375 218.587890625 476.690429688 155.744140625 476.690429688 c 256
 93.1845703125 476.690429688 45.4873046875 443.549804688 45.4873046875 356.7421875 c 256
 45.4873046875 226.138671875 44.4404296875 159.708007812 44.4404296875 48.4599609375 c 256
 44.4404296875 -29.740234375 3.041015625 -47.0234375 -45.6240234375 -47.0234375 c 256
 -78.833984375 -47.0234375 -88.900390625 -47.0234375 -106.2265625 -47.0234375 c 260
 -131.495117188 -47.0234375 -155.1796875 -61.97265625 -155.1796875 -91.873046875 c 260
 -155.1796875 -136.493164062 -71.302734375 -196.471679688 81.890625 -196.471679688 c 256
 215.053710938 -196.471679688 262.46484375 -104.0859375 262.46484375 46.6201171875 c 258
 260.624023438 372.299804688 l 258
EndSplineSet
Fore
SplineSet
260.803710938 372.299804688 m 2
 260.803710938 429.33984375 218.767578125 476.690429688 155.923828125 476.690429688 c 0
 93.3642578125 476.690429688 45.6669921875 443.549804688 45.6669921875 356.7421875 c 0
 45.6669921875 226.138671875 44.6201171875 159.708007812 44.6201171875 48.4599609375 c 0
 44.6201171875 -40.37109375 -1.0673828125 -46.443359375 -63.49609375 -46.443359375 c 0
 -131.346679688 -46.443359375 -155 -59.6728515625 -155 -96.2109375 c 0
 -155 -137.873046875 -71.123046875 -196.471679688 82.0703125 -196.471679688 c 0
 215.233398438 -196.471679688 262.64453125 -104.0859375 262.64453125 46.6201171875 c 2
 260.803710938 372.299804688 l 2
39.8134765625 594.676757812 m 0
 39.8134765625 537.489257812 94.9453125 518.59375 150.403320312 518.59375 c 0
 216.2265625 518.59375 268.853515625 534.541015625 268.853515625 594.676757812 c 0
 268.853515625 646.293945312 222.553710938 670.577148438 150.403320312 670.577148438 c 0
 79.2353515625 670.577148438 39.8134765625 637.818359375 39.8134765625 594.676757812 c 0
EndSplineSet
PickledDataWithLists: "(dp1
S'com.fontlab.hintData'
p2
(dp3
S'vhints'
p4
(lp5
(dp6
S'position'
p7
I51
sS'width'
p8
I199
sa(dp9
g7
I55
sg8
I190
sasS'hhints'
p10
(lp11
(dp12
g7
I-171
sg8
I130
sa(dp13
g7
I451
sg8
I132
sass."
EndChar

StartChar: k
Encoding: 318 107 20
GlifName: k
Width: 583
VWidth: 0
GlyphClass: 2
Flags: HW
HStem: 0.30957 673.465<84.1242 213.229> 0.310547 235.521<430.181 502.344> 141.991 185.84<265.891 333.515>
VStem: 45.6758 213.962<49.2887 141.991 351.911 632.715> 336.795 213.205<24.6671 140.224 331.357 445.516>
LayerCount: 2
Back
Fore
SplineSet
302.21484375 141.991210938 m 2
 265.891601562 141.991210938 l 1
 265.891601562 80.3515625 227.68359375 0.3095703125 155.932617188 0.3095703125 c 0
 84.1826171875 0.3095703125 47.904296875 32.509765625 47.904296875 142.967773438 c 0
 47.904296875 253.426757812 45.67578125 467.016601562 45.67578125 553.823242188 c 0
 45.67578125 643.391601562 88.7734375 670.20703125 155.932617188 673.774414062 c 0
 242.4140625 673.774414062 259.637695312 618.551757812 259.637695312 488.831054688 c 0
 259.637695312 441.098632812 256.5859375 388.717773438 251.05078125 350.090820312 c 1
 255.62109375 335.505859375 267.18359375 327.831054688 296.4375 327.831054688 c 0
 327.053710938 327.831054688 336.794921875 337.952148438 336.794921875 381.458007812 c 0
 336.794921875 440.991210938 363.465820312 470.430664062 444.796875 470.430664062 c 0
 530.287109375 470.430664062 550 442.831054688 550 366.471679688 c 0
 550 276.310546875 483.454101562 235.831054688 430.094726562 235.831054688 c 1
 483.454101562 235.831054688 550 204.551757812 550 121.751953125 c 0
 550 20.2626953125 530.287109375 0.310546875 444.796875 0.310546875 c 0
 363.465820312 0.310546875 336.794921875 29.751953125 336.794921875 89.2841796875 c 0
 336.794921875 134.630859375 327.311523438 141.991210938 302.21484375 141.991210938 c 2
EndSplineSet
PickledDataWithLists: "(dp1
S'com.fontlab.hintData'
p2
(dp3
S'vhints'
p4
(lp5
(dp6
S'position'
p7
I43
sS'width'
p8
I186
sa(dp9
g7
I296
sg8
I185
sasS'hhints'
p10
(lp11
(dp12
g7
I0
sg8
I586
sa(dp13
g7
I0
sg8
I205
sa(dp14
g7
I123
sg8
I162
sass."
EndChar

StartChar: l
Encoding: 319 108 21
GlifName: l
Width: 306
VWidth: 0
GlyphClass: 2
Flags: HW
HStem: 0.368164 684.813<83.4228 224.568>
VStem: 46.013 217.987<44.0642 647.684>
LayerCount: 2
Back
Fore
SplineSet
264 150.672851562 m 2
 264 39.2353515625 225.791992188 0.3681640625 154.04296875 0.3681640625 c 0
 82.29296875 0.3681640625 46.0126953125 32.568359375 46.0126953125 143.025390625 c 2
 43.787109375 565.232421875 l 2
 43.787109375 652.040039062 91.9765625 685.181640625 154.04296875 685.181640625 c 0
 216.88671875 685.181640625 263.681640625 671.36328125 263.681640625 574.21875 c 2
 264 150.672851562 l 2
EndSplineSet
PickledDataWithLists: "(dp1
S'com.fontlab.hintData'
p2
(dp3
S'vhints'
p4
(lp5
(dp6
S'position'
p7
I46
sS'width'
p8
I190
sasS'hhints'
p9
(lp10
(dp11
g7
I0
sg8
I595
sass."
EndChar

StartChar: m
Encoding: 320 109 22
GlifName: m
Width: 916
VWidth: 0
GlyphClass: 2
Flags: HW
HStem: 0.0175781 21G<116.574 199.374 417.82 496.115 708.847 794.337> 320.458 153.82<308.442 416.031 586.801 727.941>
VStem: 56 215.05<28.0065 246.085 364.351 431.982> 183.599 87.4512<245.229 303.51> 357.13 199.763<41.248 308.926> 468.798 87.6689<246.085 289.572> 642.33 218.162<44.4094 311.317>
LayerCount: 2
Back
Fore
SplineSet
641.125 264.118164062 m 0
 641.125 308.92578125 622.211914062 320.458007812 597.374023438 320.458007812 c 0
 574.555506527 320.458007812 558.922752129 293.979607375 556.731434578 255.536436136 c 0
 556.83875037 250.062016034 556.892578156 244.470316841 556.892578125 238.759765625 c 0
 556.892578125 38.19921875 539.298828125 0.4794921875 452.931640625 0.4794921875 c 0
 382.70703125 0.4794921875 357.129882812 29.9189453125 357.129882812 83.0634765625 c 0
 357.129882812 148.984375 355.92578125 218.379882812 355.92578125 264.118164062 c 0
 355.92578125 308.92578125 337.01171875 320.458007812 312.173828125 320.458007812 c 0
 287.529296875 320.458007812 271.266601562 289.572265625 271.266601562 246.084960938 c 1
 271.194335938 246.084960938 271.122070312 246.082845422 271.049804688 246.082845422 c 2
 271.049804688 106.704101562 l 2
 271.049804688 25.9423828125 241.150390625 0.017578125 157.59765625 0.017578125 c 0
 75.5498046875 0.017578125 56 38.2060546875 56 117.776367188 c 2
 56 364.350585938 l 2
 56 431.982421875 95.099609375 477.00390625 156.9921875 477.00390625 c 0
 203.444594722 477.00390625 243.542703577 466.410918975 261.299847998 424.399762065 c 1
 311.648795951 461.140509749 355.479355285 474.278320313 421.033203125 474.278320312 c 0
 468.818716198 474.278320312 504.922282088 455.082807381 527.856064096 409.804219591 c 1
 531.141137187 412.738048196 534.596379293 415.541043468 538.229492188 418.19921875 c 0
 594.913085938 459.673828125 654.275390625 474.278320312 726.932617188 474.278320312 c 0
 820.932617188 474.278320312 860.4921875 409.879882812 860.4921875 238.759765625 c 0
 860.4921875 38.19921875 841.341796875 0.4794921875 747.33203125 0.4794921875 c 0
 670.362304688 0.4794921875 642.330078125 29.9189453125 642.330078125 83.0634765625 c 0
 642.330078125 148.984375 641.125 218.379882812 641.125 264.118164062 c 0
EndSplineSet
PickledDataWithLists: "(dp1
S'com.fontlab.hintData'
p2
(dp3
S'vhints'
p4
(lp5
(dp6
S'position'
p7
I38
sS'width'
p8
I189
sa(dp9
g7
I148
sg8
I76
sa(dp10
g7
I299
sg8
I174
sa(dp11
g7
I396
sg8
I76
sa(dp12
g7
I547
sg8
I190
sasS'hhints'
p13
(lp14
(dp15
g7
I0
sg8
I415
sa(dp16
g7
I0
sg8
I21
sa(dp17
g7
I279
sg8
I134
sass."
EndChar

StartChar: n
Encoding: 321 110 23
GlifName: n
Width: 616
VWidth: 0
GlyphClass: 2
Flags: HW
HStem: -0.105469 21G<104.695 187.496 420.355 505.844> 324.939 153.82<305.469 485.44>
VStem: 44.1215 215.05<27.884 250.565 364.228 431.86> 171.106 88.0654<249.71 307.99> 353.837 218.163<44.2903 317.992>
LayerCount: 2
Back
Fore
SplineSet
352.631835938 268.598632812 m 2
 352.631835938 313.40625 333.719726562 324.939453125 308.881835938 324.939453125 c 0
 281.170202153 324.939453125 262.114253644 298.915625216 259.171875 261.011894722 c 2
 259.171875 106.58203125 l 2
 259.171875 25.8203125 229.272460938 -0.10546875 145.719726562 -0.10546875 c 0
 63.671875 -0.10546875 44.1220703125 38.083984375 44.1220703125 117.654296875 c 2
 44.1220703125 364.227539062 l 2
 44.1220703125 431.860351562 83.2216796875 476.881835938 145.114257812 476.881835938 c 0
 190.288091286 476.881835938 229.452608687 466.863449734 247.905212473 427.674924472 c 1
 305.142202753 465.33396603 365.381346185 478.759765625 438.439453125 478.759765625 c 0
 532.440429688 478.759765625 572 409.760742188 572 238.640625 c 0
 572 38.080078125 552.849609375 0.3603515625 458.83984375 0.3603515625 c 0
 381.870117188 0.3603515625 353.836914062 29.7998046875 353.836914062 82.9443359375 c 2
 352.631835938 268.598632812 l 2
EndSplineSet
PickledDataWithLists: "(dp1
S'com.fontlab.hintData'
p2
(dp3
S'vhints'
p4
(lp5
(dp6
S'position'
p7
I42
sS'width'
p8
I189
sa(dp9
g7
I153
sg8
I76
sa(dp10
g7
I312
sg8
I190
sasS'hhints'
p11
(lp12
(dp13
g7
I0
sg8
I415
sa(dp14
g7
I0
sg8
I21
sa(dp15
g7
I283
sg8
I134
sass."
EndChar

StartChar: o
Encoding: 322 111 24
GlifName: o
Width: 633
VWidth: 0
GlyphClass: 2
Flags: HW
HStem: -6.86816 115.439<288.265 347.78> 368.408 115.292<288.188 347.971>
VStem: 40.0635 223.658<132.753 340.613> 370.441 223.559<132.629 340.722>
LayerCount: 2
Back
Fore
SplineSet
370.4375 237.302734375 m 0
 370.4375 300.1328125 354.047851562 368.408203125 318.95703125 368.408203125 c 0
 282.708984375 368.408203125 263.717773438 299.334960938 263.717773438 237.369140625 c 0
 263.717773438 175.432617188 281.368164062 108.571289062 318.456054688 108.571289062 c 0
 355.54296875 108.571289062 370.4375 174.502929688 370.4375 237.302734375 c 0
317.965820312 -6.8681640625 m 0
 164.145507812 -6.8681640625 40.0595703125 81.119140625 40.0595703125 235.53125 c 0
 40.0595703125 391.000976562 158.702148438 483.700195312 317.971679688 483.700195312 c 0
 477.279296875 483.700195312 593.99609375 391.000976562 593.99609375 235.53125 c 0
 593.99609375 81.119140625 471.823242188 -6.8681640625 317.965820312 -6.8681640625 c 0
EndSplineSet
PickledDataWithLists: "(dp1
S'com.fontlab.hintData'
p2
(dp3
S'vhints'
p4
(lp5
(dp6
S'position'
p7
I35
sS'width'
p8
I194
sa(dp9
g7
I323
sg8
I194
sasS'hhints'
p10
(lp11
(dp12
g7
I-5
sg8
I99
sa(dp13
g7
I320
sg8
I101
sass."
EndChar

StartChar: p
Encoding: 323 112 25
GlifName: p
Width: 631
VWidth: 0
GlyphClass: 2
Flags: HW
HStem: -207.91 684.812<87.6354 221.1> -6.0918 123.49<293.892 454.723> 360.445 123.803<284.814 456.816>
VStem: 50.2251 217.989<-164.214 -57.6064 235.388 439.405> 153.11 93.8398<131.11 316.495> 370.228 216.776<141.956 333.472>
LayerCount: 2
Back
Fore
SplineSet
268.21484375 -57.6064453125 m 2
 268.21484375 -169.043945312 230.004882812 -207.91015625 158.255859375 -207.91015625 c 0
 86.5068359375 -207.91015625 50.2255859375 -175.709960938 50.2255859375 -65.2529296875 c 2
 48 356.953125 l 2
 48 443.760742188 96.1904296875 476.90234375 158.255859375 476.90234375 c 0
 203.361273494 476.90234375 240.1983949 469.784045997 257.400689387 429.848634099 c 1
 298.023997259 462.235871551 348.388103713 484.248046875 404.610351562 484.248046875 c 0
 509.022460938 484.248046875 587.004882812 390.571289062 587.004882812 235.387695312 c 0
 587.004882812 80.828125 505.17578125 -6.091796875 404.270507812 -6.091796875 c 0
 353.825956712 -6.091796875 307.193172169 5.54162480552 268.150192724 27.8809355485 c 1
 268.21484375 -57.6064453125 l 2
268.061866355 144.673978574 m 1
 278.623345648 128.072653525 293.446346308 117.3984375 313.190429688 117.3984375 c 0
 351.897460938 117.3984375 370.228515625 179.67578125 370.228515625 235.387695312 c 0
 370.228515625 295.58203125 349.020507812 360.4453125 312.447265625 360.4453125 c 0
 293.1791376 360.4453125 278.470559673 348.807252065 267.921111537 330.792615246 c 1
 268.061866355 144.673978574 l 1
EndSplineSet
PickledDataWithLists: "(dp1
S'com.fontlab.hintData'
p2
(dp3
S'vhints'
p4
(lp5
(dp6
S'position'
p7
I47
sS'width'
p8
I190
sa(dp9
g7
I141
sg8
I82
sa(dp10
g7
I330
sg8
I189
sasS'hhints'
p11
(lp12
(dp13
g7
I-181
sg8
I595
sa(dp14
g7
I-5
sg8
I107
sa(dp15
g7
I313
sg8
I108
sass."
EndChar

StartChar: q
Encoding: 324 113 26
GlifName: q
Width: 626
VWidth: 0
GlyphClass: 2
Flags: HW
HStem: -5.75195 123.802<171.299 320.278> 359.946 123.28<287.391 354.085>
VStem: 41.0003 222.524<144.528 333.145> 364.99 217.838<-167.317 43.0576 126.577 350.999>
LayerCount: 2
Back
Fore
SplineSet
365.883789062 43.0576171875 m 1
 326.106445312 13.5234375 277.461914062 -5.751953125 223.397460938 -5.751953125 c 0
 119.19921875 -5.751953125 41 91.76953125 41 227.469726562 c 0
 41 393.069335938 167.0390625 483.2265625 337.239257812 483.2265625 c 0
 483.51953125 483.2265625 582.827148438 416.625976562 582.827148438 291.8671875 c 2
 585.053710938 -85.4658203125 l 2
 585.053710938 -172.274414062 537.641601562 -205.415039062 474.797851562 -205.415039062 c 0
 400.947265625 -205.415039062 365.299804688 -161.23046875 365.299804688 -94.453125 c 2
 365.883789062 43.0576171875 l 1
364.828125 325.7421875 m 1
 354.6328125 346.165039062 339.059570312 359.946289062 317.114257812 359.946289062 c 0
 280.75 359.946289062 263.524414062 300.705078125 263.524414062 247.70703125 c 0
 263.524414062 185.297851562 283.74609375 118.049804688 317.858398438 118.049804688 c 0
 339.275390625 118.049804688 354.783203125 133.127929688 364.989257812 155.107421875 c 1
 364.989257812 188.797851562 364.828125 263.770507812 364.828125 325.7421875 c 1
EndSplineSet
PickledDataWithLists: "(dp1
S'com.fontlab.hintData'
p2
(dp3
S'vhints'
p4
(lp5
(dp6
S'position'
p7
I34
sS'width'
p8
I188
sa(dp9
g7
I315
sg8
I190
sasS'hhints'
p10
(lp11
(dp12
g7
I-4
sg8
I108
sa(dp13
g7
I314
sg8
I107
sass."
EndChar

StartChar: r
Encoding: 325 114 27
GlifName: r
Width: 480
VWidth: 0
GlyphClass: 2
Flags: HW
HStem: 0.0175781 21G<106.419 189.219> 322.762 154.232<282.854 394.54>
VStem: 45.8452 215.05<28.0065 431.982> 160.855 87.668<248.388 291.875>
LayerCount: 2
Back
Fore
SplineSet
260.896484375 106.704101562 m 2
 260.896484375 25.9423828125 230.99609375 0.017578125 147.443359375 0.017578125 c 0
 65.396484375 0.017578125 45.8466796875 38.2060546875 45.8466796875 117.776367188 c 2
 45.8466796875 364.350585938 l 2
 45.8466796875 431.982421875 84.9462890625 477.00390625 146.838867188 477.00390625 c 0
 190.070523948 477.00390625 227.799231953 467.828627706 247.136821216 432.690416087 c 1
 278.255056479 456.491351865 319.339860479 476.994140625 359.350585938 476.994140625 c 0
 429.731445312 476.994140625 464 444.958007812 464 377.108398438 c 0
 464 324.208007812 430.650390625 287.408203125 381.200195312 287.408203125 c 0
 329.450195312 287.408203125 331.75 322.76171875 294.032226562 322.76171875 c 0
 278.404428486 322.76171875 267.862240368 317.261148619 260.896484375 307.634290073 c 1
 260.896484375 106.704101562 l 2
EndSplineSet
PickledDataWithLists: "(dp1
S'com.fontlab.hintData'
p2
(dp3
S'vhints'
p4
(lp5
(dp6
S'position'
p7
I37
sS'width'
p8
I189
sa(dp9
g7
I128
sg8
I76
sasS'hhints'
p10
(lp11
(dp12
g7
I0
sg8
I415
sa(dp13
g7
I281
sg8
I134
sass."
EndChar

StartChar: s
Encoding: 326 115 28
GlifName: s
Width: 562
VWidth: 0
GlyphClass: 2
Flags: HW
HStem: -7.10938 120.324<143.587 299.824> 388.339 95.8311<258.788 395.015>
VStem: 42.3805 213.87<297.73 386.256> 301.178 222.822<117.925 187.828>
LayerCount: 2
Back
Fore
SplineSet
280.8359375 484.169921875 m 0
 139.92578125 484.169921875 42.380859375 418.215820312 42.380859375 324.780273438 c 0
 42.380859375 274.94140625 58.8232421875 235.5 120.581054688 207.819335938 c 1
 189.581054688 165.004882812 301.177734375 167.342773438 301.177734375 135.260742188 c 0
 301.177734375 114.353515625 275.716796875 108.21484375 245.578125 108.21484375 c 0
 171.650390625 108.21484375 123.946289062 146.029296875 83.138671875 146.029296875 c 0
 54.388671875 146.029296875 42.0283203125 130.143554688 42.0283203125 113.390625 c 0
 42.0283203125 65.576171875 128.166992188 -7.109375 265.297851562 -7.109375 c 0
 449.076171875 -7.109375 524 80.2236328125 524 149.405273438 c 0
 524 218.75390625 496.630859375 260.493164062 393.360351562 300.291015625 c 1
 334.696289062 328.534179688 256.250976562 331.548828125 256.250976562 368.555664062 c 0
 256.250976562 387.16796875 272.892578125 393.338867188 295.028320312 393.338867188 c 0
 390 393.338867188 442 329.314453125 482 329.314453125 c 0
 496.188476562 329.314453125 506.046875 344.600585938 506.046875 363.305664062 c 0
 506.046875 418.665039062 417.193359375 484.169921875 280.8359375 484.169921875 c 0
EndSplineSet
PickledDataWithLists: "(dp1
S'com.fontlab.hintData'
p2
(dp3
S'vhints'
p4
(lp5
(dp6
S'position'
p7
I39
sS'width'
p8
I186
sasS'hhints'
p9
(lp10
(dp11
g7
I-5
sg8
I104
sa(dp12
g7
I340
sg8
I81
sass."
EndChar

StartChar: t
Encoding: 327 116 29
GlifName: t
Width: 501
VWidth: 0
GlyphClass: 2
Flags: HW
HStem: 0.148438 167.698<210.649 360.963> 331.259 121.9<42.5679 115.396 332.797 424.902>
LayerCount: 2
Back
Fore
SplineSet
95.5400390625 213.80078125 m 0
 95.5400390625 63.0927734375 143.803710938 0.1484375 277.494140625 0.1484375 c 0
 400.484375 0.1484375 453 116.280273438 453 185.361328125 c 0
 453 204.681640625 437.359375 223 405.2265625 223 c 0
 375.64453125 223 376.654296875 167.846679688 343.444335938 167.846679688 c 0
 321.364257812 167.846679688 314.944335938 177.919921875 314.944335938 221.16015625 c 0
 314.944335938 258.141571564 314.893400894 294.456406868 314.825394474 331.258789062 c 1
 332.796875 331.258789062 l 2
 404.682617188 331.258789062 438.247070312 342.348632812 438.247070312 386.140625 c 0
 438.247070312 437.05859375 414.765625 452.767578125 342.16015625 453.159179688 c 2
 314.588809813 453.159179688 l 1
 314.527688093 489.700506612 314.483398438 527.745344868 314.483398438 568.229492188 c 0
 314.483398438 610.893554688 310.063476562 643.533203125 260.6640625 643.533203125 c 0
 193.963867188 643.533203125 96.90625 597.775390625 96.90625 545.229492188 c 0
 96.90625 512.378391823 96.8146252961 481.720324491 96.678831764 452.404815766 c 1
 42.6218779341 447.754810763 28.0673828125 422.126951083 28.0673828125 390.020507812 c 0
 28.0673828125 355.447807139 45.679762301 334.618591623 95.959487889 331.631490952 c 1
 95.7253567992 292.930415385 95.5400390625 254.468960782 95.5400390625 213.80078125 c 0
EndSplineSet
PickledDataWithLists: "(dp1
S'com.fontlab.hintData'
p2
(dp3
S'hhints'
p4
(lp5
(dp6
S'position'
p7
I-5
sS'width'
p8
I146
sa(dp9
g7
I283
sg8
I106
sass."
EndChar

StartChar: u
Encoding: 328 117 30
GlifName: u
Width: 625
VWidth: 0
GlyphClass: 2
Flags: HW
HStem: 0.510742 153.82<132.262 312.233>
VStem: 45.7033 219.368<160.218 433.83> 358.95 215.05<26.884 116.654 228.705 436.259> 358.95 87.6455<171.28 229.561>
LayerCount: 2
Back
Fore
SplineSet
265.071289062 210.670898438 m 0
 265.071289062 165.86328125 283.983398438 154.331054688 308.821289062 154.331054688 c 0
 339.01171875 154.331054688 358.928710938 185.217773438 358.928710938 228.705078125 c 1
 358.950195312 228.705287773 l 1
 358.950195312 363.227539062 l 2
 358.950195312 430.860351562 398.049804688 475.881835938 459.942382812 475.881835938 c 0
 522.786132812 475.881835938 574 456.493164062 574 366.153320312 c 2
 574 105.58203125 l 2
 574 24.8203125 544.099609375 -1.10546875 460.547851562 -1.10546875 c 0
 406.255511829 -1.10546875 379.329034219 15.6164507514 367.324435219 49.9849796772 c 1
 310.824504788 13.5529548915 251.26864922 0.5107421875 179.262695312 0.5107421875 c 0
 85.26171875 0.5107421875 45.703125 68.359375 45.703125 239.479492188 c 0
 45.703125 440.040039062 64.8525390625 477.759765625 158.862304688 477.759765625 c 0
 235.833007812 477.759765625 263.865234375 447.169921875 263.865234375 394.02734375 c 0
 263.865234375 328.104492188 265.071289062 256.41015625 265.071289062 210.670898438 c 0
EndSplineSet
PickledDataWithLists: "(dp1
S'com.fontlab.hintData'
p2
(dp3
S'vhints'
p4
(lp5
(dp6
S'position'
p7
I45
sS'width'
p8
I191
sa(dp9
g7
I317
sg8
I189
sa(dp10
g7
I318
sg8
I76
sasS'hhints'
p11
(lp12
(dp13
g7
I-1
sg8
I415
sa(dp14
g7
I0
sg8
I134
sass."
EndChar

StartChar: v
Encoding: 329 118 31
GlifName: v
Width: 617
VWidth: 0
GlyphClass: 2
Flags: HW
HStem: 0.0195312 150.142<269.779 346.199>
VStem: 44.3513 219.368<154.816 436.737> 351.632 219.368<154.816 436.737>
LayerCount: 2
Back
Fore
SplineSet
306.958984375 150.161132812 m 0
 349.194335938 150.161132812 351.631835938 175.3125 351.631835938 227.12890625 c 0
 351.631835938 263.927734375 352.837890625 332.50390625 352.837890625 388.06640625 c 0
 352.837890625 447.598632812 380.87109375 477.040039062 466.360351562 477.040039062 c 0
 551.850585938 477.040039062 571 438.155273438 571 246.579101562 c 0
 571 60.7392578125 419.618164062 0.01953125 308.595703125 0.01953125 c 0
 197.6328125 0.01953125 44.3515625 60.7392578125 44.3515625 246.579101562 c 0
 44.3515625 438.155273438 63.501953125 477.040039062 148.991210938 477.040039062 c 0
 234.481445312 477.040039062 262.513671875 447.598632812 262.513671875 388.06640625 c 0
 262.513671875 332.524414062 263.719726562 263.975585938 263.719726562 228.048828125 c 0
 263.719726562 177.629882812 263.72265625 150.161132812 306.958984375 150.161132812 c 0
EndSplineSet
PickledDataWithLists: "(dp1
S'com.fontlab.hintData'
p2
(dp3
S'vhints'
p4
(lp5
(dp6
S'position'
p7
I39
sS'width'
p8
I191
sa(dp9
g7
I306
sg8
I191
sasS'hhints'
p10
(lp11
(dp12
g7
I0
sg8
I131
sass."
EndChar

StartChar: w
Encoding: 330 119 32
GlifName: w
Width: 890
VWidth: 0
GlyphClass: 2
Flags: HW
HStem: -0.0800781 150.142<266.07 346.246 544.914 626.28>
VStem: 43.12 219.368<154.716 436.638> 338.44 214.768<175.113 445.365> 629.16 219.368<154.716 436.638>
LayerCount: 2
Back
Fore
SplineSet
590.0078125 150.061523438 m 0
 627.0234375 150.061523438 629.16015625 169.200195312 629.16015625 208.629882812 c 0
 629.16015625 249.63671875 630.365234375 326.051757812 630.365234375 387.966796875 c 0
 630.365234375 447.499023438 658.399414062 476.940429688 743.888671875 476.940429688 c 0
 829.37890625 476.940429688 848.528320312 438.055664062 848.528320312 246.479492188 c 0
 848.528320312 60.6396484375 702.454101562 -0.080078125 595.32421875 -0.080078125 c 0
 548.442382812 -0.080078125 494.4453125 14.9150390625 446.422851562 51.234375 c 1
 398.771484375 14.9150390625 345.07421875 -0.080078125 298.1640625 -0.080078125 c 0
 191.064453125 -0.080078125 43.1201171875 60.6396484375 43.1201171875 246.479492188 c 0
 43.1201171875 438.055664062 62.2705078125 476.940429688 147.759765625 476.940429688 c 0
 233.249023438 476.940429688 261.283203125 447.499023438 261.283203125 387.966796875 c 0
 261.283203125 326.038085938 262.48828125 249.607421875 262.48828125 209.549804688 c 0
 262.48828125 171.041015625 262.491210938 150.061523438 300.208007812 150.061523438 c 0
 330.012695312 150.061523438 342.057617188 157.713867188 346.885742188 173.309570312 c 1
 341.44140625 211.7109375 338.440429688 254.385742188 338.440429688 301.6796875 c 0
 338.440429688 451.623046875 356.645507812 476.794921875 449.504882812 476.794921875 c 0
 534.916015625 476.526367188 553.208007812 451.62109375 553.208007812 301.6796875 c 0
 553.208007812 253.948242188 550.157226562 210.947265625 544.622070312 172.3203125 c 1
 549.19140625 157.735351562 560.754882812 150.061523438 590.0078125 150.061523438 c 0
EndSplineSet
PickledDataWithLists: "(dp1
S'com.fontlab.hintData'
p2
(dp3
S'vhints'
p4
(lp5
(dp6
S'position'
p7
I43
sS'width'
p8
I191
sa(dp9
g7
I299
sg8
I187
sa(dp10
g7
I552
sg8
I191
sasS'hhints'
p11
(lp12
(dp13
g7
I0
sg8
I131
sass."
EndChar

StartChar: x
Encoding: 331 120 33
GlifName: x
Width: 602
VWidth: 0
GlyphClass: 2
Flags: HW
HStem: 0.0322266 21G<130.535 186.476 416.851 472.785>
LayerCount: 2
Back
Fore
SplineSet
302.119140625 98.87890625 m 1
 263.278320312 57.955078125 214.075195312 0.0322265625 158.875 0.0322265625 c 0
 102.194335938 0.0322265625 35.3193359375 56.5458984375 35.3193359375 113.39453125 c 0
 35.3193359375 145.57421875 121.52734375 207.829101562 152.720703125 233.6015625 c 1
 110.803710938 271.997070312 42.4501953125 313.327148438 42.4501953125 384.079101562 c 0
 42.4501953125 429.250976562 96.40234375 476.049804688 143.419921875 476.049804688 c 0
 209.630859375 476.049804688 255.390625 398.521484375 302.401367188 352.684570312 c 1
 347.665039062 398.647460938 394.147460938 476.049804688 459.899414062 476.049804688 c 0
 508.421875 476.049804688 561.4453125 426.165039062 561.4453125 382.928710938 c 0
 561.4453125 323.489257812 489.143554688 268.909179688 450.598632812 233.6015625 c 1
 481.793945312 207.829101562 568 145.57421875 568 113.39453125 c 0
 568 56.5458984375 501.125 0.0322265625 444.444335938 0.0322265625 c 0
 389.256835938 0.0322265625 340.758789062 58.16796875 302.119140625 98.87890625 c 1
EndSplineSet
PickledDataWithLists: "(dp1
S'com.fontlab.hintData'
p2
(dp3
S'hhints'
p4
(lp5
(dp6
S'position'
p7
I0
sS'width'
p8
I21
sass."
EndChar

StartChar: y
Encoding: 332 121 34
GlifName: y
Width: 607
VWidth: 0
GlyphClass: 2
Flags: HW
HStem: -229.196 140.051<176.514 294.755>
VStem: 45.0001 215.918<155.713 431.33> 348.831 214.768<156.007 438.983>
LayerCount: 2
Back
SplineSet
349.295898438 -8.166015625 m 262
 348.404296875 379.715820312 l 262
 348.248046875 447.348632812 384.943359375 492.369140625 448.565429688 492.369140625 c 260
 511.41015625 492.369140625 560.772460938 472.975585938 561.475585938 382.642578125 c 262
 564.34375 13.8291015625 l 262
 565.331054688 -113.151367188 479.93359375 -210.74609375 326.479492188 -210.74609375 c 260
 173.287109375 -210.74609375 96.96875 -104.646484375 96.96875 -60.3193359375 c 260
 96.96875 -40.9990234375 113.774414062 -25.232421875 146.64453125 -25.232421875 c 260
 163.969726562 -25.232421875 175.623046875 -43.9677734375 206.953125 -54.9794921875 c 260
 231.756835938 -63.6982421875 252.551757812 -70.6962890625 283.861328125 -70.6962890625 c 260
 333.946289062 -70.6962890625 349.381835938 -45.7646484375 349.295898438 -8.166015625 c 262
EndSplineSet
Fore
SplineSet
563.59765625 282.395507812 m 0
 563.59765625 180.131835938 562.581054688 107.732421875 554.3984375 43.1953125 c 0
 533.166992188 -124.25 438.634765625 -229.196289062 287.783203125 -229.196289062 c 0
 134.590820312 -229.196289062 58.271484375 -123.095703125 58.271484375 -78.7685546875 c 0
 58.271484375 -56.916015625 75.078125 -39.0830078125 107.947265625 -39.0830078125 c 0
 125.272460938 -39.0830078125 136.358398438 -62.2177734375 168.255859375 -73.4296875 c 0
 193.059570312 -82.1484375 213.854492188 -89.1455078125 245.165039062 -89.1455078125 c 0
 295.249023438 -89.1455078125 310.598632812 -53.669921875 310.598632812 -0.166015625 c 1
 182.541015625 0.7451171875 45 61.927734375 45 214.884765625 c 0
 45 432.944335938 63.5185546875 477.203125 146.189453125 477.203125 c 0
 231.6796875 477.203125 259.711914062 447.763671875 259.711914062 388.231445312 c 0
 259.711914062 332.291015625 260.91796875 263.248046875 260.91796875 227.063476562 c 0
 260.91796875 176.64453125 260.919921875 149.174804688 304.157226562 149.174804688 c 0
 346.391601562 149.174804688 348.830078125 174.328125 348.830078125 226.143554688 c 0
 348.830078125 263.206054688 350.036132812 332.270507812 350.036132812 388.231445312 c 0
 350.036132812 447.763671875 378.068359375 477.203125 463.557617188 477.203125 c 0
 553.869140625 477.203125 563.59765625 411.948242188 563.59765625 282.395507812 c 0
EndSplineSet
PickledDataWithLists: "(dp1
S'com.fontlab.hintData'
p2
(dp3
S'vhints'
p4
(lp5
(dp6
S'position'
p7
I38
sS'width'
p8
I191
sa(dp9
g7
I305
sg8
I191
sasS'hhints'
p10
(lp11
(dp12
g7
I-176
sg8
I122
sass."
EndChar

StartChar: z
Encoding: 333 122 35
GlifName: z
Width: 557
VWidth: 0
GlyphClass: 2
Flags: HW
HStem: 0 125.536<319.192 513.268> 350.98 125.536<69.933 229.156>
LayerCount: 2
Back
Fore
SplineSet
452.400390625 125.536132812 m 0
 509.900390625 125.536132812 525.190429688 103.041015625 525.190429688 54.0771484375 c 0
 525.190429688 7.2587890625 493.51171875 0 422.9609375 0 c 0
 350.280273438 0 188.360351562 0 127.640625 0 c 0
 86.240234375 0 36.560546875 31.2802734375 36.560546875 84.640625 c 0
 36.560546875 140.745117188 45.1171875 160.080078125 98.1943359375 213.158203125 c 0
 143.811523438 261.180664062 188.032226562 307.6640625 229.15625 350.897460938 c 1
 204.596679688 350.98046875 179.87890625 350.98046875 155.995117188 350.98046875 c 0
 85.4453125 350.98046875 53.7666015625 368.358398438 53.7666015625 415.176757812 c 0
 53.7666015625 464.140625 69.42578125 476.516601562 142.032226562 476.516601562 c 0
 219.475585938 476.516601562 368.573242188 476.560546875 445.9609375 476.560546875 c 0
 506.680664062 476.560546875 526 425.638671875 526 399.741210938 c 0
 526 336.897460938 510.360351562 327.5546875 470.291015625 287.485351562 c 0
 419.408203125 234.341796875 374.689453125 182.352539062 319.192382812 125.279296875 c 1
 361.301757812 125.415039062 418.092773438 125.536132812 452.400390625 125.536132812 c 0
EndSplineSet
PickledDataWithLists: "(dp1
S'com.fontlab.hintData'
p2
(dp3
S'hhints'
p4
(lp5
(dp6
S'position'
p7
I0
sS'width'
p8
I109
sa(dp9
g7
I305
sg8
I109
sass."
EndChar

StartChar: dotlessi
Encoding: 364 305 36
GlifName: dotlessi
Width: 283
VWidth: 0
GlyphClass: 2
Flags: HW
HStem: 0.0175781 476.986<71.8888 215.537>
VStem: 33.9498 215.051<28.0065 437.382>
LayerCount: 2
Back
Fore
SplineSet
249 106.704101562 m 2
 249 25.9423828125 219.099609375 0.017578125 135.546875 0.017578125 c 0
 53.5 0.017578125 33.94921875 38.2060546875 33.94921875 117.776367188 c 2
 33.94921875 364.350585938 l 2
 33.94921875 431.982421875 73.0498046875 477.00390625 134.94140625 477.00390625 c 0
 197.78515625 477.00390625 249 457.616210938 249 367.276367188 c 2
 249 106.704101562 l 2
EndSplineSet
PickledDataWithLists: "(dp1
S'com.fontlab.hintData'
p2
(dp3
S'vhints'
p4
(lp5
(dp6
S'position'
p7
I102
sS'width'
p8
I189
sasS'hhints'
p9
(lp10
(dp11
g7
I0
sg8
I415
sass."
EndChar

StartChar: quotesingle
Encoding: 473 39 37
GlifName: quotesingle
Width: 243
VWidth: 0
GlyphClass: 2
Flags: HW
HStem: 350.482 316.834<58.097 183.208>
VStem: 31.6004 179.4<376.431 638.811>
LayerCount: 2
Back
Fore
SplineSet
31.599609375 571.23046875 m 2
 31.599609375 643.8203125 70.333984375 667.31640625 127.369140625 667.31640625 c 0
 177.584960938 667.31640625 211 633.735351562 211 561.8671875 c 2
 211 431.565429688 l 2
 211 371.151367188 166.055664062 350.482421875 123.487304688 350.482421875 c 0
 83.419921875 350.482421875 31.599609375 368.330078125 31.599609375 437.811523438 c 2
 31.599609375 571.23046875 l 2
EndSplineSet
EndChar

StartChar: Tamil.socks
Encoding: 65536 -1 38
GlifName: _notdef
Width: 264
VWidth: 0
Flags: HW
LayerCount: 2
Back
Fore
SplineSet
-105.650390625 -36.2919921875 m 0
 0.150390625 21.2080078125 22 35.2412109375 22 83.30859375 c 2
 22 133.908203125 l 1
 237.049804688 133.908203125 l 1
 237.049804688 108.608398438 l 2
 237.049804688 29.5947265625 235.64453125 -23.3583984375 226.700195312 -43.19140625 c 0
 200.25 -101.841796875 142.75 -134.041015625 -28.42578125 -215.016601562 c 0
 -68.185546875 -233.825195312 -100.2109375 -242.615234375 -126.349609375 -242.615234375 c 0
 -166.435546875 -242.615234375 -192.676757812 -221.1875 -211.735351562 -182.162109375 c 0
 -219.006835938 -167.272460938 -222.422851562 -154.122070312 -222.422851562 -142.091796875 c 0
 -222.422851562 -102.036132812 -180.28515625 -76.853515625 -105.650390625 -36.2919921875 c 0
EndSplineSet
PickledDataWithLists: "(dp1
S'com.fontlab.hintData'
p2
(dp3
S'vhints'
p4
(lp5
(dp6
S'position'
p7
I48
sS'width'
p8
I189
sa(dp9
g7
I276
sg8
I123
sa(dp10
g7
I457
sg8
I122
sasS'hhints'
p11
(lp12
(dp13
g7
I-5
sg8
I63
sa(dp14
g7
I-5
sg8
I44
sa(dp15
g7
I200
sg8
I64
sa(dp16
g7
I312
sg8
I103
sass."
EndChar

StartChar: uni0082
Encoding: 65537 130 39
GlifName: uni0082
Width: 560
VWidth: 0
GlyphClass: 2
Flags: HW
HStem: 502.966 167.697<372.905 523.219>
VStem: 259.408 217.988<28.1067 137.225 449.651 497.104>
LayerCount: 2
Back
Fore
SplineSet
477.200195312 449.651367188 m 2
 477.200195312 492.891601562 483.620117188 502.965820312 505.700195312 502.965820312 c 0
 538.91015625 502.965820312 537.900390625 447.811523438 567.483398438 447.811523438 c 0
 599.615234375 447.811523438 615.256835938 466.130859375 615.256835938 485.450195312 c 0
 615.256835938 554.53125 562.740234375 670.663085938 439.75 670.663085938 c 0
 306.060546875 670.663085938 262.228515625 607.715820312 261.24609375 457.01171875 c 2
 259.408203125 129.577148438 l 2
 259.408203125 19.12109375 295.689453125 -13.0791015625 367.439453125 -13.0791015625 c 0
 439.188476562 -13.0791015625 477.396484375 19.12109375 477.396484375 137.224609375 c 2
 477.200195312 449.651367188 l 2
EndSplineSet
PickledDataWithLists: "(dp1
S'com.fontlab.hintData'
p2
(dp3
S'vhints'
p4
(lp5
(dp6
S'position'
p7
I235
sS'width'
p8
I190
sasS'hhints'
p9
(lp10
(dp11
g7
I449
sg8
I146
sass."
EndChar

StartChar: uni0083
Encoding: 65538 131 40
GlifName: uni0083
Width: 698
VWidth: 0
GlyphClass: 2
Flags: HW
VStem: 242.449 86.4805<271.694 341.691>
LayerCount: 2
Back
Fore
SplineSet
581.201171875 380.713867188 m 0
 581.201171875 306.544921875 545.662109375 247.709960938 461.20703125 247.709960938 c 0
 376.751953125 247.709960938 391.176757812 343.389648438 361.38671875 343.389648438 c 0
 331.59765625 343.389648438 328.081054688 321.04296875 328.9296875 271.694335938 c 1
 242.44921875 271.169921875 l 1
 242.44921875 330.590820312 267.170898438 396.068359375 312.899414062 435.967773438 c 0
 358.626953125 475.868164062 393.7734375 493.284179688 469.51953125 493.284179688 c 0
 545.265625 493.284179688 581.201171875 444.709960938 581.201171875 380.713867188 c 0
EndSplineSet
PickledDataWithLists: "(dp1
S'com.fontlab.hintData'
p2
(dp3
S'vhints'
p4
(lp5
(dp6
S'position'
p7
I217
sS'width'
p8
I75
sass."
EndChar

StartChar: uni0084
Encoding: 65539 132 41
GlifName: uni0084
Width: 778
VWidth: 0
GlyphClass: 2
Flags: HW
HStem: 0.405273 153.82<207.546 387.518>
VStem: 120.986 219.369<160.113 433.724> 434.212 87.668<166.033 228.6>
LayerCount: 2
Back
Fore
SplineSet
340.35546875 210.565429688 m 0
 340.35546875 165.7578125 359.266601562 154.225585938 384.10546875 154.225585938 c 0
 414.295898438 154.225585938 434.211914062 185.112304688 434.211914062 228.599609375 c 1
 521.879882812 229.455078125 l 1
 521.879882812 171.174804688 506.861328125 98.2958984375 452.450195312 56.484375 c 0
 393.001953125 15.0107421875 330.747070312 0.4052734375 254.546875 0.4052734375 c 0
 160.545898438 0.4052734375 120.986328125 68.25390625 120.986328125 239.374023438 c 0
 120.986328125 439.934570312 140.13671875 477.654296875 234.146484375 477.654296875 c 0
 311.116210938 477.654296875 339.1484375 447.064453125 339.1484375 393.921875 c 0
 339.1484375 327.999023438 340.35546875 256.3046875 340.35546875 210.565429688 c 0
EndSplineSet
PickledDataWithLists: "(dp1
S'com.fontlab.hintData'
p2
(dp3
S'vhints'
p4
(lp5
(dp6
S'position'
p7
I99
sS'width'
p8
I191
sa(dp9
g7
I372
sg8
I76
sasS'hhints'
p10
(lp11
(dp12
g7
I0
sg8
I134
sass."
EndChar

StartChar: uni0085
Encoding: 65540 133 42
GlifName: uni0085
Width: 456
VWidth: 0
GlyphClass: 2
Flags: HW
HStem: -13.6318 684.812<173.369 314.515>
VStem: 135.96 217.988<30.0644 633.684>
LayerCount: 2
Back
Fore
SplineSet
353.948242188 136.672851562 m 2
 353.948242188 25.2353515625 315.739257812 -13.6318359375 243.989257812 -13.6318359375 c 0
 172.240234375 -13.6318359375 135.959960938 18.568359375 135.959960938 129.026367188 c 2
 133.733398438 551.232421875 l 2
 133.733398438 638.040039062 181.923828125 671.180664062 243.989257812 671.180664062 c 0
 306.833007812 671.180664062 353.627929688 657.36328125 353.627929688 560.21875 c 2
 353.948242188 136.672851562 l 2
EndSplineSet
PickledDataWithLists: "(dp1
S'com.fontlab.hintData'
p2
(dp3
S'vhints'
p4
(lp5
(dp6
S'position'
p7
I102
sS'width'
p8
I190
sasS'hhints'
p9
(lp10
(dp11
g7
I0
sg8
I595
sass."
EndChar

StartChar: uni0087
Encoding: 65541 135 43
GlifName: uni0087
Width: 778
VWidth: 0
GlyphClass: 2
Flags: HW
HStem: -0.669922 21G<479.925 565.414> 323.908 153.821<365.039 545.01>
VStem: 230.676 87.6689<249.535 312.101> 413.407 218.163<43.26 316.962>
LayerCount: 2
Back
Fore
SplineSet
412.202148438 267.567382812 m 2
 412.202148438 312.375976562 393.290039062 323.908203125 368.451171875 323.908203125 c 0
 338.26171875 323.908203125 318.344726562 293.021484375 318.344726562 249.53515625 c 1
 230.67578125 248.678710938 l 1
 230.67578125 306.959960938 245.696289062 379.83984375 300.10546875 421.649414062 c 0
 359.5546875 463.124023438 421.809570312 477.729492188 498.009765625 477.729492188 c 0
 592.010742188 477.729492188 631.5703125 408.73046875 631.5703125 237.610351562 c 0
 631.5703125 37.0498046875 612.418945312 -0.669921875 518.409179688 -0.669921875 c 0
 441.440429688 -0.669921875 413.407226562 28.76953125 413.407226562 81.9130859375 c 2
 412.202148438 267.567382812 l 2
EndSplineSet
PickledDataWithLists: "(dp1
S'com.fontlab.hintData'
p2
(dp3
S'vhints'
p4
(lp5
(dp6
S'position'
p7
I209
sS'width'
p8
I76
sa(dp9
g7
I368
sg8
I190
sasS'hhints'
p10
(lp11
(dp12
g7
I0
sg8
I21
sa(dp13
g7
I282
sg8
I134
sass."
EndChar

StartChar: uni0089
Encoding: 65542 137 44
GlifName: uni0089
Width: 804
VWidth: 0
GlyphClass: 2
Flags: HW
HStem: -6.25391 123.49<249.041 409.871> 360.284 123.802<246.948 418.949>
VStem: 116.758 216.777<141.793 333.31> 456.814 93.8389<146.98 326.308>
LayerCount: 2
Back
Fore
SplineSet
299.493164062 -6.25390625 m 0
 198.588867188 -6.25390625 116.7578125 80.666015625 116.7578125 235.225585938 c 0
 116.7578125 390.409179688 194.741210938 484.0859375 299.154296875 484.0859375 c 0
 444.471679688 484.0859375 550.653320312 337.028320312 550.653320312 243.861328125 c 0
 550.653320312 83.7734375 439.822265625 -6.25390625 299.493164062 -6.25390625 c 0
456.814453125 235.225585938 m 0
 456.814453125 295.63671875 436.728515625 360.284179688 391.31640625 360.284179688 c 0
 354.744140625 360.284179688 333.53515625 295.420898438 333.53515625 235.225585938 c 0
 333.53515625 179.512695312 351.8671875 117.236328125 390.573242188 117.236328125 c 0
 437.729492188 117.236328125 456.814453125 178.123046875 456.814453125 235.225585938 c 0
EndSplineSet
PickledDataWithLists: "(dp1
S'com.fontlab.hintData'
p2
(dp3
S'vhints'
p4
(lp5
(dp6
S'position'
p7
I97
sS'width'
p8
I189
sa(dp9
g7
I393
sg8
I82
sasS'hhints'
p10
(lp11
(dp12
g7
I-5
sg8
I107
sa(dp13
g7
I313
sg8
I108
sass."
EndChar

StartChar: uni008A
Encoding: 65543 138 45
GlifName: uni008A_
Width: 804
VWidth: 0
GlyphClass: 2
Flags: HW
HStem: -6.25391 123.49<257.541 418.371> 360.284 123.802<248.463 420.464>
VStem: 116.758 93.8398<146.98 326.308> 333.877 216.776<141.793 333.31>
LayerCount: 2
Back
Fore
SplineSet
367.918945312 -6.25390625 m 0
 227.58984375 -6.25390625 116.7578125 83.7734375 116.7578125 243.861328125 c 0
 116.7578125 337.028320312 222.940429688 484.0859375 368.2578125 484.0859375 c 0
 472.670898438 484.0859375 550.653320312 390.409179688 550.653320312 235.225585938 c 0
 550.653320312 80.666015625 468.823242188 -6.25390625 367.918945312 -6.25390625 c 0
210.59765625 235.225585938 m 0
 210.59765625 178.123046875 229.682617188 117.236328125 276.838867188 117.236328125 c 0
 315.544921875 117.236328125 333.876953125 179.512695312 333.876953125 235.225585938 c 0
 333.876953125 295.420898438 312.66796875 360.284179688 276.095703125 360.284179688 c 0
 230.68359375 360.284179688 210.59765625 295.63671875 210.59765625 235.225585938 c 0
EndSplineSet
PickledDataWithLists: "(dp1
S'com.fontlab.hintData'
p2
(dp3
S'vhints'
p4
(lp5
(dp6
S'position'
p7
I97
sS'width'
p8
I82
sa(dp9
g7
I286
sg8
I189
sasS'hhints'
p10
(lp11
(dp12
g7
I-5
sg8
I107
sa(dp13
g7
I313
sg8
I108
sass."
EndChar

StartChar: uni008B
Encoding: 65544 139 46
GlifName: uni008B_
Width: 628
VWidth: 0
GlyphClass: 2
Flags: HW
HStem: 371.08 121.9<91.2437 164.072 381.473 473.577>
VStem: 76.7422 410.18<384.599 477.431>
LayerCount: 2
Back
Fore
SplineSet
390.8359375 492.98046875 m 2
 164.072265625 492.98046875 l 2
 94.5751953125 492.98046875 76.7421875 465.379882812 76.7421875 429.842773438 c 0
 76.7421875 392.40234375 97.3974609375 371.080078125 157.825195312 371.080078125 c 2
 381.47265625 371.080078125 l 2
 453.358398438 371.080078125 486.921875 382.170898438 486.921875 425.962890625 c 0
 486.921875 476.879882812 463.44140625 492.588867188 390.8359375 492.98046875 c 2
EndSplineSet
PickledDataWithLists: "(dp1
S'com.fontlab.hintData'
p2
(dp3
S'hhints'
p4
(lp5
(dp6
S'position'
p7
I348
sS'width'
p8
I106
sass."
EndChar

StartChar: H
Encoding: 214 72 47
GlifName: H_
Width: 758
VWidth: 0
GlyphClass: 2
Flags: HW
HStem: 0 21G<134.737 212.141 548.737 624.265> 263.351 138<200.259 558.051>
VStem: 59.5089 229.489<43.6973 263.351 401.351 647.316> 179.604 109.395<290.967 367.236> 473.509 229.489<46.2946 263.351 401.351 647.316> 473.509 116.275<280.271 379.259>
LayerCount: 2
Back
Fore
SplineSet
703 150.3046875 m 2
 703.083984375 38.8671875 662.392578125 0 586.140625 0 c 0
 511.336914062 0 474.09375 32.203125 473.510742188 142.657226562 c 2
 472.873971237 263.350585938 l 1
 288.914507461 263.350585938 l 1
 289 150.3046875 l 2
 289.083984375 38.8671875 252.14453125 0 172.140625 0 c 0
 97.3369140625 0 60.09375 32.203125 59.5107421875 142.657226562 c 2
 57.283203125 564.864257812 l 2
 56.8251953125 651.669921875 107.486328125 684.813476562 172.140625 684.813476562 c 0
 242.236328125 684.813476562 288.606445312 670.995117188 288.6796875 573.850585938 c 2
 288.810143034 401.350585938 l 1
 472.145891485 401.350585938 l 1
 471.283203125 564.864257812 l 2
 470.825195312 651.669921875 521.486328125 684.813476562 586.140625 684.813476562 c 0
 652.939453125 684.813476562 702.606445312 670.995117188 702.6796875 573.850585938 c 2
 703 150.3046875 l 2
EndSplineSet
PickledDataWithLists: "(dp1
S'com.fontlab.hintData'
p2
(dp3
S'vhints'
p4
(lp5
(dp6
S'position'
p7
I69
sS'width'
p8
I210
sa(dp9
g7
I182
sg8
I357
sa(dp10
g7
I429
sg8
I210
sasS'hhints'
p11
(lp12
(dp13
g7
I0
sg8
I595
sa(dp14
g7
I229
sg8
I120
sass."
EndChar

StartChar: grave
Encoding: 435 96 48
GlifName: grave
Width: 371
VWidth: 0
GlyphClass: 2
Flags: HW
HStem: 522.804 244.069
VStem: 36 331.009<607.16 641.065>
LayerCount: 2
Back
Fore
SplineSet
160.592773438 752.799804688 m 0
 153.153320312 757.135742188 131.233398438 766.873046875 107.692382812 766.873046875 c 0
 50.61328125 766.873046875 20 704.555664062 20 659.649414062 c 0
 20 611.131835938 59.7685546875 588.888671875 89.5732421875 577.56640625 c 0
 139.892578125 558.44921875 163.546875 552.481445312 224.9921875 532 c 0
 238.38671875 527.534179688 257.5 522.803710938 275.592773438 522.803710938 c 0
 321.984375 522.803710938 351.008789062 552.8515625 351.008789062 589.5 c 0
 351.008789062 633.637695312 318.500976562 652.127929688 288.2421875 672.299804688 c 0
 236.4921875 706.799804688 215.600585938 720.741210938 160.592773438 752.799804688 c 0
EndSplineSet
EndChar

StartChar: A
Encoding: 207 65 49
GlifName: A_
Width: 672
VWidth: 0
GlyphClass: 2
Flags: HW
HStem: 152.28 138<156.223 227.181 421.582 497.389> 521.807 163.463<299.295 374.376>
VStem: 53.0003 230.187<297.339 468.425> 134.102 149.085<179.897 256.167> 390.509 230.187<58.6073 468.861> 390.509 142.273<169.2 268.189>
AnchorPoint: "top" 340.631 758.27 basechar 0
LayerCount: 2
Back
Fore
SplineSet
337.436523438 521.806640625 m 0
 370.395507812 521.806640625 389.122070312 496.541015625 389.122070312 410.326171875 c 0
 389.122070312 375.024273732 389.326812936 333.153597816 389.578954903 290.280273438 c 1
 284.119054717 290.280273438 l 1
 284.369958006 332.628354222 284.573242188 373.708277441 284.573242188 407.854492188 c 0
 284.573242188 496.41015625 302.479492188 521.806640625 337.436523438 521.806640625 c 0
390.374899636 152.280273438 m 1
 390.457603255 133.120970724 390.508789062 115.245167428 390.508789062 99.3486328125 c 0
 390.508789062 33.1953125 419.909179688 0.48046875 509.559570312 0.48046875 c 0
 599.57421875 0.48046875 620.6953125 52.572265625 620.6953125 309.219726562 c 0
 620.6953125 592.661132812 458.127929688 685.26953125 339.630859375 685.26953125 c 0
 220.103515625 685.26953125 53 592.661132812 53 309.219726562 c 0
 53 52.572265625 74.91015625 0.48046875 164.135742188 0.48046875 c 0
 253.7890625 0.48046875 283.186523438 33.1953125 283.186523438 99.3486328125 c 0
 283.186523438 115.253302007 283.237639704 133.135306783 283.320244308 152.280273438 c 1
 390.374899636 152.280273438 l 1
EndSplineSet
EndChar

StartChar: L
Encoding: 218 76 50
GlifName: L_
Width: 592
VWidth: 0
GlyphClass: 2
Flags: HW
HStem: -13.6314 684.25
VStem: 51.9431 241.5
LayerCount: 2
Back
SplineSet
281.859375 119.422851562 m 262
 281.943359375 7.9853515625 250.754882812 -13.6318359375 170.75 -13.6318359375 c 260
 92.1279296875 -13.6318359375 64.4541015625 18.572265625 63.87109375 129.025390625 c 262
 61.64453125 551.232421875 l 262
 61.1904296875 637.217773438 101.78515625 671.181640625 170.75 671.181640625 c 260
 240.845703125 671.181640625 281.465820312 657.364257812 281.5390625 560.21875 c 262
 281.859375 119.422851562 l 262
EndSplineSet
Fore
SplineSet
160.013762799 -0.0467952409859 m 0
 88.7983965598 2.81324878099 58.2930720641 36.9328254413 57.736328125 142.41015625 c 2
 55.5087890625 564.6171875 l 2
 55.0546875 650.651367188 101.400390625 684.56640625 170.365234375 684.56640625 c 0
 240.459960938 684.56640625 286.833007812 670.749023438 286.903320312 573.603515625 c 2
 287.19461314 172.742844737 l 1
 437.713867188 172.571289062 l 2
 510.318359375 172.48828125 543 160.510742188 543 86.0029296875 c 0
 543 8.2578125 499.274414062 -0.2470703125 428.349609375 -0.2470703125 c 2
 170.365234375 -0.2470703125 l 1
 160.014648438 -0.2470703125 l 2
 160.014648438 -0.180311955329 160.013762799 -0.113553598157 160.013762799 -0.0467952409859 c 0
EndSplineSet
PickledDataWithLists: "(dp1
S'com.fontlab.hintData'
p2
(dp3
S'vhints'
p4
(lp5
(dp6
S'position'
p7
I93
sS'width'
p8
I210
sasS'hhints'
p9
(lp10
(dp11
g7
I0
sg8
I595
sass."
EndChar

StartChar: O
Encoding: 221 79 51
GlifName: O_
Width: 785
VWidth: 0
GlyphClass: 2
Flags: HW
HStem: -6.04102 146.191<353.797 431.39> 543.619 146.947<354.562 425.859>
VStem: 41.5105 261.945<207.134 471.273> 471.197 271.804<206.876 471.533>
LayerCount: 2
Back
Fore
SplineSet
393.979492188 -6.041015625 m 0
 199.098632812 -6.041015625 41.509765625 118.41796875 41.509765625 337.682617188 c 0
 41.509765625 558.450195312 192.193359375 690.56640625 393.979492188 690.56640625 c 0
 595.630859375 690.56640625 743 558.450195312 743 337.682617188 c 0
 743 118.41796875 588.731445312 -6.041015625 393.979492188 -6.041015625 c 0
471.196289062 337.682617188 m 0
 471.196289062 435.6796875 445.90625 543.619140625 393.979492188 543.619140625 c 0
 333.8125 543.619140625 303.455078125 434.334960938 303.455078125 337.682617188 c 0
 303.455078125 241.946289062 332.407226562 140.150390625 393.979492188 140.150390625 c 0
 448.8515625 140.150390625 471.196289062 240.612304688 471.196289062 337.682617188 c 0
EndSplineSet
PickledDataWithLists: "(dp1
S'com.fontlab.hintData'
p2
(dp3
S'vhints'
p4
(lp5
(dp6
S'position'
p7
I22
sS'width'
p8
I226
sa(dp9
g7
I459
sg8
I226
sasS'hhints'
p10
(lp11
(dp12
g7
I-5
sg8
I111
sa(dp13
g7
I487
sg8
I114
sass."
EndChar

StartChar: tilde.case
Encoding: 65545 -1 52
GlifName: _notdef000000000000001
Width: 478
VWidth: 0
Flags: HW
LayerCount: 2
Back
Fore
SplineSet
174.538085938 801.442382812 m 1
 174.538085938 765.217773438 140.267578125 736.384765625 96.8388671875 736.384765625 c 0
 32.5302734375 736.384765625 20.865234375 773.09375 20.865234375 824.498046875 c 0
 20.865234375 881.431640625 55.16796875 943.057617188 123.05859375 943.057617188 c 0
 216.686523438 943.057617188 303 878 303 878 c 1
 303 912.27734375 337.26953125 943.057617188 380.69921875 943.057617188 c 0
 444.303710938 943.057617188 456.666992188 906.930664062 456.666992188 856.41796875 c 0
 456.666992188 799.078125 422.956054688 736.384765625 354.478515625 736.384765625 c 0
 260.850585938 736.384765625 218.291992188 801.442382812 174.538085938 801.442382812 c 1
EndSplineSet
PickledDataWithLists: "(dp1
S'com.fontlab.hintData'
p2
(dp3
S'vhints'
p4
(lp5
(dp6
S'position'
p7
I68
sS'width'
p8
I189
sa(dp9
g7
I296
sg8
I123
sa(dp10
g7
I477
sg8
I122
sa(dp11
g7
I632
sg8
I189
sasS'hhints'
p12
(lp13
(dp14
g7
I-5
sg8
I63
sa(dp15
g7
I-5
sg8
I44
sa(dp16
g7
I-1
sg8
I415
sa(dp17
g7
I200
sg8
I64
sa(dp18
g7
I312
sg8
I103
sass."
EndChar

StartChar: uni0B9E
Encoding: 23 2974 53
GlifName: uni0B_9E_
Width: 1566
VWidth: 0
GlyphClass: 2
Flags: HW
HStem: -323.873 184.164<640.502 1012.64> 0.0771484 71.5391<582.281 854.591> 174.357 153.82<1261.27 1419.02> 235.777 73.3584<771.272 817.294> 355.666 121.736<634.872 1307.09 1307.36 1397.21>
VStem: 60 219.862<114.272 318.744> 357.456 218.5<153.399 304.68> 619.208 140.905<112.818 229.267> 827.347 140.843<100.58 231.721> 1007.21 215.05<27.2639 431.24> 1133.46 87.668<110.333 165.111> 1308.54 229.305<37.7914 169.034>
LayerCount: 2
Back
Fore
SplineSet
276.826171875 322.63671875 m 0
 256.295898438 281.575195312 246.862304688 239.836914062 246.862304688 199 c 0
 246.862304688 13.236328125 470.204101562 -153.88671875 839.587890625 -153.88671875 c 0
 1021.32324219 -153.88671875 1308.5390625 -72.400390625 1308.5390625 96.6494140625 c 0
 1308.5390625 133.44921875 1300.73730469 160.1796875 1270.07910156 160.1796875 c 0
 1243.12850783 160.1796875 1224.1544304 143.219358683 1221.45364833 105.712261698 c 0
 1221.14510161 25.9325088369 1191.12417593 0.274414062895 1108.00390625 0.2744140625 c 0
 1025.95605469 0.2744140625 1006.40625 38.4638671875 1006.40625 118.034179688 c 2
 1006.40625 378 l 1
 749.981445312 378 l 2
 625.456054688 378 553.331054688 337.008789062 553.331054688 227.866210938 c 0
 553.331054688 187.865479816 569.418525445 153.29972998 598.56882276 127.004655668 c 1
 597.260947658 135.315538016 596.583007813 144.005404299 596.583007812 153.064453125 c 0
 596.583007812 251.010742188 671.328125 310.135742188 771.66796875 310.135742188 c 0
 872.032226562 310.135742188 945.564453125 251.010742188 945.564453125 153.064453125 c 0
 945.564453125 127.493101811 940.245986287 104.863348437 930.644551313 85.3956377825 c 0
 917.642747737 57.2381973695 892.296376757 31.8290731331 854.630859375 15.2060546875 c 0
 826.3203125 2.7119140625 791.049804688 -4.8173828125 748.831054688 -4.8173828125 c 0
 480.880859375 -4.8173828125 334.831054688 103.68359375 334.831054688 255 c 0
 334.831054688 421.352539062 450.456054688 502 771.831054688 502 c 2
 1288.58105469 502 l 2
 1346.08105469 502 1369.08105469 484.868164062 1369.08105469 438.166015625 c 0
 1369.08105469 398.415039062 1344.95703125 378 1281.45605469 378 c 2
 1221.45605469 378 l 1
 1221.45605469 271.055271314 l 1
 1271.33682675 302.530012793 1312.56052594 314 1380.08789062 314 c 0
 1457.94238281 314 1537.84375 266.611328125 1537.84375 120.799804688 c 0
 1537.84375 98.6064453125 1536.09570312 74.1328125 1531.88769531 47.19921875 c 0
 1491.63769531 -210.400390625 1175.38769531 -338.05078125 805.087890625 -338.05078125 c 0
 307.595703125 -338.05078125 27 -72.009765625 27 205.899414062 c 0
 27 275.499023438 42.576171875 345.844726562 76.125 412.938476562 c 0
 97.9990234375 456.68359375 135.08984375 482.637695312 174.087890625 482.637695312 c 0
 192.219726562 482.637695312 210.766601562 479.725585938 228.385742188 470.916015625 c 0
 265.509765625 452.354492188 296.0078125 431.532226562 296.0078125 394.5 c 0
 296.0078125 375.461914062 291.577148438 352.139648438 276.826171875 322.63671875 c 0
804.721679688 154.180664062 m 0
 804.721679688 193.763671875 794.396484375 236.77734375 772.2890625 236.77734375 c 0
 749.452148438 236.77734375 737.48828125 193.260742188 737.48828125 154.223632812 c 0
 737.48828125 115.202148438 748.607421875 73.080078125 771.97265625 73.080078125 c 0
 795.337890625 73.080078125 804.721679688 114.618164062 804.721679688 154.180664062 c 0
EndSplineSet
PickledDataWithLists: "(dp1
S'com.fontlab.hintData'
p2
(dp3
S'vhints'
p4
(lp5
(dp6
S'position'
p7
I-190
sS'width'
p8
I191
sa(dp9
g7
I68
sg8
I189
sa(dp10
g7
I296
sg8
I123
sa(dp11
g7
I477
sg8
I122
sa(dp12
g7
I632
sg8
I189
sa(dp13
g7
I744
sg8
I76
sa(dp14
g7
I896
sg8
I199
sasS'hhints'
p15
(lp16
(dp17
g7
I-299
sg8
I160
sa(dp18
g7
I-5
sg8
I63
sa(dp19
g7
I-5
sg8
I44
sa(dp20
g7
I-1
sg8
I415
sa(dp21
g7
I134
sg8
I134
sa(dp22
g7
I200
sg8
I64
sa(dp23
g7
I312
sg8
I103
sass."
EndChar

StartChar: comma
Encoding: 170 44 54
GlifName: comma
Width: 311
VWidth: 0
GlyphClass: 2
Flags: HW
HStem: -6.9834 151.983<67.6813 148.444>
VStem: 39.8099 230.189<19.1995 112.074>
LayerCount: 2
Back
SplineSet
155.630859375 37.1455078125 m 261
 129.20703125 -8.41796875 108.53515625 -23.7255859375 44.353515625 -55.119140625 c 260
 32.0859375 -61.1201171875 29.767578125 -73.8369140625 29.767578125 -83.525390625 c 260
 29.767578125 -97.1572265625 38.201171875 -109.854492188 47.77734375 -115.838867188 c 260
 52.509765625 -118.796875 59.56640625 -120.416015625 68.28515625 -120.416015625 c 260
 128.822265625 -120.416015625 269.53515625 -52.982421875 269.53515625 80.923828125 c 260
 269.53515625 177.524414062 166.03515625 176.557617188 156.8359375 176.557617188 c 261
 155.630859375 37.1455078125 l 261
39.345703125 100.657226562 m 260
 39.345703125 43.4697265625 92.1767578125 24.57421875 147.635742188 24.57421875 c 260
 213.458007812 24.57421875 256.885742188 40.521484375 256.885742188 100.657226562 c 260
 256.885742188 152.274414062 219.78515625 176.557617188 147.635742188 176.557617188 c 260
 76.466796875 176.557617188 39.345703125 143.798828125 39.345703125 100.657226562 c 260
EndSplineSet
Fore
SplineSet
39.810546875 69.099609375 m 0
 39.810546875 11.912109375 92.6416015625 -6.9833984375 148.100585938 -6.9833984375 c 0
 148.21484375 -6.9833984375 148.329101562 -6.9833984375 148.444335938 -6.9833984375 c 1
 125.201171875 -43.130859375 102.70703125 -58.359375 44.818359375 -86.6767578125 c 0
 32.55078125 -92.677734375 30.232421875 -105.39453125 30.232421875 -115.083007812 c 0
 30.232421875 -136.5 45.4130859375 -151.973632812 68.75 -151.973632812 c 0
 129.287109375 -151.973632812 270 -84.5400390625 270 49.3662109375 c 0
 270 123.32421875 211.443359375 145 148.100585938 145 c 0
 76.931640625 145 39.810546875 112.241210938 39.810546875 69.099609375 c 0
EndSplineSet
PickledDataWithLists: "(dp1
S'com.fontlab.hintData'
p2
(dp3
S'vhints'
p4
(lp5
(dp6
S'position'
p7
I126
sS'width'
p8
I88
sasS'hhints'
p9
(lp10
(dp11
g7
I-6
sg8
I132
sass."
EndChar

StartChar: plus
Encoding: 518 43 55
GlifName: plus
Width: 552
VWidth: 0
GlyphClass: 2
Flags: HW
HStem: 161.937 144.9<80.877 468.564>
VStem: 199.911 144.9<42.6424 428.29>
LayerCount: 2
Back
Fore
SplineSet
389.415039062 306.836914062 m 2
 462.020507812 306.836914062 485.500976562 285.352539062 485.500976562 228.319335938 c 0
 485.500976562 178.102539062 451.9375 161.936523438 380.05078125 161.936523438 c 2
 344.811523438 161.936523438 l 1
 344.811523438 104.629882812 l 2
 344.811523438 44.2021484375 317.118164062 23.546875 274.548828125 23.546875 c 0
 234.479492188 23.546875 199.911132812 41.3798828125 199.911132812 110.875976562 c 2
 199.911132812 161.936523438 l 1
 144.904296875 161.936523438 l 2
 84.4765625 161.936523438 63.8212890625 189.630859375 63.8212890625 232.19921875 c 0
 63.8212890625 272.268554688 78.2041015625 306.836914062 147.701171875 306.836914062 c 2
 199.911132812 306.836914062 l 1
 199.911132812 349.140625 l 2
 199.911132812 421.74609375 221.395507812 445.2265625 278.4296875 445.2265625 c 0
 328.64453125 445.2265625 344.811523438 411.663085938 344.811523438 339.776367188 c 2
 344.811523438 306.836914062 l 1
 389.415039062 306.836914062 l 2
EndSplineSet
EndChar

StartChar: hyphen
Encoding: 197 45 56
GlifName: hyphen
Width: 446
VWidth: 0
GlyphClass: 2
Flags: HW
HStem: 201.58 144.9<80.5179 367.058>
VStem: 61.4171 322.583<219.01 327.416>
LayerCount: 2
Back
Fore
SplineSet
287.9140625 346.48046875 m 2
 360.50390625 346.48046875 384 324.99609375 384 267.962890625 c 0
 384 217.74609375 350.419921875 201.580078125 278.55078125 201.580078125 c 2
 142.5 201.580078125 l 2
 82.0859375 201.580078125 61.4169921875 229.274414062 61.4169921875 271.842773438 c 0
 61.4169921875 311.912109375 79.2646484375 346.48046875 148.74609375 346.48046875 c 2
 287.9140625 346.48046875 l 2
EndSplineSet
EndChar

StartChar: uni0BB0
Encoding: 32 2992 57
GlifName: uni0B_B_0
Width: 796
VWidth: 0
Flags: HW
HStem: -240.263 21G<271.765 304.878> 0.0175781 476.986<64.9396 208.588 477.79 621.438> 350.855 125.351<95.2516 688.479 688.774 756.263>
VStem: 27.0006 215.051<28.0065 437.382> 439.851 215.051<28.0065 437.382>
LayerCount: 2
Back
Fore
SplineSet
312.5078125 -33.9384765625 m 0
 418.307617188 23.5615234375 440.158203125 37.59375 440.158203125 85.6611328125 c 2
 440.158203125 101.537058458 l 2
 439.948083724 106.744544026 439.850585938 112.157272073 439.850585938 117.776367188 c 2
 439.850585938 364.350585938 l 2
 439.850585938 368.417909513 439.992001876 372.403457738 440.271286312 376.302356043 c 1
 378.123990947 376.194338627 309.755881029 376.08802891 241.884255569 376.006214006 c 1
 241.994795777 373.172583913 242.05078125 370.263256198 242.05078125 367.276367188 c 2
 242.05078125 106.704101562 l 2
 242.05078125 25.9423828125 212.150390625 0.017578125 128.59765625 0.017578125 c 0
 46.55078125 0.017578125 27 38.2060546875 27 117.776367188 c 2
 27 364.350585938 l 2
 27 371.173108867 27.3978972334 377.765543267 28.1769491872 384.104882901 c 0
 30.8675184764 455.561941061 68.7937231605 501.206054703 131.5234375 501.206054688 c 2
 694.5234375 502.1484375 l 2
 751.129882812 502.1484375 767.772460938 485.821289062 767.772460938 437.748046875 c 0
 767.772460938 387.6953125 738.223632812 376.797851562 688.7734375 376.797851562 c 2
 688.7734375 376.797851562 676.43427511 376.769171802 654.705698524 376.721818721 c 1
 654.835536205 373.662951765 654.901367188 370.515260022 654.901367188 367.276367188 c 2
 654.901367188 136.260742188 l 1
 655.208007812 136.260742188 l 1
 655.208007812 110.9609375 l 2
 655.208007812 31.9482421875 653.801757812 -21.005859375 644.858398438 -40.8388671875 c 0
 618.408203125 -99.4892578125 560.908203125 -131.688476562 389.732421875 -212.6640625 c 0
 349.97265625 -231.47265625 317.947265625 -240.262695312 291.807617188 -240.262695312 c 0
 251.721679688 -240.262695312 225.48046875 -218.834960938 206.422851562 -179.809570312 c 0
 199.151367188 -164.919921875 195.734375 -151.768554688 195.734375 -139.739257812 c 0
 195.734375 -99.6826171875 237.873046875 -74.5009765625 312.5078125 -33.9384765625 c 0
EndSplineSet
EndChar

StartChar: uni0B89
Encoding: 10 2953 58
GlifName: uni0B_89
Width: 1110
VWidth: 0
Flags: HW
HStem: -0.548828 126.85<49.3347 319.932 628.132 1071.19> 115.602 10.6992<319.932 628.132> 172.915 61.7422<160.553 202.366> 375.027 108.638<162.04 335.897>
VStem: 27 124.349<238.015 372.095> 210.682 124.295<237.564 373.001> 407.332 229.747<185.902 317.33>
LayerCount: 2
Back
SplineSet
441.176757812 125.951171875 m 5
 441.176757812 144.936523438 438.788085938 176.891601562 435.426757812 196.1015625 c 260
 419.327148438 288.1015625 347.467773438 382.401367188 239.926757812 382.401367188 c 260
 220.967773438 382.401367188 157.533203125 375.500976562 157.533203125 299.6015625 c 260
 10.7939453125 299.6015625 l 260
 10.7939453125 395.922851562 92.7265625 446.80078125 220.376953125 446.80078125 c 260
 441.176757812 446.80078125 638.9765625 355.951171875 638.9765625 125.951171875 c 260
 441.176757812 125.951171875 l 5
224.75 299.6015625 m 260
 224.75 328.563476562 214.626953125 361.333984375 192.186523438 361.333984375 c 260
 170.149414062 361.333984375 157.49609375 328.165039062 157.49609375 299.6015625 c 260
 157.49609375 271.072265625 168.590820312 242.247070312 191.903320312 242.247070312 c 260
 215.338867188 242.247070312 224.75 270.681640625 224.75 299.6015625 c 260
191.626953125 179.75 m 260
 91.9033203125 179.75 11.458984375 222.484375 11.458984375 299.6015625 c 260
 11.458984375 363.139648438 88.375 402.008789062 191.62890625 402.008789062 c 260
 294.999023438 402.008789062 370.732421875 363.139648438 370.732421875 299.6015625 c 260
 370.732421875 222.484375 291.458007812 179.75 191.626953125 179.75 c 260
998.126953125 126.30078125 m 262
 1070.73144531 126.30078125 1089.77636719 114.741210938 1089.77636719 63.8515625 c 260
 1089.77636719 17.03125 1071.18066406 -0.548828125 999.27734375 -0.548828125 c 262
 122.977539062 -0.548828125 l 262
 62.5322265625 -0.2841796875 41.89453125 26.4111328125 41.89453125 63.8515625 c 260
 41.89453125 112.151367188 75.8798828125 126.30078125 132.674804688 126.30078125 c 262
 998.126953125 126.30078125 l 262
EndSplineSet
Fore
SplineSet
1001.88183594 126.30078125 m 2
 1052.48144531 126.30078125 1082.32519531 114.741210938 1082.32519531 63.8515625 c 0
 1082.32519531 17.03125 1062.83203125 -0.548828125 1003.03222656 -0.548828125 c 2
 135.526367188 -0.548828125 l 2
 75.08203125 -0.548828125 54.443359375 26.4111328125 54.443359375 63.8515625 c 0
 54.443359375 112.151367188 88.4296875 126.30078125 145.223632812 126.30078125 c 2
 333.580835568 126.30078125 l 1
 358.159822027 147.855557592 407.33203125 202.421582867 407.33203125 294 c 0
 407.33203125 346.491210938 376.139648438 394.790039062 314.244140625 415.538085938 c 1
 327.53125 395.405273438 334.9765625 370.776367188 334.9765625 342.329101562 c 0
 334.9765625 258.911132812 267.05078125 212 181.509765625 212 c 0
 95.9892578125 212 27 258.911132812 27 342.329101562 c 0
 27 428.579101562 85.33203125 522.75 310.731445312 522.75 c 0
 534.982421875 522.75 637.079101562 408.8359375 637.079101562 227.135742188 c 0
 637.079101562 192.847824046 634.733866292 158.920650342 629.83765286 126.30078125 c 1
 1001.88183594 126.30078125 l 2
210.681640625 343.286132812 m 0
 210.681640625 377.227539062 201.5703125 414.112304688 182.060546875 414.112304688 c 0
 161.90625 414.112304688 151.348632812 376.796875 151.348632812 343.323242188 c 0
 151.348632812 309.862304688 161.161132812 273.7421875 181.78125 273.7421875 c 0
 202.400390625 273.7421875 210.681640625 309.361328125 210.681640625 343.286132812 c 0
EndSplineSet
EndChar

StartChar: uni0B8A
Encoding: 11 2954 59
GlifName: uni0B_8A_
Width: 1744
VWidth: 0
Flags: HW
HStem: -0.548828 126.85<51.158 321.753 629.953 1704.02> 115.602 10.6992<321.753 629.953> 146.46 57.2314<816.185 1060> 172.915 61.7422<162.374 204.188> 289.021 49.4863<988.921 1034.35> 359.084 88.6572<823.362 1168.15 1225.62 1271.01 1347.83 1469.83 1539.12 1686.45> 375.027 108.638<163.861 337.719>
VStem: 28.8213 124.349<238.015 372.095> 212.503 124.295<237.564 373.001> 409.153 229.747<185.902 317.33> 673.791 128.8<244.823 338.428> 871.693 112.725<214.134 287.19> 1038.2 112.674<227.167 288.547> 1198.79 149.04<161.949 412.96> 1199.71 23.6406<360.551 411.453> 1469.83 149.04<161.949 411.724>
LayerCount: 2
Back
Fore
SplineSet
1041.203125 284 m 0
 1041.203125 315.638671875 1032.94335938 350.020507812 1015.2578125 350.020507812 c 0
 996.987304688 350.020507812 987.416992188 315.237304688 987.416992188 284.033203125 c 0
 987.416992188 251.346679688 996.311523438 216.0625 1015.00390625 216.0625 c 0
 1033.6953125 216.0625 1041.203125 250.858398438 1041.203125 284 c 0
1347.83300781 245.001953125 m 2
 1347.83300781 179.634765625 1328.52441406 158.651367188 1274.5703125 158.651367188 c 0
 1213.37402344 158.651367188 1198.79296875 189.526367188 1198.79296875 253.859375 c 2
 1198.79296875 431.618164062 l 2
 1198.79296875 432.707299815 1198.80383942 433.789106148 1198.82548949 434.86343681 c 1
 1146.428148 435.492498718 1029.20008965 436.8515625 994.411132812 436.8515625 c 0
 869.234375 436.8515625 824.590820312 403.918945312 824.590820312 336 c 0
 824.590820312 288.451499988 843.816130323 257.008969689 881.561332872 238.233045325 c 1
 877.101908845 250.810886095 874.692382812 264.774282784 874.692382812 280.049804688 c 0
 874.692382812 354.541015625 934.489257812 399.506835938 1014.76074219 399.506835938 c 0
 1095.05175781 399.506835938 1153.87695312 354.541015625 1153.87695312 280.049804688 c 0
 1153.87695312 255.190630302 1147.59404716 233.806469995 1136.51471316 216.213805991 c 0
 1125.39409373 197.653707995 1107.31016756 180.876160175 1080.93579407 170.798779887 c 0
 1071.34482635 166.824164735 1061.06152554 163.786571449 1050.24488357 161.719851178 c 0
 1027.88340362 156.629631971 1002.21888494 153.744140142 973.255859375 153.744140625 c 0
 779.435546875 153.744140625 673.791015625 236.578125 673.791015625 352.100585938 c 0
 673.791015625 450.020507812 764.315429688 521.819335938 909.403320312 521.819335938 c 2
 1174.15332031 521.819335938 l 1
 1174.15332031 521.819335938 1207.46570115 521.02985215 1219.26843553 499.177039248 c 1
 1230.75785053 513.053022823 1246.66303137 521.141394788 1265.90255295 521.709156469 c 0
 1267.5782303 521.812251972 1269.28176582 521.864257885 1271.01269531 521.864257812 c 2
 1632.80371094 521.864257812 l 2
 1678.08984375 521.864257812 1691.40332031 511.083984375 1691.40332031 479.34375 c 0
 1691.40332031 441.354492188 1667.76367188 433.083984375 1628.20410156 433.083984375 c 2
 1618.86523438 433.083984375 l 1
 1618.86523438 245.001953125 l 2
 1618.86523438 179.634765625 1599.55761719 158.651367188 1545.60351562 158.651367188 c 0
 1484.40722656 158.651367188 1469.82519531 189.526367188 1469.82519531 253.859375 c 2
 1469.82519531 431.618164062 l 2
 1469.82519531 432.108259387 1469.8317905 432.5968706 1469.8317905 433.083984375 c 2
 1347.83300781 433.083984375 l 1
 1347.83300781 245.001953125 l 2
1613.55371094 126.30078125 m 2
 1694.35644531 126.30078125 1715.55273438 114.741210938 1715.55273438 63.8515625 c 0
 1715.55273438 17.03125 1696.95703125 -0.548828125 1625.05371094 -0.548828125 c 2
 117.34765625 -0.548828125 l 2
 56.9140625 -0.548828125 36.2646484375 26.4111328125 36.2646484375 63.8515625 c 0
 36.2646484375 112.151367188 70.2578125 126.30078125 127.044921875 126.30078125 c 2
 333.580835568 126.30078125 l 1
 358.159822027 147.855557592 407.33203125 202.421582867 407.33203125 294 c 0
 407.33203125 346.491210938 376.139648438 394.790039062 314.244140625 415.538085938 c 1
 327.53125 395.405273438 334.9765625 370.776367188 334.9765625 342.329101562 c 0
 334.9765625 258.911132812 267.05078125 212 181.509765625 212 c 0
 95.9892578125 212 27 258.911132812 27 342.329101562 c 0
 27 428.579101562 85.33203125 522.75 310.731445312 522.75 c 0
 534.982421875 522.75 637.079101562 408.8359375 637.079101562 227.135742188 c 0
 637.079101562 192.847824046 634.733866292 158.920650342 629.83765286 126.30078125 c 1
 1613.55371094 126.30078125 l 2
210.681640625 343.286132812 m 0
 210.681640625 377.227539062 201.5703125 414.112304688 182.060546875 414.112304688 c 0
 161.90625 414.112304688 151.348632812 376.796875 151.348632812 343.323242188 c 0
 151.348632812 309.862304688 161.161132812 273.7421875 181.78125 273.7421875 c 0
 202.400390625 273.7421875 210.681640625 309.361328125 210.681640625 343.286132812 c 0
EndSplineSet
EndChar

StartChar: uni0BA8
Encoding: 27 2984 60
GlifName: uni0B_A_8
Width: 951
VWidth: 0
Flags: HW
HStem: -247.569 204.192<286.821 695.564> -227.157 200.45<162.903 588.197> 0.0175781 476.986<66.214 209.862 479.064 622.712> 172.183 153.82<695.405 867.177> 350.855 125.351<96.5261 689.753 690.048 757.537>
VStem: 28.275 215.051<28.0065 437.382> 441.125 215.051<28.0065 437.382> 568.668 87.6689<108.159 159.021> 743.753 229.306<0.897104 165.252>
LayerCount: 2
Back
SplineSet
574.153320312 -230.596679688 m 260
 534.087890625 -223.704101562 499.166992188 -220.303710938 468.352539062 -220.303710938 c 7
 346.5 -220.303710938 288.8828125 -249.779296875 231.453125 -249.779296875 c 260
 180.329101562 -249.779296875 142.974609375 -203.49609375 142.974609375 -143.083984375 c 260
 142.974609375 -69.7158203125 203.85546875 -19.853515625 380.953125 -19.853515625 c 7
 422.877929688 -19.853515625 471.31640625 -23.14453125 527.002929688 -30.2373046875 c 4
 597.450195312 -39.2099609375 653.642578125 -43.376953125 698.352539062 -43.376953125 c 7
 838.297851562 -43.376953125 865.752929688 2.783203125 865.752929688 92.5537109375 c 260
 865.752929688 129.353515625 857.951171875 172.182617188 827.29296875 172.182617188 c 260
 798.151367188 172.182617188 778.336914062 152.353515625 778.336914062 108.159179688 c 261
 690.66796875 107.303710938 l 261
 690.66796875 254.703125 797.1328125 326.002929688 937.301757812 326.002929688 c 260
 1041.05273438 326.002929688 1095.05859375 259.303710938 1095.05859375 82.203125 c 260
 1095.05859375 -93.87109375 1029.16699219 -247.568359375 753.552734375 -247.568359375 c 7
 701.54296875 -247.568359375 642.065429688 -242.280273438 574.153320312 -230.596679688 c 260
EndSplineSet
Fore
SplineSet
243.325195312 106.704101562 m 2
 243.325195312 25.9423828125 213.424804688 0.017578125 129.872070312 0.017578125 c 0
 47.8251953125 0.017578125 28.2744140625 38.2060546875 28.2744140625 117.776367188 c 2
 28.2744140625 364.350585938 l 2
 28.2744140625 431.982421875 67.375 477.00390625 129.266601562 477.00390625 c 2
 646.916992188 477.1484375 l 2
 704 477.1484375 720.166015625 460.821289062 720.166015625 412.748046875 c 0
 720.166015625 362.6953125 690.6171875 351.874023438 641.166992188 351.797851562 c 2
 607.294921875 351.716796875 l 1
 607.294921875 258.916947355 l 1
 649.569023211 286.438369512 704.289604419 300 765.420898438 300 c 0
 869.171875 300 923.177734375 233.30078125 923.177734375 56.2001953125 c 0
 923.177734375 -119.873046875 853.072265625 -273.572265625 556.372070312 -273.572265625 c 0
 492.377929688 -273.572265625 356.573242188 -253.16015625 318.403320312 -253.16015625 c 0
 194.16015625 -253.16015625 174.034179688 -282.63671875 115.477539062 -282.63671875 c 0
 64.3544921875 -282.63671875 27 -236.353515625 27 -175.94140625 c 0
 27 -102.572265625 76.3740234375 -52.7099609375 220 -52.7099609375 c 0
 302.270507812 -52.7099609375 432.627929688 -69.3798828125 528.772460938 -69.3798828125 c 0
 668.716796875 -69.3798828125 693.872070312 -23.21875 693.872070312 66.55078125 c 0
 693.872070312 103.350585938 686.0703125 146.1796875 655.412109375 146.1796875 c 0
 629.248526743 146.1796875 610.603189238 130.196233694 607.065633834 94.9465810524 c 0
 606.933716878 91.7028931879 606.744142821 88.5581979853 606.495015069 85.5101867874 c 0
 606.469100596 84.4081988229 606.456054773 83.2902454376 606.456054688 82.15625 c 0
 606.368258364 82.15625 606.28046204 82.1536798649 606.192665716 82.1536798649 c 0
 600.119040413 20.5857710069 568.263737228 0.017578125 493.841796875 0.017578125 c 0
 411.794921875 0.017578125 392.244140625 38.2060546875 392.244140625 117.776367188 c 2
 392.244140625 351.267578125 l 1
 243.325195312 351.02734375 l 1
 243.325195312 106.704101562 l 2
EndSplineSet
EndChar

StartChar: uni0BAA
Encoding: 29 2986 61
GlifName: uni0B_A_A_
Width: 683
VWidth: 0
Flags: HW
HStem: -0.0947266 125.196<136.25 542.09>
VStem: 27 215.05<45.1895 112.822 125.102 449.166> 136.25 105.8<19.5566 125.102> 439.85 215.05<45.1895 112.822 125.519 449.166> 439.85 100.992<45.1895 112.822>
LayerCount: 2
Back
Fore
SplineSet
654.900390625 370.467773438 m 2
 654.900390625 109.896484375 l 2
 654.900390625 19.556640625 603.685546875 0.16796875 540.842773438 0.16796875 c 2
 136.25 -0.0947265625 l 2
 74.150390625 -0.0947265625 27 45.189453125 27 112.822265625 c 2
 27 359.395507812 l 2
 27 438.965820312 46.5498046875 477.155273438 128.59765625 477.155273438 c 0
 212.150390625 477.155273438 242.049804688 451.229492188 242.049804688 370.467773438 c 2
 242.049804688 125.126012543 l 1
 323.540364566 125.164188607 390.217294665 125.241481492 439.850585938 125.317461779 c 1
 439.850585938 359.395507812 l 2
 439.850585938 438.965820312 459.400390625 477.155273438 541.448242188 477.155273438 c 0
 625 477.155273438 654.900390625 451.229492188 654.900390625 370.467773438 c 2
EndSplineSet
EndChar

StartChar: uni0B9F
Encoding: 24 2975 62
GlifName: uni0B_9F_
Width: 716
VWidth: 0
Flags: HW
HStem: -0.0947266 126.85<242.05 676.946>
VStem: 27 215.05<45.1895 112.822 126.755 449.166> 136.25 105.8<19.5566 126.755>
LayerCount: 2
Back
Fore
SplineSet
136.25 -0.0947265625 m 2
 74.1494140625 -0.0947265625 27 45.189453125 27 112.822265625 c 2
 27 359.395507812 l 2
 27 438.965820312 46.5498046875 477.155273438 128.59765625 477.155273438 c 0
 212.149414062 477.155273438 242.049804688 451.229492188 242.049804688 370.467773438 c 2
 242.049804688 126.754882812 l 1
 583.125 126.754882812 l 2
 666.403320312 126.754882812 688.25 115.1953125 688.25 64.3056640625 c 0
 688.25 17.4853515625 669.125 -0.0947265625 604.680664062 -0.0947265625 c 2
 136.25 -0.0947265625 l 2
EndSplineSet
EndChar

StartChar: uni0B82
Encoding: 4 2946 63
GlifName: uni0B_82
Width: 1102
VWidth: 0
Flags: HW
HStem: 515.58 64.8027<-11.6825 30.7085> 727.71 66.0234<-11.8165 30.6365>
VStem: -148.136 126.815<583.907 724.338> 39.1895 126.758<583.651 724.873>
LayerCount: 2
Back
Fore
SplineSet
9.4375 515.580078125 m 0
 -77.7783203125 515.580078125 -148.135742188 564.817382812 -148.135742188 652.368164062 c 0
 -148.135742188 740.520507812 -80.8642578125 793.733398438 9.4404296875 793.733398438 c 0
 99.7685546875 793.733398438 165.947265625 740.520507812 165.947265625 652.368164062 c 0
 165.947265625 564.817382812 96.6748046875 515.580078125 9.4375 515.580078125 c 0
39.189453125 653.374023438 m 0
 39.189453125 688.998046875 29.896484375 727.709960938 10 727.709960938 c 0
 -10.5537109375 727.709960938 -21.3203125 688.544921875 -21.3203125 653.412109375 c 0
 -21.3203125 618.29296875 -11.314453125 580.3828125 9.71484375 580.3828125 c 0
 30.7431640625 580.3828125 39.189453125 617.767578125 39.189453125 653.374023438 c 0
EndSplineSet
EndChar

StartChar: uni0B83
Encoding: 5 2947 64
GlifName: uni0B_83
Width: 20
VWidth: 0
Flags: HW
HStem: -70.9199 64.8027<-213.956 -171.565 160.944 203.335> 141.21 66.0234<-214.09 -171.637 160.81 203.263> 198.18 64.8027<-26.5061 15.8849> 410.31 66.0234<-26.6401 15.8129>
VStem: -350.409 126.815<-2.59325 137.838> -163.084 126.758<-2.84944 138.373> -162.959 126.815<266.507 406.938> 24.3659 126.758<266.251 407.473> 24.4909 126.815<-2.59325 137.838> 211.816 126.758<-2.84944 138.373>
LayerCount: 2
Back
Fore
SplineSet
196.887695312 -70.1953125 m 0
 109.671875 -70.1953125 39.314453125 -20.9580078125 39.314453125 66.5927734375 c 0
 39.314453125 154.745117188 106.5859375 207.958007812 196.890625 207.958007812 c 0
 287.21875 207.958007812 353.397460938 154.745117188 353.397460938 66.5927734375 c 0
 353.397460938 -20.9580078125 284.125 -70.1953125 196.887695312 -70.1953125 c 0
226.639648438 67.5986328125 m 0
 226.639648438 103.22265625 217.346679688 141.934570312 197.450195312 141.934570312 c 0
 176.896484375 141.934570312 166.129882812 102.76953125 166.129882812 67.63671875 c 0
 166.129882812 32.517578125 176.135742188 -5.392578125 197.165039062 -5.392578125 c 0
 218.193359375 -5.392578125 226.639648438 31.9921875 226.639648438 67.5986328125 c 0
-178.012695312 -70.1953125 m 0
 -265.228515625 -70.1953125 -335.5859375 -20.9580078125 -335.5859375 66.5927734375 c 0
 -335.5859375 154.745117188 -268.314453125 207.958007812 -178.009765625 207.958007812 c 0
 -87.681640625 207.958007812 -21.5029296875 154.745117188 -21.5029296875 66.5927734375 c 0
 -21.5029296875 -20.9580078125 -90.775390625 -70.1953125 -178.012695312 -70.1953125 c 0
-148.260742188 67.5986328125 m 0
 -148.260742188 103.22265625 -157.553710938 141.934570312 -177.450195312 141.934570312 c 0
 -198.00390625 141.934570312 -208.770507812 102.76953125 -208.770507812 67.63671875 c 0
 -208.770507812 32.517578125 -198.764648438 -5.392578125 -177.735351562 -5.392578125 c 0
 -156.70703125 -5.392578125 -148.260742188 31.9921875 -148.260742188 67.5986328125 c 0
9.4375 198.904296875 m 0
 -77.7783203125 198.904296875 -148.135742188 248.141601562 -148.135742188 335.692382812 c 0
 -148.135742188 423.844726562 -80.8642578125 477.057617188 9.4404296875 477.057617188 c 0
 99.7685546875 477.057617188 165.947265625 423.844726562 165.947265625 335.692382812 c 0
 165.947265625 248.141601562 96.6748046875 198.904296875 9.4375 198.904296875 c 0
39.189453125 336.698242188 m 0
 39.189453125 372.322265625 29.896484375 411.034179688 10 411.034179688 c 0
 -10.5537109375 411.034179688 -21.3203125 371.869140625 -21.3203125 336.736328125 c 0
 -21.3203125 301.6171875 -11.314453125 263.70703125 9.71484375 263.70703125 c 0
 30.7431640625 263.70703125 39.189453125 301.091796875 39.189453125 336.698242188 c 0
EndSplineSet
EndChar

StartChar: I
Encoding: 215 73 65
GlifName: I_
Width: 350
VWidth: 0
Flags: HW
HStem: -0.24707 684.813<99.538 248.229>
VStem: 60.623 229.489<46.0475 647.069>
LayerCount: 2
Back
SplineSet
159.573242188 970.911132812 m 260
 147.525390625 979.854492188 124.515625 993.74609375 98.853515625 993.74609375 c 7
 44.2197265625 993.74609375 14.7216796875 936.013671875 14.7216796875 894.436523438 c 7
 14.7216796875 866.326171875 34 847.077148438 64.1142578125 829.873046875 c 260
 126.04296875 794.4921875 159.935546875 783.340820312 237.975585938 747.571289062 c 260
 258.0078125 738.3046875 275.145507812 733.408203125 289.845703125 733.408203125 c 7
 321.862304688 733.408203125 349.65625 766.42578125 349.65625 802.666015625 c 7
 349.65625 823.37109375 334.313476562 842.317382812 307.73046875 862.125976562 c 260
 242.373046875 910.823242188 222.098632812 924.505859375 159.573242188 970.911132812 c 260
EndSplineSet
Fore
SplineSet
290 150.057617188 m 2
 290 44 249.504882812 -0.2470703125 173.252929688 -0.2470703125 c 0
 98.4482421875 -0.2470703125 60.5830078125 31.9560546875 60 142.41015625 c 2
 60 564.6171875 l 2
 60 654 108.598632812 684.56640625 173.252929688 684.56640625 c 0
 240.051757812 684.56640625 289.926757812 670.748046875 290 573.603515625 c 2
 290 150.057617188 l 2
EndSplineSet
EndChar

StartChar: E
Encoding: 211 69 66
GlifName: E_
Width: 637
VWidth: 0
Flags: HW
HStem: -0.00195312 161.318<173.086 173.852 289.721 571.67> 268.266 138<152.527 525.115> 522.931 161.636<173.086 573.26>
VStem: 173.086 116.314<36.209 139.12 522.931 671.312>
LayerCount: 2
Back
Fore
SplineSet
445.961914062 406.265625 m 2
 518.567382812 406.265625 542.048828125 384.174804688 542.048828125 331.198242188 c 0
 542.048828125 285.185546875 508.484375 268.265625 436.59765625 268.265625 c 2
 289.622687102 268.265625 l 1
 289.701282735 161.51765818 l 1
 491.797851562 161.31640625 l 2
 564.401367188 161.244140625 597.083007812 143.28125 597.083007812 86.248046875 c 0
 597.083007812 17.6494140625 553.357421875 -0.001953125 482.432617188 -0.001953125 c 2
 173.848632812 -0.001953125 l 2
 173.848632812 0.104839384014 173.84711527 0.211631893028 173.84711527 0.318424402042 c 1
 173.518534656 0.318424402042 173.18928776 0.31640625 172.859375 0.31640625 c 0
 98.056640625 0.31640625 60.8115234375 32.51953125 60.2294921875 142.973632812 c 2
 58.0029296875 565.1796875 l 2
 57.544921875 651.985351562 108.205078125 685.12890625 172.859375 685.12890625 c 0
 180.023311804 685.12890625 186.99019619 684.969986125 193.719986058 684.56640625 c 2
 482.432617188 684.56640625 l 2
 553.357421875 684.56640625 597.083007812 667.62109375 597.083007812 601.765625 c 0
 597.083007812 542.112304688 564.401367188 523.3203125 491.797851562 523.248046875 c 2
 289.435098829 523.046529874 l 1
 289.521081443 406.265625 l 1
 445.961914062 406.265625 l 2
EndSplineSet
EndChar

StartChar: T
Encoding: 226 84 67
GlifName: T_
Width: 721
VWidth: 0
Flags: HW
HStem: 0 21G<323.943 399.471> 512.313 172.5<65.328 246.488 343.688 361.345 477.884 662.22>
VStem: 248.715 229.489<46.295 650.838>
LayerCount: 2
Back
Fore
SplineSet
478.204101562 150.3046875 m 2
 478.288085938 38.8671875 437.596679688 0 361.345703125 0 c 0
 286.540039062 0 249.296875 32.2041015625 248.71484375 142.657226562 c 2
 246.76647672 512.112051894 l 1
 161.604492188 512.313476562 l 2
 83.6591796875 512.498046875 35.4541015625 530.452148438 35.4541015625 602.733398438 c 0
 35.4541015625 665.02734375 70.3955078125 684.813476562 152.239257812 684.813476562 c 0
 298.317382812 684.813476562 437.520507812 684.813476562 580.71484375 684.813476562 c 0
 653.4453125 684.813476562 686 663.57421875 686 595.833007812 c 0
 686 529.063476562 642.588867188 512.448242188 571.349609375 512.313476562 c 2
 477.930461008 512.136756586 l 1
 478.204101562 150.3046875 l 2
EndSplineSet
EndChar

StartChar: F
Encoding: 212 70 68
GlifName: F_
Width: 609
VWidth: 0
Flags: HW
HStem: 0.316406 21G<127.526 203.054> 268.267 138<144.591 517.179> 522.932 161.635<164.001 564.176>
VStem: 52.2984 229.488<42.3199 268.267 406.267 522.932 565.181 651.986> 164.001 117.465<522.932 671.312>
LayerCount: 2
Back
Fore
SplineSet
281.784179688 139.12109375 m 2
 281.860351562 36.208984375 241.177734375 0.31640625 164.92578125 0.31640625 c 0
 90.123046875 0.31640625 52.8779296875 32.5205078125 52.2958984375 142.973632812 c 2
 50.0693359375 565.180664062 l 2
 49.611328125 651.986328125 100.271484375 685.129882812 164.92578125 685.129882812 c 0
 172.095493544 685.129882812 179.067835568 684.970706345 185.8026683 684.56640625 c 2
 473.348632812 684.56640625 l 2
 544.2734375 684.56640625 588 667.622070312 588 601.766601562 c 0
 588 542.11328125 555.317382812 523.321289062 482.713867188 523.249023438 c 2
 281.501504235 523.048652018 l 1
 281.587487693 406.266601562 l 1
 438.028320312 406.266601562 l 2
 510.633789062 406.266601562 534.114257812 384.17578125 534.114257812 331.19921875 c 0
 534.114257812 285.186523438 500.549804688 268.266601562 428.6640625 268.266601562 c 2
 281.689093352 268.266601562 l 1
 281.784179688 139.12109375 l 2
EndSplineSet
EndChar

StartChar: J
Encoding: 216 74 69
GlifName: J_
Width: 646
VWidth: 0
Flags: HW
HStem: -7.08203 152.886<272.918 350.894>
VStem: 40.9974 215.185<158.225 307.377> 356.846 231.396<154.827 648.823>
LayerCount: 2
Back
SplineSet
172.874023438 158.1640625 m 260
 172.874023438 217.696289062 146.203125 247.135742188 64.8720703125 247.135742188 c 260
 -20.6181640625 247.135742188 -40.33203125 219.53515625 -40.33203125 143.177734375 c 260
 -40.33203125 53.015625 26.21484375 12.53515625 79.5751953125 12.53515625 c 1285
217.943359375 129.471679688 m 262
 215.715820312 551.677734375 l 262
 215.715820312 638.486328125 268.431640625 671.626953125 336.323242188 671.626953125 c 260
 406.418945312 671.626953125 458.534179688 657.80859375 458.612304688 560.6640625 c 262
 458.932617188 162.764648438 l 262
 217.943359375 129.471679688 l 262
355.724609375 245.564453125 m 4
 458.932617188 249.014648438 l 5
 458.932617188 249.014648438 461.303710938 302.240234375 458.932617188 162.764648438 c 4
 456.923828125 44.66015625 358.024414062 -13.185546875 205.07421875 -20.021484375 c 4
 82.142578125 -25.515625 -1.6650390625 8.4326171875 -14.576171875 132.864257812 c 260
 -19.2783203125 178.188476562 25.67578125 252.46484375 65.923828125 238.6640625 c 260
 141.60546875 212.716796875 231.1015625 214.948242188 231.1015625 245.564453125 c 260
 355.724609375 245.564453125 l 4
EndSplineSet
Fore
SplineSet
256.184570312 209.053710938 m 0
 256.184570312 167.860351562 285 145.803710938 310.556640625 145.803710938 c 0
 342.755859375 145.803710938 358.903320312 154.3515625 358.856445312 209.053710938 c 0
 358.754882812 328.111328125 356.848632812 446.029296875 356.848632812 564.6171875 c 0
 356.848632812 644.904296875 389.14453125 684.56640625 471.705078125 684.56640625 c 0
 537.040039062 684.56640625 588.168945312 661.00390625 588.244140625 573.603515625 c 2
 588.564453125 203.303710938 l 2
 588.702148438 43.943359375 492.640625 -7.08203125 325.603515625 -7.08203125 c 0
 104.784179688 -7.08203125 41 126.853515625 41 217.103515625 c 0
 41 303.995117188 61.7919921875 332.5625 151.954101562 332.5625 c 0
 223.625976562 332.5625 261.735351562 305.276367188 261.735351562 261.954101562 c 0
 261.735351562 245.14453125 256.184570312 224.184570312 256.184570312 209.053710938 c 0
EndSplineSet
EndChar

StartChar: K
Encoding: 217 75 70
GlifName: K_
Width: 671
VWidth: 0
Flags: HW
HStem: -0.24707 21G<131.398 207.037 467.532 553.839> 236.653 173.65<290.81 368.165>
VStem: 54.7501 231.15<42.5985 142.354 142.534 236.653 413.376 650.649> 392.85 231.15<32.4875 220.328 441.593 647.711>
LayerCount: 2
Back
Fore
SplineSet
488.299804688 316.002929688 m 1
 549.25 309.103515625 624 255.053710938 624 160.752929688 c 0
 624 27.353515625 600.978515625 -0.2470703125 506.700195312 -0.2470703125 c 0
 428.36328125 -0.2470703125 392.849609375 31.953125 392.849609375 98.6533203125 c 0
 392.849609375 226.303710938 369.013671875 236.653320312 323.849609375 236.653320312 c 2
 290.5 236.653320312 l 1
 290.5 149.252929688 l 2
 290.5 38.853515625 245.473632812 -0.2470703125 168.599609375 -0.2470703125 c 0
 94.1962890625 -0.2470703125 55.900390625 35.4033203125 55.900390625 142.353515625 c 2
 55.900390625 142.353515625 54.75 390.752929688 54.75 558.653320312 c 0
 54.75 641.453125 83.04296875 684.56640625 155.950195312 684.56640625 c 0
 227.533203125 684.56640625 285.900390625 672.502929688 285.900390625 575.903320312 c 0
 285.900390625 518.403320312 284.75 488.502929688 284.75 451.703125 c 0
 284.75 427.553710938 297.875 410.303710938 325 410.303710938 c 0
 374.026367188 410.303710938 387.099609375 442.502929688 387.099609375 582.803710938 c 0
 387.099609375 650.653320312 420.614257812 684.56640625 504.400390625 684.56640625 c 0
 597.450195312 684.56640625 618.25 651.803710938 618.25 565.553710938 c 0
 618.25 398.803710938 550.400390625 324.053710938 488.299804688 316.002929688 c 1
EndSplineSet
EndChar

StartChar: P
Encoding: 222 80 71
GlifName: P_
Width: 695
VWidth: 0
Flags: HW
HStem: 0 21G<131.487 210.8> 205.4 131.1<200.257 349.658 349.757 365.178> 556.15 128.662<200.257 311.733 311.807 380.717>
VStem: 200.257 93.1494<205.4 336.5 556.15 670.994> 404.085 245.915<374.414 533.651>
LayerCount: 2
Back
Fore
SplineSet
310.72265625 337.176757812 m 2
 358.985351562 337.176757812 404.084960938 370.387695312 404.084960938 448.5 c 0
 404.084960938 535.899414062 374.705078125 556.826171875 311.806640625 556.826171875 c 2
 311.806640625 556.826171875 304.268653076 556.776341558 293.09984133 556.703743393 c 1
 293.265436155 337.069807898 l 1
 310.72265625 337.176757812 l 2
293.40625 150.303710938 m 2
 293.490234375 38.8662109375 250.801757812 0 170.797851562 0 c 0
 92.1748046875 0 53.0009765625 32.203125 52.41796875 142.657226562 c 2
 50.1904296875 564.86328125 l 2
 49.732421875 651.668945312 102.90625 684.8125 170.797851562 684.8125 c 0
 181.036388112 684.8125 190.891446229 684.517676864 200.256835938 683.71141424 c 1
 200.256835938 684.4765625 l 1
 348.672851562 685.15234375 l 2
 522.583007812 685.15234375 650 590.576171875 650 433.901367188 c 0
 650 287.66796875 515.23828125 206.076171875 349.756835938 206.076171875 c 2
 349.756835938 206.076171875 323.747953844 205.948160478 293.364405424 205.803567107 c 1
 293.40625 150.303710938 l 2
EndSplineSet
EndChar

StartChar: R
Encoding: 224 82 72
GlifName: R_
Width: 688
VWidth: 0
Flags: HW
HStem: 0 21G<126.739 202.266 480.75 559.979> 247.25 163.773<243.142 356.478> 296.947 114.076<216.692 325.869> 297.623 18.1807<325.942 542.423> 555.45 128.326<306.326 386.567>
VStem: 216.692 63.9863<315.804 411.023> 241.992 39.0068<247.25 315.804> 404.354 219.465<435.193 538.198> 407.389 226.611<39.6389 224.891>
LayerCount: 2
Back
Fore
SplineSet
305.241210938 411.700195312 m 2
 356.477539062 411.700195312 404.353515625 425.506835938 404.353515625 486.22265625 c 0
 404.353515625 540.389648438 373.143554688 555.450195312 306.325195312 555.450195312 c 2
 306.325195312 555.450195312 295.747085043 555.388410618 280.691761129 555.302177825 c 1
 280.800503398 411.513402808 l 1
 305.241210938 411.700195312 l 2
280.998046875 150.303710938 m 2
 281.08203125 38.8662109375 240.391601562 0 164.139648438 0 c 0
 89.3359375 0 52.0908203125 32.203125 51.5087890625 142.657226562 c 2
 49.2822265625 564.86328125 l 2
 48.82421875 651.669921875 99.484375 684.25 164.139648438 684.25 c 0
 169.627548175 684.25 174.999809183 684.160535541 180.238431981 683.942438163 c 1
 180.238431981 684.044958775 180.239257812 684.147479388 180.239257812 684.25 c 2
 348.94140625 683.776367188 l 2
 513.880859375 683.776367188 623.818359375 599.200195312 623.818359375 478.524414062 c 0
 623.818359375 389.651731108 588.969561742 339.63117197 504.232015952 315.668820641 c 1
 563.263567608 312.468182152 634 252.544519491 634 161 c 0
 634 26.4501953125 599.442382812 0 520.513671875 0 c 0
 440.984375 0 407.388671875 32.8857421875 407.388671875 99.3837890625 c 0
 407.388671875 227.108398438 381.334960938 247.836914062 336.291015625 247.836914062 c 2
 280.924549852 247.488062084 l 1
 280.998046875 150.303710938 l 2
EndSplineSet
EndChar

StartChar: B
Encoding: 208 66 73
GlifName: B_
Width: 688
VWidth: 0
Flags: HW
HStem: 0.790039 145.35<199.609 305.338 305.408 387.292> 292.663 131.327<199.609 479.262> 556.24 128.326<305.408 378.733>
VStem: 397.687 218.315<444.238 540.165> 409.187 229.815<168.644 264.277>
LayerCount: 2
Back
SplineSet
297.922851562 142.458984375 m 258
 298.010742188 26.7587890625 255.317382812 -13.5947265625 175.313476562 -13.5947265625 c 256
 96.6904296875 -13.5947265625 57.515625 18.6083984375 56.93359375 129.0625 c 258
 54.7060546875 551.268554688 l 258
 54.248046875 638.07421875 107.421875 670.655273438 175.313476562 670.655273438 c 256
 245.409179688 670.655273438 297.52734375 657.400390625 297.602539062 560.254882812 c 258
 297.922851562 142.458984375 l 258
300.315429688 278.278320312 m 1
 189.849609375 278.954101562 l 1
 188.765625 410.28125 l 0
 197.767578125 410.28125 299.099609375 409.60546875 299.099609375 409.60546875 c 1
 475.252929688 409.60546875 651.092773438 349.780273438 651.092773438 194.204101562 c 256
 651.092773438 91.0556640625 605.065429688 -13.5947265625 379.666015625 -13.5947265625 c 1
 175.313476562 -13.5947265625 l 1
 189.849609375 131.754882812 l 0
 199.171875 131.754882812 301.399414062 131.078125 301.399414062 131.078125 c 1
 364.297851562 131.078125 405.177734375 153.854492188 405.177734375 200.305664062 c 256
 405.177734375 261.021484375 348.579101562 278.278320312 300.315429688 278.278320312 c 1
300.315429688 409.60546875 m 1
 348.579101562 409.60546875 393.677734375 422.346679688 393.677734375 478.377929688 c 256
 393.677734375 528.045898438 364.297851562 541.85546875 301.399414062 541.85546875 c 1
 301.399414062 541.85546875 185.53125 541.178710938 174.965820312 541.178710938 c 0
 175.313476562 670.655273438 l 1
 338.265625 670.181640625 l 1
 512.17578125 670.181640625 628.092773438 585.60546875 628.092773438 464.9296875 c 256
 628.092773438 312.978515625 475.252929688 278.278320312 299.099609375 278.278320312 c 1
 299.099609375 278.278320312 197.767578125 277.602539062 188.765625 277.602539062 c 0
 189.849609375 408.928710938 l 1
 300.315429688 409.60546875 l 1
EndSplineSet
Fore
SplineSet
304.322265625 423.990234375 m 0
 352.5859375 423.990234375 397.684570312 436.731445312 397.684570312 492.762695312 c 0
 397.684570312 542.430664062 368.3046875 556.240234375 305.40625 556.240234375 c 2
 305.40625 556.240234375 300.879575384 556.212414601 293.573731969 556.168055954 c 1
 293.675018261 424.056454507 l 1
 299.521595792 424.015580131 303.106445312 423.990234375 303.106445312 423.990234375 c 0
 303.471925122 423.990234375 303.837334278 423.989461462 304.2026715 423.989461462 c 0
 304.242536209 423.989461462 304.282400917 423.990234375 304.322265625 423.990234375 c 0
293.879882812 156.84375 m 2
 293.879882812 152.994147283 293.844799162 149.227956417 293.765539462 145.543888475 c 1
 300.910222409 145.494428762 305.40625 145.462890625 305.40625 145.462890625 c 2
 368.3046875 145.462890625 409.184570312 168.239257812 409.184570312 214.690429688 c 0
 409.184570312 275.40625 352.5859375 292.663085938 304.322265625 292.663085938 c 0
 304.297154919 292.663085938 304.272044213 292.663572092 304.246933507 292.663572092 c 0
 303.866955175 292.663572092 303.486792117 292.663085938 303.106445312 292.663085938 c 2
 303.106445312 292.663085938 299.562767129 292.638031273 293.775804133 292.597570444 c 1
 293.879882812 156.84375 l 2
566.128951267 355.81864538 m 1
 611.250509549 321.641455343 639 273.43191634 639 208.588867188 c 0
 639 105.440429688 558.959960938 0.7900390625 383.672851562 0.7900390625 c 2
 185.071289062 0.7900390625 l 1
 185.085616449 0.933311005511 l 2
 182.447546277 0.837328442066 179.759257317 0.7900390625 177.020507812 0.7900390625 c 0
 98.3974609375 0.7900390625 64.9736328125 32.9931640625 64.390625 143.447265625 c 2
 62.1630859375 565.653320312 l 2
 61.7998046875 634.438476562 109.12890625 685.040039062 177.020507812 685.040039062 c 0
 179.740201948 685.040039062 182.424177671 685.020084913 185.071116766 684.976050791 c 2
 185.071289062 685.040039062 l 1
 342.272460938 684.56640625 l 2
 501.459960938 685.040039062 616 599.990234375 616 479.314453125 c 0
 616 423.880194688 597.801118516 384.050974784 566.128951267 355.81864538 c 1
EndSplineSet
EndChar

StartChar: S
Encoding: 225 83 74
GlifName: S_
Width: 678
VWidth: 0
Flags: HW
HStem: -6.51953 167.271<215.687 472.454> 567.692 123.839<322.415 449.089>
VStem: 54.1807 258.75<445.837 558.629>
LayerCount: 2
Back
SplineSet
354.173828125 670.655273438 m 260
 156.900390625 670.655273438 20.3369140625 579.805664062 20.3369140625 463.146484375 c 260
 20.3369140625 387.407226562 53.193359375 326.163085938 137.973632812 280.805664062 c 260
 234.573242188 229.124023438 301.2734375 216.306640625 301.2734375 177.581054688 c 260
 301.2734375 125.825195312 214.551757812 151.291992188 176.438476562 162.484375 c 260
 131.831054688 175.583984375 101.651367188 199.657226562 77.3974609375 199.657226562 c 260
 37.1474609375 199.657226562 19.8427734375 174.009765625 19.8427734375 146.963867188 c 260
 19.8427734375 80.662109375 140.436523438 -20.1259765625 332.418945312 -20.1259765625 c 260
 589.709960938 -20.1259765625 684.25390625 101.2421875 684.25390625 197.383789062 c 260
 684.25390625 300.908203125 628.599609375 342.360351562 486.423828125 407.305664062 c 260
 393.2734375 449.85546875 362.223632812 467.10546875 371.423828125 504.194335938 c 260
 380.491210938 540.748046875 442.723632812 541.85546875 497.923828125 515.405273438 c 260
 531.215820312 499.452148438 589.106445312 460.53125 613.360351562 460.53125 c 260
 638.477539062 460.53125 657.797851562 470.619140625 657.797851562 513.224609375 c 260
 657.797851562 575.692382812 548.22265625 670.655273438 354.173828125 670.655273438 c 260
EndSplineSet
Fore
SplineSet
342.831054688 691.53125 m 0
 160.115234375 691.53125 54.1806640625 601.116210938 54.1806640625 484.594726562 c 0
 54.1806640625 408.85546875 89.484375 357.106445312 165.73046875 310.880859375 c 0
 300.40625 229.23046875 356.630859375 230.380859375 356.630859375 192.430664062 c 0
 356.630859375 168.95703125 336.900390625 160.751953125 311.78125 160.751953125 c 0
 230.918945312 160.751953125 148.024414062 213.6328125 100.5546875 213.6328125 c 0
 60.3046875 213.6328125 43 187.985351562 43 160.939453125 c 0
 43 94.6376953125 173.21484375 -6.51953125 357.78125 -6.51953125 c 0
 587.125976562 -6.51953125 631.48046875 104.338867188 631.48046875 200.48046875 c 0
 631.48046875 270.1015625 597.758789062 322.813476562 483.130859375 395.98046875 c 0
 396.80859375 451.080078125 312.930664062 471.880859375 312.930664062 520.180664062 c 0
 312.930664062 556.327148438 336.795898438 567.692382812 371.581054688 567.692382812 c 0
 447.1953125 567.692382812 517.079101562 493.521484375 556.73046875 493.521484375 c 0
 576.260742188 493.521484375 599.595703125 508.567382812 599.595703125 538.581054688 c 0
 599.595703125 608.063476562 498.046875 691.53125 342.831054688 691.53125 c 0
EndSplineSet
EndChar

StartChar: V
Encoding: 228 86 75
GlifName: V_
Width: 702
VWidth: 0
Flags: HW
HStem: -6.51953 161.163<308.872 389.327>
VStem: 51.7048 245.373<199.337 596.916> 401.627 245.373<199.337 602.432>
LayerCount: 2
Back
Fore
SplineSet
350.252929688 154.643554688 m 0
 398.825195312 154.643554688 401.626953125 195.006835938 401.626953125 278.162109375 c 0
 401.626953125 347.303710938 403.013671875 476.15234375 403.013671875 580.55078125 c 0
 403.013671875 649.013671875 430.993164062 682.869140625 516.314453125 682.869140625 c 0
 622.1640625 682.869140625 647 624.736328125 647 335.569335938 c 0
 647 78.1181640625 476.44921875 -6.51953125 352.135742188 -6.51953125 c 0
 226.852539062 -6.51953125 51.705078125 78.1181640625 51.705078125 335.569335938 c 0
 51.705078125 624.736328125 79.736328125 682.869140625 193.890625 682.869140625 c 0
 270.553710938 682.869140625 295.69140625 649.013671875 295.69140625 580.55078125 c 0
 295.69140625 475.958984375 297.078125 346.875976562 297.078125 279.220703125 c 0
 297.078125 198.578125 297.083984375 154.643554688 350.252929688 154.643554688 c 0
EndSplineSet
EndChar

StartChar: N
Encoding: 220 78 76
GlifName: N_
Width: 695
VWidth: 0
Flags: HW
HStem: -0.24707 21G<112.712 165.943 510.378 567.651>
VStem: 55.9187 161.64<20.2757 301.616> 478.285 160.395<380.143 662.323>
LayerCount: 2
Back
Fore
SplineSet
639 95.203125 m 2
 639.048828125 18.8974609375 597.508789062 -0.2470703125 537.794921875 -0.2470703125 c 0
 482.963867188 -0.2470703125 452.6953125 48.5703125 372.711914062 128.553710938 c 0
 278.15625 223.108398438 217.461914062 301.616210938 217.461914062 301.616210938 c 1
 217.559570312 84.853515625 l 2
 217.583984375 29.6533203125 190.938476562 -0.2470703125 140.950195312 -0.2470703125 c 0
 84.4755859375 -0.2470703125 56.216796875 22.7548828125 55.919921875 87.1533203125 c 2
 53.693359375 570.3671875 l 2
 53.3447265625 646.051757812 97.33203125 684.56640625 166.861328125 684.56640625 c 0
 217.94140625 684.56640625 243.2578125 673.053710938 279.561523438 632.252929688 c 0
 402.48046875 494.10546875 478.286132812 380.142578125 478.286132812 380.142578125 c 1
 477.434570312 589.916992188 l 2
 477.16015625 657.551757812 509.7890625 684.002929688 557.861328125 684.002929688 c 0
 614.440429688 684.002929688 638.641601562 659.817382812 638.680664062 598.903320312 c 2
 639 95.203125 l 2
EndSplineSet
EndChar

StartChar: U
Encoding: 227 85 77
GlifName: U_
Width: 687
VWidth: 0
Flags: HW
HStem: 0.316406 165.6<306.042 383.704>
VStem: 61.2024 230.389<177.089 565.403 565.492 645.41> 395.916 231.087<176.823 564.505 564.617 647.215>
LayerCount: 2
Back
Fore
SplineSet
626.857421875 564.6171875 m 2
 626.857421875 564.6171875 627 410.866210938 627 267.116210938 c 0
 627 123.366210938 550.16015625 0.31640625 344.099609375 0.31640625 c 0
 145.997070312 0.31640625 61.2001953125 90.982421875 61.2001953125 267.116210938 c 0
 61.2001953125 443.249023438 60.1904296875 565.4921875 60.1904296875 565.4921875 c 2
 59.8994140625 651.443359375 108.638671875 684.56640625 171.666015625 684.56640625 c 0
 239.890625 684.56640625 291.588867188 670.766601562 291.588867188 573.603515625 c 2
 291.588867188 247.56640625 l 2
 293.013671875 184.834960938 311.625 165.916015625 344.099609375 165.916015625 c 0
 390.935546875 165.916015625 395.913085938 202.716796875 395.913085938 247.56640625 c 2
 395.913085938 574.6328125 l 2
 395.913085938 670.421875 448.314453125 684.56640625 510.922851562 684.56640625 c 0
 586.021484375 684.56640625 626.815429688 652.358398438 626.857421875 564.6171875 c 2
EndSplineSet
EndChar

StartChar: D
Encoding: 210 68 78
GlifName: D_
Width: 699
VWidth: 0
Flags: HW
HStem: 0 21G<135.685 479.385> 544.67 139.58<182.311 184.197 291.535 358.012>
VStem: 62.3662 229.489<137.537 546.951 564.863 651.669> 184.197 107.338<36.1904 136.149 546.951 670.995> 411.602 240.404<201.641 480.405>
LayerCount: 2
Back
Fore
SplineSet
291.848632812 139.954101562 m 2
 291.848632812 138.474334348 291.843278938 137.008309796 291.829294756 135.555936888 c 1
 300.382014366 135.505166858 305.795898437 135.47265625 305.795898438 135.47265625 c 0
 365.080078125 135.47265625 411.595703125 188.30078125 411.595703125 349.599609375 c 0
 411.595703125 497.45703125 361.8984375 544.669921875 305.795898438 544.669921875 c 2
 291.549667208 544.933092142 l 1
 291.848632812 139.954101562 l 2
184.189266864 684.165336066 m 1
 184.189266864 684.193557377 184.190429688 684.221778689 184.190429688 684.25 c 1
 193.512695312 684.25 321.895507812 684.25 321.895507812 684.25 c 2
 518.522460938 684.25 652 558.849609375 652 346.150390625 c 0
 652 181.606445312 581.662109375 0 377.095703125 0 c 0
 304.725585938 0 296.692382812 0 184.190429688 0 c 1
 184.190429688 0.0561104317896 184.189916545 0.112220863579 184.189916545 0.168331295369 c 1
 181.189144519 0.0554824977811 178.122705119 2.44249065418e-15 174.990234375 0 c 0
 96.3662109375 0 62.94140625 32.203125 62.359375 142.657226562 c 2
 60.1328125 564.86328125 l 2
 59.6748046875 651.668945312 107.098632812 684.25 174.990234375 684.25 c 0
 178.104052672 684.25 181.171056601 684.223842771 184.189266864 684.165336066 c 1
EndSplineSet
EndChar

StartChar: M
Encoding: 219 77 79
GlifName: M_
Width: 935
VWidth: 0
Flags: HW
VStem: 58.8083 160.489<18.269 95.7666>
LayerCount: 2
Back
Fore
SplineSet
644.69921875 366.016601562 m 1
 644.69921875 366.016601562 644.6015625 198.602539062 644.6015625 103.81640625 c 0
 644.6015625 24.466796875 698.5625 0.31640625 755.099609375 0.31640625 c 0
 814.62890625 0.31640625 874.364257812 19.6376953125 874.772460938 99.216796875 c 2
 874.772460938 99.216796875 877 349.6484375 877 533.916015625 c 0
 877 640.67578125 812.647460938 685.6328125 716.086914062 685.6328125 c 0
 651.427734375 685.6328125 610.975585938 662.270507812 581.44921875 614.416015625 c 0
 510.71484375 499.775390625 459.549804688 354.516601562 459.549804688 354.516601562 c 1
 459.549804688 354.516601562 398.6015625 516.666992188 341.099609375 619.016601562 c 0
 321.747070312 653.462890625 292.998046875 686.6328125 220.086914062 686.6328125 c 0
 98.2900390625 686.6328125 56.5810546875 630.883789062 56.5810546875 531.616210938 c 0
 56.5810546875 347.662109375 58.80859375 95.7666015625 58.80859375 95.7666015625 c 2
 59.21484375 16.1875 86.5927734375 0.31640625 141.5390625 0.31640625 c 0
 192.278320312 0.31640625 219.297851562 23.85546875 219.297851562 83.1162109375 c 0
 219.297851562 160.422851562 219.19921875 366.016601562 219.19921875 366.016601562 c 2
 222.033203125 355.806640625 259.44921875 274.016601562 303.149414062 175.116210938 c 0
 341.9921875 87.2099609375 372.544921875 51.6748046875 443.44921875 50.916015625 c 0
 498.2265625 50.330078125 523.950195312 69.31640625 560.75 149.81640625 c 0
 616.875976562 272.592773438 644.69921875 366.016601562 644.69921875 366.016601562 c 1
EndSplineSet
EndChar

StartChar: C
Encoding: 209 67 80
GlifName: C_
Width: 763
VWidth: 0
Flags: HW
HStem: -6.51953 208.905<384.156 529.95> 547.98 143.477<352.497 437.519>
VStem: 41.1893 262.961<282.521 474.097> 447.846 240.26<437.062 536.973>
LayerCount: 2
Back
SplineSet
470.931640625 324.5 m 260
 470.931640625 417.025390625 446.279296875 518.936523438 395.665039062 518.936523438 c 260
 343.439453125 518.936523438 317.08984375 415.754882812 317.08984375 324.5 c 260
 317.08984375 234.337890625 342.219726562 138.467773438 395.665039062 138.467773438 c 260
 449.150390625 138.467773438 470.931640625 233.081054688 470.931640625 324.5 c 260
395.665039062 -19.2236328125 m 260
 193.153320312 -19.2236328125 29.39453125 105.235351562 29.39453125 324.5 c 260
 29.39453125 545.267578125 185.977539062 677.383789062 395.665039062 677.383789062 c 260
 605.288085938 677.383789062 758.485351562 545.267578125 758.485351562 324.5 c 260
 758.485351562 105.235351562 598.116210938 -19.2236328125 395.665039062 -19.2236328125 c 260
EndSplineSet
Fore
SplineSet
447.845703125 497.106445312 m 0
 447.845703125 524.454101562 424.076171875 547.98046875 393.947265625 547.98046875 c 0
 339.073242188 547.98046875 304.150390625 458.883789062 304.150390625 373.965820312 c 0
 304.150390625 276.997070312 364.27734375 202.385742188 460.385742188 202.385742188 c 0
 568.900390625 202.385742188 617.095703125 274.501953125 668.950195312 274.501953125 c 0
 700.518554688 274.501953125 723 244.702148438 723 220.78515625 c 0
 723 156.022460938 614.575195312 -6.51953125 406.051757812 -6.51953125 c 0
 198.55859375 -6.51953125 41.189453125 118.650390625 41.189453125 340.970703125 c 0
 41.189453125 559.62109375 185.591796875 691.45703125 392.251953125 691.45703125 c 0
 554.46875 691.45703125 688.10546875 600.33203125 688.10546875 483.767578125 c 0
 688.10546875 403.181640625 628.688476562 310.732421875 529.799804688 310.732421875 c 0
 477.619140625 310.732421875 416.036132812 337.229492188 416.036132812 395.90625 c 0
 416.036132812 432.337890625 447.845703125 467.950195312 447.845703125 497.106445312 c 0
EndSplineSet
EndChar

StartChar: G
Encoding: 213 71 81
GlifName: G_
Width: 762
VWidth: 0
Flags: HW
HStem: -6.51953 155.342<361.818 460.204> 547.98 143.477<356.112 432.456>
VStem: 41.0574 262.513<217.456 473.458> 437.03 258.994<454.713 542.553>
LayerCount: 2
Back
SplineSet
437.4296875 483.200195312 m 7
 437.4296875 510.547851562 418.224609375 534.07421875 393.881835938 534.07421875 c 260
 339.0078125 534.07421875 304.084960938 444.977539062 304.084960938 360.059570312 c 260
 304.084960938 270.240234375 364.211914062 201.12890625 460.3203125 201.12890625 c 260
 568.833984375 201.12890625 617.030273438 260.595703125 668.884765625 260.595703125 c 7
 700.453125 260.595703125 722.934570312 230.795898438 722.934570312 206.87890625 c 260
 722.934570312 142.116210938 614.509765625 -20.42578125 405.986328125 -20.42578125 c 260
 198.493164062 -20.42578125 41.1240234375 104.744140625 41.1240234375 327.064453125 c 260
 41.1240234375 545.71484375 185.526367188 677.55078125 392.185546875 677.55078125 c 260
 555.034179688 677.55078125 689.190429688 586.42578125 689.190429688 469.861328125 c 260
 689.190429688 389.275390625 625.45703125 296.826171875 519.384765625 296.826171875 c 7
 467.203125 296.826171875 405.62109375 323.323242188 405.62109375 382 c 7
 405.62109375 418.431640625 437.4296875 454.043945312 437.4296875 483.200195312 c 7
EndSplineSet
Fore
SplineSet
437.030273438 516.65625 m 0
 437.030273438 535.056640625 429.053710938 547.98046875 400.715820312 547.98046875 c 0
 356.0625 547.98046875 303.5703125 505.033203125 303.5703125 344.15625 c 0
 303.5703125 195.806640625 364.165039062 148.822265625 415.120117188 148.822265625 c 0
 444.966796875 148.822265625 471.180664062 165.624023438 471.180664062 196.95703125 c 1
 421.708007812 196.95703125 395.5703125 228.897460938 395.5703125 262.506835938 c 0
 395.5703125 308.506835938 416.15625 334.95703125 479.51953125 334.95703125 c 2
 600.7109375 334.95703125 l 2
 670.740234375 334.95703125 723 309.045898438 723 211.90625 c 0
 723 95.7568359375 573.5 -6.51953125 412.8203125 -6.51953125 c 0
 199.75 -6.51953125 41.0576171875 118.650390625 41.0576171875 340.970703125 c 0
 41.0576171875 559.62109375 185.950195312 691.45703125 399.01953125 691.45703125 c 0
 617.325195312 691.45703125 696.024414062 606.356445312 696.024414062 517.806640625 c 0
 696.024414062 474.006835938 671.051757812 407.40625 539.3203125 407.40625 c 0
 450.76953125 407.40625 437.030273438 422.428710938 437.030273438 516.65625 c 0
EndSplineSet
EndChar

StartChar: Q
Encoding: 223 81 82
GlifName: Q_
Width: 785
VWidth: 0
Flags: HW
HStem: -250.309 203.55<538.988 703.158> -6.38281 72.3242<311.76 470.459> 543.277 146.947<363.75 423.542>
VStem: 41.51 281.945<206.792 470.932> 461.196 281.804<206.535 471.191>
LayerCount: 2
Back
Fore
SplineSet
660.208984375 -46.7587890625 m 0
 710.744140625 -49.32421875 736.848632812 -74.3583984375 736.848632812 -144.508789062 c 0
 736.848632812 -231.909179688 682.059570312 -250.30859375 615.359375 -250.30859375 c 0
 462.405273438 -250.30859375 407.200195312 -188.208984375 352.009765625 -97.3583984375 c 0
 328.477720476 -58.6221064389 318.692027529 -27.917422832 314.629080135 0.85839559444 c 1
 158.05092281 30.3356518485 41.509765625 148.782581469 41.509765625 337.340820312 c 0
 41.509765625 558.108398438 192.193359375 690.224609375 393.979492188 690.224609375 c 0
 595.629882812 690.224609375 743 558.108398438 743 337.340820312 c 0
 743 156.780621639 638.386682699 40.5100784546 492.701482277 5.08816955081 c 1
 529.948351552 -36.0898575348 606.164306212 -44.0157914666 660.208984375 -46.7587890625 c 0
461.196289062 337.340820312 m 0
 461.196289062 435.337890625 439.181640625 543.27734375 393.979492188 543.27734375 c 0
 347.10546875 543.27734375 323.455078125 433.993164062 323.455078125 337.340820312 c 0
 323.455078125 241.604492188 346.009765625 139.80859375 393.979492188 139.80859375 c 0
 441.744140625 139.80859375 461.196289062 240.270507812 461.196289062 337.340820312 c 0
EndSplineSet
EndChar

StartChar: W
Encoding: 229 87 83
GlifName: W_
Width: 1000
VWidth: 0
Flags: HW
HStem: -4.23926 161.163<312.077 386.413 616.332 685.412>
VStem: 52.0005 245.373<211.049 605.667> 383.386 236.31<158.347 619.637> 702.258 246.523<212.17 607.428>
LayerCount: 2
Back
Fore
SplineSet
653.184570312 156.923828125 m 0
 699.581054688 156.923828125 702.2578125 216.077148438 702.2578125 337.943359375 c 0
 702.2578125 393.9375 703.645507812 498.28515625 703.645507812 582.83203125 c 0
 703.645507812 651.294921875 733.043945312 685.150390625 822.696289062 685.150390625 c 0
 917.444335938 685.150390625 948.78125 632.283203125 948.78125 371.811523438 c 0
 948.78125 88.3701171875 785.969726562 -4.2392578125 666.56640625 -4.2392578125 c 0
 615.244140625 -4.2392578125 555.626953125 12.3935546875 503.962890625 53.1357421875 c 1
 452.541015625 11.1123046875 392.690429688 -6 340.930664062 -6 c 0
 219.600585938 -6 52 86.609375 52 370.049804688 c 0
 52 630.521484375 83.119140625 683.389648438 176.935546875 683.389648438 c 0
 266.588867188 683.389648438 295.986328125 649.534179688 295.986328125 581.0703125 c 0
 295.986328125 496.4375 297.373046875 391.985351562 297.373046875 337.240234375 c 0
 297.373046875 219.376953125 297.377929688 155.163085938 350.547851562 155.163085938 c 0
 382.004882812 155.163085938 394.017578125 180.61328125 398.561523438 232.518554688 c 1
 388.8359375 269.984375 383.385742188 366.474609375 383.385742188 414.361328125 c 0
 383.385742188 631.377929688 400.778320312 662.150390625 497.794921875 662.150390625 c 0
 617.592773438 662.150390625 619.6953125 610.971679688 619.6953125 412.600585938 c 0
 619.6953125 363.0234375 613.962890625 265.234375 603.76953125 226.807617188 c 1
 608.591796875 181.028320312 621.041992188 156.923828125 653.184570312 156.923828125 c 0
EndSplineSet
EndChar

StartChar: Z
Encoding: 232 90 84
GlifName: Z_
Width: 733
VWidth: 0
Flags: HW
HStem: 0 161.952<323.044 669.429> 521.272 161.95<96.3444 385.143>
LayerCount: 2
Back
Fore
SplineSet
591.958984375 161.952148438 m 0
 672.458984375 161.952148438 693.8671875 136.973632812 693.8671875 82.6083984375 c 0
 693.8671875 11.087890625 649.515625 0 550.743164062 0 c 0
 456.916015625 0 247.883789062 0 169.497070312 0 c 0
 111.537109375 0 41.984375 55.271484375 41.984375 125.47265625 c 0
 41.984375 204.018554688 62.6533203125 230.614257812 123.672851562 290.37109375 c 0
 202.396484375 367.46484375 292.666992188 442.739257812 385.14453125 521.157226562 c 1
 350.76171875 521.272460938 242.629882812 521.272460938 209.193359375 521.272460938 c 0
 110.423828125 521.272460938 66.0732421875 544.044921875 66.0732421875 605.3984375 c 0
 66.0732421875 667.520507812 115.400390625 683.22265625 189.64453125 683.22265625 c 0
 289.861328125 683.22265625 482.80078125 683.28515625 582.943359375 683.28515625 c 0
 667.951171875 683.28515625 695 617.329101562 695 583.786132812 c 0
 695 497.73828125 673.6171875 484.581054688 617.0078125 430.079101562 c 0
 535.794921875 351.890625 418.495117188 252.060546875 323.044921875 161.590820312 c 1
 381.998046875 161.78125 543.9296875 161.952148438 591.958984375 161.952148438 c 0
EndSplineSet
EndChar

StartChar: Y
Encoding: 231 89 85
GlifName: Y_
Width: 691
VWidth: 0
Flags: HW
HStem: 0 21G<304.557 380.461>
VStem: 229.329 230.64<46.2955 300.492>
LayerCount: 2
Back
Fore
SplineSet
459.96875 150.303710938 m 2
 460.114257812 38.8662109375 418.961914062 0 341.959960938 0 c 0
 267.155273438 0 230.345703125 32.205078125 229.329101562 142.657226562 c 2
 227.834960938 305.060546875 l 1
 73.568359375 484.791015625 l 2
 47.6669921875 514.967773438 32 541.083984375 32 568.099609375 c 0
 32 599.77734375 44.7099609375 632.920898438 74.0341796875 654.890625 c 0
 96.7783203125 671.930664062 119.659179688 684.659179688 144.868164062 684.659179688 c 0
 168.458007812 684.659179688 195.879882812 675.594726562 221.717773438 645.649414062 c 2
 344.301757812 503.579101562 l 1
 445.803710938 623.443359375 l 2
 483.56640625 668.038085938 522.81640625 684.129882812 555.418945312 684.129882812 c 0
 578.779296875 684.129882812 602.279296875 679.530273438 621.53125 660.27734375 c 0
 648.008789062 633.798828125 663.016601562 608.485351562 663.016601562 580.75 c 0
 663.016601562 550.250976562 641.02734375 520.12109375 604.364257812 475.6953125 c 2
 459.772460938 300.4921875 l 1
 459.96875 150.303710938 l 2
EndSplineSet
EndChar

StartChar: X
Encoding: 230 88 86
GlifName: X_
Width: 755
VWidth: 0
Flags: HW
HStem: 0 20.4697G<150.02 180.033 572.837 599.283>
LayerCount: 2
Back
Fore
SplineSet
212.702148438 340.400390625 m 1
 86.2021484375 473.411132812 l 2
 59.109375 501.8984375 44.6337890625 529.704101562 44.6337890625 556.719726562 c 0
 44.6337890625 588.3984375 59.3447265625 619.09765625 86.66796875 643.51171875 c 0
 113.104492188 667.133789062 139.701171875 684.780273438 169.001953125 684.780273438 c 0
 192.591796875 684.780273438 220.494140625 676.11328125 245.8515625 645.76953125 c 2
 374.184570312 492.200195312 l 1
 480.287109375 623.563476562 l 2
 516.993164062 669.008789062 557.299804688 684.25 589.90234375 684.25 c 0
 617.327148438 684.25 643.448242188 672.962890625 667.514648438 648.897460938 c 0
 693.993164062 622.419921875 709 597.106445312 709 569.370117188 c 0
 709 538.87109375 690.1796875 505.4921875 650.34765625 464.315429688 c 2
 541.602539062 351.900390625 l 1
 667.431640625 210.838867188 l 2
 693.80859375 181.268554688 709 154.545898438 709 127.530273438 c 0
 709 95.8515625 694.2890625 65.15234375 666.965820312 40.73828125 c 0
 640.529296875 17.1162109375 613.934570312 -0.5302734375 584.631835938 -0.5302734375 c 0
 561.041992188 -0.5302734375 532.806640625 7.8623046875 507.782226562 38.48046875 c 2
 379.44921875 195.5 l 1
 273.346679688 60.6865234375 l 2
 237.21875 14.783203125 196.333984375 0 163.731445312 0 c 0
 136.307617188 0 110.548828125 12.072265625 86.119140625 36.501953125 c 0
 59.640625 62.98046875 44.6337890625 88.2939453125 44.6337890625 116.030273438 c 0
 44.6337890625 146.528320312 64.4228515625 178.705078125 103.286132812 221.083984375 c 2
 212.702148438 340.400390625 l 1
EndSplineSet
EndChar

StartChar: exclam
Encoding: 175 33 89
GlifName: exclam
Width: 349
VWidth: 0
Flags: HW
HStem: -6.51953 151.982<91.3905 262.822> 185.421 506<112.994 235.598>
VStem: 62.53 229.04<21.222 119.88 414.868 665.572> 96.3503 156.4<201.873 434.16>
LayerCount: 2
Back
Fore
SplineSet
62.529296875 69.3798828125 m 0
 62.529296875 126.568359375 117.661132812 145.462890625 173.119140625 145.462890625 c 0
 238.942382812 145.462890625 291.569335938 129.515625 291.569335938 69.3798828125 c 0
 291.569335938 17.7626953125 245.26953125 -6.51953125 173.119140625 -6.51953125 c 0
 101.950195312 -6.51953125 62.529296875 26.23828125 62.529296875 69.3798828125 c 0
293 601.984375 m 0
 293 663.821289062 260.372070312 691.420898438 169.197265625 691.420898438 c 0
 77.8623046875 691.420898438 56.099609375 652.321289062 56.099609375 590.912109375 c 0
 56.099609375 494.756835938 96.349609375 362.9296875 96.349609375 266.546875 c 0
 96.349609375 211.576171875 113.830078125 185.420898438 172.041992188 185.420898438 c 0
 229.28125 185.420898438 252.75 209.40234375 252.75 263.62109375 c 0
 252.75 361.780273438 293 500.694335938 293 601.984375 c 0
EndSplineSet
EndChar

StartChar: exclamdown
Encoding: 176 161 90
GlifName: exclamdown
Width: 341
VWidth: 0
Flags: HW
HStem: -6.51953 506<114.684 220.922> 539.438 151.982<84.82 256.252>
VStem: 55.9596 229.04<565.022 663.679> 61.0299 215.051<19.3289 258.864> 101.28 134.551<250.741 485.186>
LayerCount: 2
Back
Fore
SplineSet
55.9599609375 615.521484375 m 0
 55.9599609375 558.333007812 111.091796875 539.438476562 166.549804688 539.438476562 c 0
 232.373046875 539.438476562 285 555.385742188 285 615.521484375 c 0
 285 667.138671875 238.700195312 691.420898438 166.549804688 691.420898438 c 0
 95.380859375 691.420898438 55.9599609375 658.663085938 55.9599609375 615.521484375 c 0
276.081054688 82.9169921875 m 0
 276.081054688 21.080078125 246.180664062 -6.51953125 162.627929688 -6.51953125 c 0
 80.5810546875 -6.51953125 61.0302734375 32.580078125 61.0302734375 93.9892578125 c 0
 61.0302734375 190.14453125 101.280273438 321.971679688 101.280273438 418.354492188 c 0
 101.280273438 473.325195312 116.104492188 499.48046875 165.47265625 499.48046875 c 0
 215.372070312 499.48046875 235.831054688 475.499023438 235.831054688 421.280273438 c 0
 235.831054688 323.12109375 276.081054688 184.20703125 276.081054688 82.9169921875 c 0
EndSplineSet
EndChar

StartChar: question
Encoding: 177 63 91
GlifName: question
Width: 577
VWidth: 0
Flags: HW
HStem: -6.51953 151.982<171.14 342.571> 586.078 105.343<240.834 298.039>
VStem: 23.563 216.345<507.033 585.074> 142.279 229.04<21.222 119.88> 320.75 205.25<410.074 564.875>
LayerCount: 2
Back
SplineSet
514.25 490.634765625 m 260
 514.25 610.848632812 421.23828125 670.6484375 256.908203125 670.6484375 c 260
 94.095703125 670.6484375 31.3642578125 619.170898438 31.3642578125 546.943359375 c 260
 31.3642578125 507.369140625 64.1923828125 439.505859375 176.899414062 439.505859375 c 260
 219.515625 439.505859375 254.904296875 444.086914062 254.904296875 491.354492188 c 260
 254.904296875 513.701171875 239.658203125 533.057617188 239.658203125 546.28125 c 260
 239.658203125 561.109375 245.342773438 571.055664062 265.532226562 571.055664062 c 260
 299.123046875 571.055664062 320.5 521.3203125 320.5 473.916015625 c 260
 320.5 390.501953125 208.0546875 310.802734375 195.120117188 231.348632812 c 260
 187.069335938 181.8984375 213.51953125 164.6484375 259.311523438 164.6484375 c 260
 309.2109375 164.6484375 318.79296875 187.93359375 338.870117188 226.748046875 c 260
 356.120117188 260.098632812 381.419921875 295.748046875 412.469726562 322.198242188 c 4
 465.467773438 367.344726562 514.25 429.1484375 514.25 490.634765625 c 260
142.030273438 55.5068359375 m 260
 142.030273438 112.6953125 197.161132812 131.58984375 252.620117188 131.58984375 c 260
 318.442382812 131.58984375 371.069335938 115.642578125 371.069335938 55.5068359375 c 260
 371.069335938 3.8896484375 324.76953125 -20.392578125 252.620117188 -20.392578125 c 260
 181.451171875 -20.392578125 142.030273438 12.365234375 142.030273438 55.5068359375 c 260
EndSplineSet
Fore
SplineSet
142.279296875 69.3798828125 m 0
 142.279296875 126.568359375 197.411132812 145.462890625 252.869140625 145.462890625 c 0
 318.692382812 145.462890625 371.319335938 129.515625 371.319335938 69.3798828125 c 0
 371.319335938 17.7626953125 325.01953125 -6.51953125 252.869140625 -6.51953125 c 0
 181.701171875 -6.51953125 142.279296875 26.23828125 142.279296875 69.3798828125 c 0
526 511.408203125 m 0
 526 631.62109375 428.83203125 691.420898438 257.158203125 691.420898438 c 0
 88.53515625 691.420898438 23.5634765625 639.944335938 23.5634765625 567.716796875 c 0
 23.5634765625 526.024414062 56.392578125 454.529296875 169.098632812 454.529296875 c 0
 216.11328125 454.529296875 255.153320312 459.110351562 255.153320312 506.377929688 c 0
 255.153320312 528.724609375 239.908203125 548.081054688 239.908203125 561.303710938 c 0
 239.908203125 576.1328125 245.591796875 586.078125 265.782226562 586.078125 c 0
 299.372070312 586.078125 320.75 536.342773438 320.75 488.939453125 c 0
 320.75 366.110351562 186.920898438 308.412109375 186.920898438 230.271484375 c 0
 186.920898438 192.298828125 214.450195312 178.521484375 259.561523438 178.521484375 c 0
 338.401367188 178.521484375 526 327.663085938 526 511.408203125 c 0
EndSplineSet
EndChar

StartChar: questiondown
Encoding: 178 191 92
GlifName: questiondown
Width: 583
VWidth: 0
Flags: HW
HStem: -7.39258 105.343<255.271 312.476> 538.565 151.982<185.577 357.008>
VStem: 37.9999 216.345<98.9538 176.995> 156.716 229.04<564.148 662.806> 335.187 205.25<119.153 273.954>
LayerCount: 2
Back
Fore
SplineSet
156.715820312 614.6484375 m 0
 156.715820312 557.459960938 211.84765625 538.565429688 267.305664062 538.565429688 c 0
 333.12890625 538.565429688 385.755859375 554.512695312 385.755859375 614.6484375 c 0
 385.755859375 666.265625 339.456054688 690.547851562 267.305664062 690.547851562 c 0
 196.137695312 690.547851562 156.715820312 657.790039062 156.715820312 614.6484375 c 0
540.436523438 172.620117188 m 0
 540.436523438 52.4072265625 443.268554688 -7.392578125 271.594726562 -7.392578125 c 0
 102.971679688 -7.392578125 38 44.083984375 38 116.311523438 c 0
 38 158.00390625 70.8291015625 229.499023438 183.53515625 229.499023438 c 0
 230.549804688 229.499023438 269.58984375 224.91796875 269.58984375 177.650390625 c 0
 269.58984375 155.303710938 254.344726562 135.947265625 254.344726562 122.724609375 c 0
 254.344726562 107.895507812 260.028320312 97.9501953125 280.21875 97.9501953125 c 0
 313.80859375 97.9501953125 335.186523438 147.685546875 335.186523438 195.088867188 c 0
 335.186523438 317.91796875 201.357421875 375.616210938 201.357421875 453.756835938 c 0
 201.357421875 491.729492188 228.88671875 505.506835938 273.998046875 505.506835938 c 0
 352.837890625 505.506835938 540.436523438 356.365234375 540.436523438 172.620117188 c 0
EndSplineSet
EndChar

StartChar: quoteright
Encoding: 180 8217 94
GlifName: quoteright
Width: 330
VWidth: 0
Flags: HW
HStem: 350.482 316.834<28.4274 153.538>
VStem: 1.93077 179.4<376.431 638.811>
LayerCount: 2
Back
Fore
SplineSet
52.810546875 597.416015625 m 0
 52.810546875 540.228515625 105.641601562 521.333007812 161.100585938 521.333007812 c 0
 161.21484375 521.333007812 161.329101562 521.333007812 161.444335938 521.333007812 c 1
 138.201171875 485.185546875 115.70703125 469.95703125 57.818359375 441.639648438 c 0
 45.55078125 435.638671875 43.232421875 422.921875 43.232421875 413.233398438 c 0
 43.232421875 391.81640625 58.4130859375 376.342773438 81.75 376.342773438 c 0
 142.287109375 376.342773438 283 443.776367188 283 577.682617188 c 0
 283 651.640625 224.443359375 673.31640625 161.100585938 673.31640625 c 0
 89.931640625 673.31640625 52.810546875 640.557617188 52.810546875 597.416015625 c 0
EndSplineSet
EndChar

StartChar: quotedblleft
Encoding: 181 8220 95
GlifName: quotedblleft
Width: 609
VWidth: 0
Flags: HW
HStem: 350.482 316.834<143.184 268.295 401.934 527.045>
VStem: 116.688 179.4<376.431 638.811> 375.438 179.4<376.431 638.811>
LayerCount: 2
Back
Fore
SplineSet
556.420898438 452.243164062 m 0
 556.420898438 509.430664062 503.58984375 528.326171875 448.131835938 528.326171875 c 0
 448.016601562 528.326171875 447.90234375 528.326171875 447.788085938 528.326171875 c 1
 471.030273438 564.473632812 493.524414062 579.69921875 551.4140625 608.01953125 c 0
 563.680664062 614.020507812 566 626.737304688 566 636.42578125 c 0
 566 657.842773438 550.818359375 673.31640625 527.481445312 673.31640625 c 0
 466.944335938 673.31640625 326.231445312 605.8828125 326.231445312 471.9765625 c 0
 326.231445312 398.018554688 384.788085938 376.342773438 448.131835938 376.342773438 c 0
 519.299804688 376.342773438 556.420898438 409.1015625 556.420898438 452.243164062 c 0
276.971679688 452.243164062 m 0
 276.971679688 509.430664062 224.139648438 528.326171875 168.681640625 528.326171875 c 0
 168.56640625 528.326171875 168.452148438 528.326171875 168.337890625 528.326171875 c 1
 191.581054688 564.473632812 214.07421875 579.69921875 271.963867188 608.01953125 c 0
 284.23046875 614.020507812 286.549804688 626.737304688 286.549804688 636.42578125 c 0
 286.549804688 657.842773438 271.368164062 673.31640625 248.03125 673.31640625 c 0
 187.495117188 673.31640625 46.78125 605.8828125 46.78125 471.9765625 c 0
 46.78125 398.018554688 105.337890625 376.342773438 168.681640625 376.342773438 c 0
 239.850585938 376.342773438 276.971679688 409.1015625 276.971679688 452.243164062 c 0
EndSplineSet
EndChar

StartChar: quotedblright
Encoding: 182 8221 96
GlifName: quotedblright
Width: 609
VWidth: 0
Flags: HW
HStem: 350.482 316.834<128.947 254.058 387.697 512.808>
VStem: 102.45 179.4<376.431 638.811> 361.201 179.4<376.431 638.811>
LayerCount: 2
Back
Fore
SplineSet
52.3603515625 597.416015625 m 0
 52.3603515625 540.228515625 105.19140625 521.333007812 160.649414062 521.333007812 c 0
 160.764648438 521.333007812 160.87890625 521.333007812 160.993164062 521.333007812 c 1
 137.750976562 485.185546875 115.256835938 469.959960938 57.3671875 441.639648438 c 0
 45.1005859375 435.638671875 42.78125 422.921875 42.78125 413.233398438 c 0
 42.78125 391.81640625 57.962890625 376.342773438 81.2998046875 376.342773438 c 0
 141.836914062 376.342773438 282.549804688 443.776367188 282.549804688 577.682617188 c 0
 282.549804688 651.640625 223.993164062 673.31640625 160.649414062 673.31640625 c 0
 89.4814453125 673.31640625 52.3603515625 640.557617188 52.3603515625 597.416015625 c 0
331.809570312 597.416015625 m 0
 331.809570312 540.228515625 384.641601562 521.333007812 440.099609375 521.333007812 c 0
 440.21484375 521.333007812 440.329101562 521.333007812 440.443359375 521.333007812 c 1
 417.200195312 485.185546875 394.70703125 469.959960938 336.817382812 441.639648438 c 0
 324.55078125 435.638671875 322.231445312 422.921875 322.231445312 413.233398438 c 0
 322.231445312 391.81640625 337.413085938 376.342773438 360.75 376.342773438 c 0
 421.286132812 376.342773438 562 443.776367188 562 577.682617188 c 0
 562 651.640625 503.443359375 673.31640625 440.099609375 673.31640625 c 0
 368.930664062 673.31640625 331.809570312 640.557617188 331.809570312 597.416015625 c 0
EndSplineSet
EndChar

StartChar: quotesinglbase
Encoding: 183 8218 97
GlifName: quotesinglbase
Width: 331
VWidth: 0
Flags: HW
HStem: -6.9834 151.983<81.3187 162.081>
VStem: 53.4473 230.189<19.1995 112.074>
LayerCount: 2
Back
Fore
SplineSet
53.447265625 69.099609375 m 0
 53.447265625 11.912109375 106.278320312 -6.9833984375 161.737304688 -6.9833984375 c 0
 161.8515625 -6.9833984375 161.965820312 -6.9833984375 162.081054688 -6.9833984375 c 1
 138.837890625 -43.130859375 116.34375 -58.359375 58.455078125 -86.6767578125 c 0
 46.1875 -92.677734375 43.869140625 -105.39453125 43.869140625 -115.083007812 c 0
 43.869140625 -136.5 59.0498046875 -151.973632812 82.38671875 -151.973632812 c 0
 142.923828125 -151.973632812 283.63671875 -84.5400390625 283.63671875 49.3662109375 c 0
 283.63671875 123.32421875 225.080078125 145 161.737304688 145 c 0
 90.568359375 145 53.447265625 112.241210938 53.447265625 69.099609375 c 0
EndSplineSet
EndChar

StartChar: quotedblbase
Encoding: 184 8222 98
GlifName: quotedblbase
Width: 601
VWidth: 0
Flags: HW
HStem: -6.51953 151.983<74.094 154.855 353.544 434.306>
VStem: 46.2227 230.189<19.6634 112.538> 325.672 230.19<19.6634 112.538>
LayerCount: 2
Back
Fore
SplineSet
46.22265625 69.5634765625 m 0
 46.22265625 12.3759765625 99.0537109375 -6.51953125 154.51171875 -6.51953125 c 0
 154.626953125 -6.51953125 154.741210938 -6.51953125 154.85546875 -6.51953125 c 1
 131.61328125 -42.6669921875 109.118164062 -57.892578125 51.2294921875 -86.212890625 c 0
 38.962890625 -92.2138671875 36.6435546875 -104.930664062 36.6435546875 -114.619140625 c 0
 36.6435546875 -136.036132812 51.8251953125 -151.509765625 75.162109375 -151.509765625 c 0
 135.69921875 -151.509765625 276.412109375 -84.076171875 276.412109375 49.830078125 c 0
 276.412109375 123.788085938 217.85546875 145.463867188 154.51171875 145.463867188 c 0
 83.34375 145.463867188 46.22265625 112.705078125 46.22265625 69.5634765625 c 0
325.671875 69.5634765625 m 0
 325.671875 12.3759765625 378.50390625 -6.51953125 433.961914062 -6.51953125 c 0
 434.077148438 -6.51953125 434.19140625 -6.51953125 434.305664062 -6.51953125 c 1
 411.0625 -42.6669921875 388.568359375 -57.892578125 330.6796875 -86.212890625 c 0
 318.413085938 -92.2138671875 316.09375 -104.930664062 316.09375 -114.619140625 c 0
 316.09375 -136.036132812 331.275390625 -151.509765625 354.612304688 -151.509765625 c 0
 415.1484375 -151.509765625 555.862304688 -84.076171875 555.862304688 49.830078125 c 0
 555.862304688 123.788085938 497.305664062 145.463867188 433.961914062 145.463867188 c 0
 362.79296875 145.463867188 325.671875 112.705078125 325.671875 69.5634765625 c 0
EndSplineSet
EndChar

StartChar: parenleft
Encoding: 189 40 103
GlifName: parenleft
Width: 409
VWidth: 0
Flags: HW
VStem: 70.5981 237.609<122.169 437.825>
LayerCount: 2
Back
Fore
SplineSet
308.20703125 280.903320312 m 0
 308.20703125 100.916992188 376.793945312 -28.775390625 376.793945312 -98.5966796875 c 0
 376.793945312 -138.846679688 351.145507812 -156.15234375 324.100585938 -156.15234375 c 0
 223.606445312 -156.15234375 70.59765625 24.0283203125 70.59765625 280.072265625 c 0
 70.59765625 535.469726562 223.856445312 715.658203125 324.306640625 715.658203125 c 0
 351.352539062 715.658203125 377 698.352539062 377 658.102539062 c 0
 377 588.267578125 308.20703125 458.546875 308.20703125 280.903320312 c 0
EndSplineSet
EndChar

StartChar: parenright
Encoding: 190 41 104
GlifName: parenright
Width: 410
VWidth: 0
Flags: HW
VStem: 101.392 237.609<122.169 437.825>
LayerCount: 2
Back
Fore
SplineSet
101.390625 280.903320312 m 0
 101.390625 100.916992188 32.8037109375 -28.775390625 32.8037109375 -98.5966796875 c 0
 32.8037109375 -138.846679688 58.4521484375 -156.15234375 85.4970703125 -156.15234375 c 0
 185.991210938 -156.15234375 339 24.0283203125 339 280.072265625 c 0
 339 535.469726562 185.741210938 715.658203125 85.291015625 715.658203125 c 0
 58.2451171875 715.658203125 32.59765625 698.352539062 32.59765625 658.102539062 c 0
 32.59765625 588.267578125 101.390625 458.546875 101.390625 280.903320312 c 0
EndSplineSet
EndChar

StartChar: braceleft
Encoding: 191 123 105
GlifName: braceleft
Width: 556
VWidth: 0
Flags: HW
HStem: -158.601 151.979<403.297 495.426> 565.332 151.979<403.297 495.472>
VStem: 183.58 219.717<-6.62207 203.057 347.095 565.332>
LayerCount: 2
Back
SplineSet
339.67578125 -6.21875 m 260
 339.67578125 181.280273438 290.439453125 265.330078125 245.375976562 274.381835938 c 261
 290.439453125 285.182617188 339.67578125 370.91796875 339.67578125 565.33203125 c 1284
341.088867188 565.33203125 m 5
 402.806640625 565.33203125 461.642578125 583.331054688 461.642578125 641.41015625 c 4
 461.642578125 684.551757812 424.521484375 717.310546875 353.352539062 717.310546875 c 4
 315.135742188 717.310546875 278.115234375 716.7421875 245.252929688 716.7421875 c 4
 145.200195312 716.7421875 120.28515625 686.259765625 120.22265625 606.91015625 c 4
 120.22265625 -48.2001953125 l 4
 120.28515625 -127.549804688 145.200195312 -158.032226562 245.252929688 -158.032226562 c 4
 278.115234375 -158.032226562 315.135742188 -158.600585938 353.352539062 -158.600585938 c 4
 424.521484375 -158.600585938 461.642578125 -125.841796875 461.642578125 -82.7001953125 c 4
 461.642578125 -24.62109375 402.806640625 -6.6220703125 341.088867188 -6.6220703125 c 1029
EndSplineSet
Fore
SplineSet
403.296875 565.33203125 m 1
 465.133789062 565.33203125 525 583.331054688 525 641.41015625 c 0
 525 684.551757812 487.87890625 717.310546875 416.7109375 717.310546875 c 0
 378.493164062 717.310546875 341.47265625 716.7421875 308.610351562 716.7421875 c 0
 208.55859375 716.7421875 183.580078125 686.259765625 183.580078125 606.91015625 c 2
 183.580078125 349.118164062 l 1
 132.572265625 340.942382812 106.14453125 311.932617188 106.14453125 275.53125 c 0
 106.14453125 229.162109375 140.876953125 207.967773438 183.580078125 201.608398438 c 1
 183.580078125 -48.2001953125 l 2
 183.580078125 -127.549804688 208.55859375 -158.032226562 308.610351562 -158.032226562 c 0
 341.47265625 -158.032226562 378.493164062 -158.600585938 416.7109375 -158.600585938 c 0
 487.87890625 -158.600585938 525 -125.841796875 525 -82.7001953125 c 0
 525 -24.62109375 464.990234375 -6.6220703125 403.296875 -6.6220703125 c 1
 403.296875 175.481445312 378.30078125 265.330078125 329.43359375 274.381835938 c 1
 378.30078125 285.182617188 403.296875 372.131835938 403.296875 565.33203125 c 1
EndSplineSet
EndChar

StartChar: bracketleft
Encoding: 193 91 107
GlifName: bracketleft
Width: 478
VWidth: 0
Flags: HW
HStem: -158.601 151.979<326.446 417.812> 565.332 151.979<326.446 417.812>
LayerCount: 2
Back
Fore
SplineSet
105.580078125 -48.2001953125 m 2
 105.642578125 -127.549804688 130.557617188 -158.032226562 230.610351562 -158.032226562 c 0
 263.47265625 -158.032226562 300.493164062 -158.600585938 338.709960938 -158.600585938 c 0
 409.87890625 -158.600585938 447 -125.841796875 447 -82.7001953125 c 0
 447 -24.62109375 388.165039062 -6.6220703125 326.446289062 -6.6220703125 c 1
 326.446289062 565.33203125 l 1
 388.165039062 565.33203125 447 583.331054688 447 641.41015625 c 0
 447 684.551757812 409.87890625 717.310546875 338.709960938 717.310546875 c 0
 300.493164062 717.310546875 263.47265625 716.7421875 230.610351562 716.7421875 c 0
 130.557617188 716.7421875 105.642578125 686.259765625 105.580078125 606.91015625 c 2
 105.580078125 -48.2001953125 l 2
EndSplineSet
EndChar

StartChar: bar
Encoding: 195 124 109
GlifName: bar
Width: 339
VWidth: 0
Flags: HW
HStem: -72.8311 795.212<90.929 248.35>
VStem: 62.0131 217.987<-40.8267 694.813>
LayerCount: 2
Back
Fore
SplineSet
280 28.0224609375 m 1048,0,-1
280 28.0224609375 m 2,1,2
 280 -40.630859375 241.791992188 -72.8310546875 170.04296875 -72.8310546875 c 0,3,4
 98.29296875 -72.8310546875 62.259765625 -51.78515625 62.0126953125 20.3759765625 c 2,5,-1
 59.787109375 633.482421875 l 2,6,7
 59.787109375 697.818359375 107.9765625 722.380859375 170.04296875 722.380859375 c 0,8,9
 232.88671875 722.380859375 279.645507812 712.4296875 279.681640625 642.46875 c 2,10,-1
 280 28.0224609375 l 2,1,2
EndSplineSet
EndChar

StartChar: slash
Encoding: 196 47 110
GlifName: slash
Width: 546
VWidth: 0
Flags: HW
LayerCount: 2
Back
Fore
SplineSet
290.540039062 49.5390625 m 2
 272.250976562 4.603515625 249.946289062 -16.6328125 207.360351562 -16.6328125 c 0
 145.890625 -16.6328125 74.853515625 30.48046875 74.853515625 82 c 0
 74.853515625 95.4130859375 79.228515625 108.44140625 85.7548828125 124.642578125 c 2
 289.491210938 631.900390625 l 2
 304.896484375 669.743164062 328.551757812 685.833007812 369.360351562 685.833007812 c 0
 430.3671875 685.833007812 505 643.563476562 505 593 c 0
 505 582.1171875 501.947265625 570.583007812 496.546875 557.317382812 c 2
 290.540039062 49.5390625 l 2
EndSplineSet
EndChar

StartChar: endash
Encoding: 198 8211 111
GlifName: endash
Width: 650
VWidth: 0
Flags: HW
HStem: 201.58 144.9<87.4551 566.038>
LayerCount: 2
Back
Fore
SplineSet
491.9140625 346.48046875 m 2
 564.494140625 346.48046875 588 324.99609375 588 267.962890625 c 0
 588 217.74609375 554.41015625 201.580078125 482.55078125 201.580078125 c 2
 142.083007812 201.580078125 l 2
 81.6767578125 201.580078125 61 229.274414062 61 271.842773438 c 0
 61 311.912109375 78.8564453125 346.48046875 148.329101562 346.48046875 c 2
 491.9140625 346.48046875 l 2
EndSplineSet
EndChar

StartChar: emdash
Encoding: 199 8212 112
GlifName: emdash
Width: 1151
VWidth: 0
Flags: HW
HStem: 201.58 144.9<87.4551 1066.04>
LayerCount: 2
Back
Fore
SplineSet
993.9140625 346.48046875 m 2
 1066.49023438 346.48046875 1090 324.99609375 1090 267.962890625 c 0
 1090 217.74609375 1056.40625 201.580078125 984.55078125 201.580078125 c 2
 142.083007812 201.580078125 l 2
 81.6806640625 201.580078125 61 229.274414062 61 271.842773438 c 0
 61 311.912109375 78.8603515625 346.48046875 148.329101562 346.48046875 c 2
 993.9140625 346.48046875 l 2
EndSplineSet
EndChar

StartChar: bullet
Encoding: 200 8226 113
GlifName: bullet
Width: 329
VWidth: 0
Flags: HW
HStem: 143.435 206.032<86.8081 247.572>
VStem: 44.9111 237.089<179.071 309>
LayerCount: 2
Back
Fore
SplineSet
44.9111328125 243.666992188 m 0
 44.9111328125 168.327148438 102.791015625 143.434570312 163.55078125 143.434570312 c 0
 234.916992188 143.434570312 282 165.6484375 282 249.416992188 c 0
 282 317.458007812 241.385742188 349.466796875 162.400390625 349.466796875 c 0
 85.185546875 349.466796875 44.9111328125 303.803710938 44.9111328125 243.666992188 c 0
EndSplineSet
EndChar

StartChar: periodcentered
Encoding: 201 183 114
GlifName: periodcentered
Width: 315
VWidth: 0
Flags: HW
HStem: 157.959 151.983<72.3313 237.755>
VStem: 44.4596 217.54<183.542 282.83>
LayerCount: 2
Back
Fore
SplineSet
44.4599609375 234.041992188 m 0
 44.4599609375 176.854492188 97.2919921875 157.958984375 152.75 157.958984375 c 0
 218.573242188 157.958984375 262 173.90625 262 234.041992188 c 0
 262 285.66015625 224.900390625 309.942382812 152.75 309.942382812 c 0
 81.5810546875 309.942382812 44.4599609375 277.18359375 44.4599609375 234.041992188 c 0
EndSplineSet
EndChar

StartChar: asterisk
Encoding: 202 42 115
GlifName: asterisk
Width: 568
VWidth: 0
Flags: HW
VStem: 211.771 144.899<700.577 826.469>
LayerCount: 2
Back
Fore
SplineSet
211.770507812 747.327148438 m 2
 211.770507812 819.909179688 233.25390625 843.413085938 290.2890625 843.413085938 c 0
 340.50390625 843.413085938 356.669921875 809.826171875 356.669921875 737.963867188 c 2
 356.669921875 700.576171875 l 1
 415.709960938 721.513671875 l 2
 437.892578125 729.379882812 455.958984375 733.591796875 470.91015625 733.591796875 c 0
 505.208007812 733.591796875 538 700.731445312 538 653.663085938 c 0
 538 622.241210938 510.135742188 601.169921875 456.469726562 582.1484375 c 2
 417.0390625 568.173828125 l 1
 461.500976562 504.672851562 l 2
 476.935546875 482.629882812 483.587890625 464.3828125 483.587890625 448.962890625 c 0
 483.587890625 414.509765625 442.912109375 377.541992188 406.509765625 377.541992188 c 0
 385.790039062 377.541992188 365.122070312 389.692382812 344.41015625 419.272460938 c 2
 282.780273438 507.287109375 l 1
 221.151367188 419.272460938 l 2
 200.508789062 389.791015625 179.911132812 377.541015625 159.259765625 377.541015625 c 0
 123.442382812 377.541015625 81.9697265625 413.999023438 81.9697265625 447.813476562 c 0
 81.9697265625 463.474609375 88.2392578125 482.080078125 104.060546875 504.672851562 c 2
 149.096679688 568.9921875 l 1
 111.975585938 582.1484375 l 2
 58.3095703125 601.169921875 30.4453125 622.241210938 30.4453125 653.663085938 c 0
 30.4453125 700.401367188 63.1552734375 733.59375 97.16015625 733.59375 c 0
 112.184570312 733.59375 130.366210938 729.4453125 152.735351562 721.513671875 c 2
 211.770507812 700.577148438 l 1
 211.770507812 747.327148438 l 2
EndSplineSet
EndChar

StartChar: uni0BB3
Encoding: 35 2995 120
GlifName: uni0B_B_3
Width: 1526
VWidth: 0
Flags: HW
HStem: -0.459961 71.5391<251.825 524.135> 235.241 73.3584<440.816 486.838> 351.68 125.196<738.158 803.708 914.107 1111.91 1326.96 1486.96> 366.368 118.723<329.781 576.526>
VStem: 27 218.5<156.803 297.399> 288.752 140.905<112.281 228.731> 496.891 140.842<100.044 231.185> 699.058 215.05<27.878 210.229 351.68 431.854> 700.208 52.8994<210.229 351.68 364.222 351.68> 1111.91 215.05<27.878 431.854>
LayerCount: 2
Back
Fore
SplineSet
496.890625 152.64453125 m 0
 496.890625 192.227539062 486.565429688 235.241210938 464.458007812 235.241210938 c 0
 441.62109375 235.241210938 429.657226562 191.723632812 429.657226562 152.686523438 c 0
 429.657226562 113.665039062 440.776367188 71.54296875 464.140625 71.54296875 c 0
 487.505859375 71.54296875 496.890625 113.081054688 496.890625 152.64453125 c 0
914.107421875 107 m 2
 914.107421875 26.2392578125 884.208007812 0.3134765625 800.655273438 0.3134765625 c 0
 718.607421875 0.3134765625 699.057617188 38.5029296875 699.057617188 118.072265625 c 2
 699.057617188 266.053722089 l 1
 650.449617892 305.862481491 568.455802526 352.368164062 450.658203125 352.368164062 c 0
 350.53515625 352.368164062 245.5 321.552734375 245.5 226.329101562 c 0
 245.5 186.328309759 261.587519568 151.762515731 290.737900738 125.467426622 c 1
 289.429939088 133.778640657 288.751953125 142.468872422 288.751953125 151.528320312 c 0
 288.751953125 249.474609375 363.497070312 308.599609375 463.836914062 308.599609375 c 0
 564.201171875 308.599609375 637.732421875 249.474609375 637.732421875 151.528320312 c 0
 637.732421875 125.951662746 632.411921892 103.317832476 622.806979972 83.847387626 c 0
 609.803534014 55.6943294582 584.459137527 30.2887683358 546.799804688 13.6689453125 c 0
 518.48828125 1.17578125 483.21875 -6.353515625 441 -6.353515625 c 0
 173.049804688 -6.353515625 27 104.716796875 27 243.579101562 c 0
 27 424.129882812 185.0078125 522 411.557617188 522 c 0
 551.054648832 522 648.888937136 466.66938604 703.086084727 424.634828899 c 1
 714.269964824 470.88450107 748.094777798 500.285518422 796.43885765 501.676851545 c 0
 798.823296052 501.813146368 801.246556138 501.881835705 803.708007812 501.881835938 c 2
 1424.70800781 501.881835938 l 2
 1481.31542969 501.881835938 1497.95703125 485.555664062 1497.95703125 437.482421875 c 0
 1497.95703125 387.428710938 1468.40820312 377.748046875 1418.95800781 377.748046875 c 2
 1326.95800781 377.748046875 l 1
 1326.95800781 107 l 2
 1326.95800781 26.2392578125 1297.05761719 0.3134765625 1213.50488281 0.3134765625 c 0
 1131.45800781 0.3134765625 1111.90820312 38.5029296875 1111.90820312 118.072265625 c 2
 1111.90820312 377.748046875 l 1
 914.107421875 377.748046875 l 1
 914.107421875 107 l 2
EndSplineSet
EndChar

StartChar: uni0BB5
Encoding: 37 2997 121
GlifName: uni0B_B_5
Width: 1254
VWidth: 0
Flags: HW
HStem: -0.305664 71.54<249.951 524.135> 122.984 2.2998<707.108 872.708> 235.396 73.3584<440.816 486.838> 359.801 123.075<327.907 564.791>
VStem: 27 221.937<157.294 296.201> 288.752 140.905<101.814 228.886> 496.89 140.842<100.198 231.34> 1010.71 215.05<45.2188 112.851 125.284 449.195>
LayerCount: 2
Back
Fore
SplineSet
440.307617188 359.80078125 m 0
 349.7265625 359.80078125 248.936523438 326.724609375 248.936523438 228.784179688 c 0
 248.936523438 175.357421875 264.197265625 138.361328125 293.099609375 113.717773438 c 1
 290.25390625 125.533203125 288.751953125 138.19921875 288.751953125 151.682617188 c 0
 288.751953125 249.62890625 363.497070312 308.75390625 463.836914062 308.75390625 c 0
 564.201171875 308.75390625 637.732421875 249.62890625 637.732421875 151.682617188 c 0
 637.732421875 45.7841796875 554.037109375 -6.19921875 441 -6.19921875 c 0
 173.049804688 -6.19921875 27 104.87109375 27 243.734375 c 0
 27 388.819335938 191.831054688 482.875976562 441.458007812 482.875976562 c 0
 744.745117188 482.875976562 871.674804688 312.974609375 872.702148438 125.284179688 c 1
 1010.70800781 125.284179688 l 1
 1010.70800781 359.424804688 l 2
 1010.70800781 438.995117188 1030.2578125 477.18359375 1112.30566406 477.18359375 c 0
 1195.85839844 477.18359375 1225.7578125 451.258789062 1225.7578125 370.497070312 c 2
 1225.7578125 109.924804688 l 2
 1225.7578125 11.755859375 1168.74707031 -0.06640625 1096.15820312 -0.06640625 c 2
 810.608398438 -0.06640625 l 2
 742.807617188 -0.06640625 707.282226562 51.2861328125 707.282226562 130 c 0
 707.282226562 169.243164062 694.265625 359.80078125 440.307617188 359.80078125 c 0
496.890625 152.798828125 m 0
 496.890625 192.381835938 486.565429688 235.395507812 464.458007812 235.395507812 c 0
 441.62109375 235.395507812 429.657226562 191.87890625 429.657226562 152.841796875 c 0
 429.657226562 113.8203125 440.776367188 71.6982421875 464.141601562 71.6982421875 c 0
 487.505859375 71.6982421875 496.890625 113.236328125 496.890625 152.798828125 c 0
EndSplineSet
EndChar

StartChar: uni0BB2
Encoding: 34 2994 122
GlifName: uni0B_B_2
Width: 1193
VWidth: 0
Flags: HW
HStem: -0.305664 71.54<249.951 524.136> -0.0664062 150.256<891.927 952.225> 235.396 73.3584<440.816 486.839> 359.801 123.075<327.908 569.973>
VStem: 27 221.938<157.294 296.201> 288.752 140.905<101.814 228.886> 496.891 140.843<100.198 231.34> 957.234 207.575<153.913 295.599>
LayerCount: 2
Back
Fore
SplineSet
496.890625 152.798828125 m 0
 496.890625 192.381835938 486.565429688 235.395507812 464.458007812 235.395507812 c 0
 441.62109375 235.395507812 429.657226562 191.87890625 429.657226562 152.841796875 c 0
 429.657226562 113.8203125 440.776367188 71.6982421875 464.141601562 71.6982421875 c 0
 487.506835938 71.6982421875 496.890625 113.236328125 496.890625 152.798828125 c 0
714.008789062 152.883789062 m 0
 670.283203125 307.2890625 593.983398438 359.80078125 440.30859375 359.80078125 c 0
 349.727539062 359.80078125 248.9375 326.724609375 248.9375 228.784179688 c 0
 248.9375 175.357466959 264.197769991 138.362169227 293.09915224 113.718648947 c 1
 290.25378114 125.533942774 288.751953125 138.199372728 288.751953125 151.682617188 c 0
 288.751953125 249.62890625 363.498046875 308.75390625 463.836914062 308.75390625 c 0
 564.202148438 308.75390625 637.733398438 249.62890625 637.733398438 151.682617188 c 0
 637.733398438 126.110574487 632.414644 103.480221314 622.812716849 84.0120562852 c 0
 609.810679349 55.8550982878 584.464569127 30.4460714 546.799804688 13.82421875 c 0
 518.489257812 1.330078125 483.21875 -6.19921875 441 -6.19921875 c 0
 173.049804688 -6.19921875 27 104.87109375 27 243.734375 c 0
 27 388.819335938 191.83203125 482.875976562 441.458007812 482.875976562 c 0
 710.700195312 482.875976562 822.114257812 377.626953125 868.108398438 226.354492188 c 0
 879.500976562 188.884765625 896.858398438 150.189453125 921.008789062 150.189453125 c 0
 937.912109375 150.189453125 957.233398438 160.422851562 957.233398438 197.734375 c 0
 957.233398438 259.637695312 918.194335938 310.413085938 918.194335938 401.284179688 c 0
 918.194335938 445.305664062 952.51171875 476.674804688 1019.90820312 476.674804688 c 0
 1095.76660156 476.674804688 1164.80859375 438.18359375 1164.80859375 246.607421875 c 0
 1164.80859375 60.7685546875 1040.38476562 -0.06640625 937.108398438 -0.06640625 c 0
 826.708007812 -0.06640625 747.294921875 35.3408203125 714.008789062 152.883789062 c 0
EndSplineSet
EndChar

StartChar: uni0BAE
Encoding: 30 2990 123
GlifName: uni0B_A_E_
Width: 832
VWidth: 0
Flags: HW
HStem: -0.0947266 125.196<136.25 660.679> 351.806 124.841<495.001 570.104>
VStem: 27 215.05<45.1895 112.822 125.102 449.166> 136.25 105.8<19.5566 125.102> 349 126.5<89.6055 331.746> 583.58 75.9199<24.9639 125.255> 583.6 220.8<99.6662 337.509>
LayerCount: 2
Back
Fore
SplineSet
242.049804688 125.108568879 m 1
 279.046881353 125.113353306 314.887187912 125.120327972 349 125.128673398 c 1
 349 289.705078125 l 2
 349 408.155273438 438.104492188 476.646484375 553.700195312 476.646484375 c 0
 667.409179688 476.646484375 804.400390625 415.8125 804.400390625 229.97265625 c 0
 804.400390625 38.396484375 735.358398438 -0.0947265625 659.5 -0.0947265625 c 2
 136.25 -0.0947265625 l 2
 74.150390625 -0.0947265625 27 45.189453125 27 112.822265625 c 2
 27 359.395507812 l 2
 27 438.965820312 46.5498046875 477.155273438 128.59765625 477.155273438 c 0
 212.150390625 477.155273438 242.049804688 451.229492188 242.049804688 370.467773438 c 2
 242.049804688 125.108568879 l 1
475.5 125.167651076 m 1
 517.599979877 125.1832566 554.243979134 125.199457983 583.583729615 125.213601366 c 1
 583.589624841 176.817700227 583.600585937 221.120548085 583.600585938 278.205078125 c 0
 583.600585938 326.504882812 561.75 351.805664062 529.549804688 351.805664062 c 0
 492.75 351.805664062 475.5 308.10546875 475.5 252.905273438 c 2
 475.5 125.167651076 l 1
EndSplineSet
EndChar

StartChar: uni0BAF
Encoding: 31 2991 124
GlifName: uni0B_A_F_
Width: 885
VWidth: 0
Flags: HW
HStem: 0.0195312 477.021<175.257 218.77 363.52 534.499 661.748 823.786> 0.0195312 150.142<252.428 331.843> 0.0195312 125.082<291.449 744.404>
VStem: 27 219.368<154.816 436.737> 334.281 219.368<154.816 436.737> 642.199 215.05<45.1895 112.822 125.519 449.166> 642.199 100.992<45.1895 112.822>
LayerCount: 2
Back
Fore
SplineSet
289.607421875 150.161132812 m 0
 331.842773438 150.161132812 334.280273438 183.29296875 334.280273438 251.549804688 c 0
 334.280273438 288.348632812 335.486328125 356.924804688 335.486328125 412.487304688 c 0
 335.486328125 472.01953125 363.51953125 501.4609375 449.0078125 501.4609375 c 0
 534.499023438 501.4609375 553.6484375 462.576171875 553.6484375 271 c 0
 553.6484375 211.847886777 540.951311567 163.726389422 520.214694015 125.207683243 c 1
 567.021070505 125.250367314 608.263017497 125.300665644 642.198242188 125.348221521 c 1
 642.198242188 383.81640625 l 2
 642.198242188 463.38671875 661.748046875 501.576171875 743.795898438 501.576171875 c 0
 827.348632812 501.576171875 857.248046875 475.650390625 857.248046875 394.888671875 c 2
 857.248046875 109.896484375 l 2
 857.248046875 19.556640625 806.034179688 0.16796875 743.190429688 0.16796875 c 2
 347.286719658 -0.0622555941145 l 1
 328.092431961 -4.08984502632 309.143712396 -5.98046875 291.244140625 -5.98046875 c 0
 180.28125 -5.98046875 27 66.7529296875 27 271 c 0
 27 462.576171875 46.150390625 501.4609375 131.639648438 501.4609375 c 0
 217.129882812 501.4609375 245.162109375 472.01953125 245.162109375 412.487304688 c 0
 245.162109375 356.9453125 246.368164062 288.396484375 246.368164062 252.469726562 c 0
 246.368164062 186.2421875 246.37109375 150.161132812 289.607421875 150.161132812 c 0
EndSplineSet
EndChar

StartChar: uni0BB1
Encoding: 33 2993 125
GlifName: uni0B_B_1
Width: 917
VWidth: 0
Flags: HW
HStem: -262.207 202.015<291.858 566.704> -243.972 200.449<169.001 505.248> 326.878 155.956<254.779 331.2 566.304 632.713>
VStem: 29.3516 218.162<43.8911 321.336> 336.401 219.599<40.3023 416.3> 658.35 231.15<50.5799 302.203>
LayerCount: 2
Back
Fore
SplineSet
291.958984375 326.877929688 m 0
 334.1953125 326.877929688 336.631835938 301.7265625 336.631835938 249.91015625 c 0
 336.631835938 247.754350959 336.635975154 245.489488219 336.643768596 243.124573143 c 0
 336.482968528 238.969117752 336.401367197 234.747844032 336.401367188 230.459960938 c 1
 336.504666234 230.459960938 336.607965281 230.461769555 336.711264328 230.461769555 c 0
 336.979913692 191.958022586 337.837890625 135.837127006 337.837890625 88.97265625 c 0
 337.837890625 29.4404296875 365.87109375 0 451.360351562 0 c 0
 536.850585938 0 556 38.8837890625 556 230.459960938 c 0
 556 234.518108024 555.927814217 238.519364714 555.785440147 242.464280536 c 0
 555.991557956 288.33143612 558.868004211 326.877929656 599.009765625 326.877929688 c 0
 641.245117188 326.877929688 658.349609375 271.284179688 658.349609375 181.583984375 c 0
 658.349609375 56.9716796875 613.5 -60.1923828125 487 -60.1923828125 c 0
 462.553710938 -60.1923828125 437.1484375 -57.2333984375 411.028320312 -53.90625 c 0
 355.341796875 -46.8134765625 306.903320312 -43.5224609375 264.978515625 -43.5224609375 c 0
 87.880859375 -43.5224609375 27 -93.384765625 27 -166.75390625 c 0
 27 -227.166015625 64.3544921875 -273.448242188 115.478515625 -273.448242188 c 0
 172.908203125 -273.448242188 192.647460938 -243.971679688 314.5 -243.971679688 c 0
 362.275390625 -243.971679688 448.302734375 -262.20703125 528.400390625 -262.20703125 c 0
 806.760742188 -262.20703125 889.5 10.7099609375 889.5 159.68359375 c 0
 889.5 339.159179688 817.909179688 477.01953125 600.645507812 477.01953125 c 0
 552.930528968 477.01953125 497.390578521 465.792013382 449.57810973 438.216394492 c 1
 400.94090563 469.533644195 343.234337028 482.833984375 293.595703125 482.833984375 c 0
 182.6328125 482.833984375 29.3515625 422.11328125 29.3515625 236.274414062 c 0
 29.3515625 44.6982421875 48.501953125 0 133.991210938 0 c 0
 219.481445312 0 247.513671875 29.4404296875 247.513671875 88.97265625 c 0
 247.513671875 144.514648438 248.719726562 213.064453125 248.719726562 248.990234375 c 0
 248.719726562 299.409179688 248.72265625 326.877929688 291.958984375 326.877929688 c 0
EndSplineSet
EndChar

StartChar: uni0BB6
Encoding: 38 2998 126
GlifName: uni0B_B_6
Width: 1115
VWidth: 0
Flags: HW
HStem: 0.0273438 150.142<252.428 328.849 772.849 854.203> 351.458 125.589<450.356 942.193>
VStem: 27 219.368<154.824 436.745> 450.356 103.293<351.458 438.163> 631.849 126.5<165.235 386.954> 866.428 75.9209<351.304 450.414> 866.449 220.8<161.516 345.34>
LayerCount: 2
Back
Fore
SplineSet
289.607421875 150.168945312 m 0
 331.842773438 150.168945312 334.280273438 175.3203125 334.280273438 227.13671875 c 0
 334.280273438 263.935546875 335.486328125 332.510742188 335.486328125 388.07421875 c 0
 335.486328125 447.606445312 363.51953125 477.046875 449.0078125 477.046875 c 2
 942.348632812 476.654296875 l 2
 1018.20703125 476.654296875 1087.24804688 438.163085938 1087.24804688 246.586914062 c 0
 1087.24804688 60.7470703125 950.255859375 -0.0869140625 836.547851562 -0.0869140625 c 0
 720.953125 -0.0869140625 631.848632812 68.404296875 631.848632812 186.854492188 c 2
 631.848632812 351.436949744 l 1
 605.809548229 351.442906008 578.602466199 351.447891592 550.415972966 351.451514144 c 1
 552.734868405 322.99059608 553.6484375 288.431034714 553.6484375 246.586914062 c 0
 553.6484375 60.7470703125 402.265625 0.02734375 291.244140625 0.02734375 c 0
 180.28125 0.02734375 27 60.7470703125 27 246.586914062 c 0
 27 438.163085938 46.150390625 477.046875 131.639648438 477.046875 c 0
 217.129882812 477.046875 245.162109375 447.606445312 245.162109375 388.07421875 c 0
 245.162109375 332.532226562 246.368164062 263.982421875 246.368164062 228.056640625 c 0
 246.368164062 177.637695312 246.37109375 150.168945312 289.607421875 150.168945312 c 0
758.348632812 223.654296875 m 2
 758.348632812 188.774414062 767.547851562 150.168945312 818.1484375 150.168945312 c 0
 845.78515625 150.168945312 866.448242188 174.841796875 866.448242188 212.154296875 c 2
 866.433976375 351.349224165 l 1
 837.389766472 351.364589608 800.861605174 351.381980019 758.348632812 351.398276465 c 1
 758.348632812 223.654296875 l 2
EndSplineSet
EndChar

StartChar: uni0BB4
Encoding: 36 2996 127
GlifName: uni0B_B_4
Width: 841
VWidth: 0
Flags: HW
HStem: -245.379 109.25<222.663 383.015> -163.729 113.851<511.624 700.756> -0.0947266 125.196<158.2 682.629> 351.806 124.841<516.951 592.054>
VStem: 48.9502 215.05<45.1895 112.822 125.102 449.166> 72.1784 129.672<-112.908 -60.7561> 158.2 105.8<19.5566 125.102> 359.4 125.907<-42.0432 122.621> 370.95 126.5<89.6055 331.746> 605.53 75.9199<24.9639 125.255> 605.55 220.8<99.6662 337.509>
LayerCount: 2
Back
Fore
SplineSet
681.650390625 -51 m 0
 714.25 -51 735.650390625 -68.19921875 735.650390625 -111.19921875 c 0
 735.650390625 -165 704.631835938 -172.6953125 657.650390625 -174 c 0
 627.388671875 -174.840820312 570.75390625 -176.055664062 542.650390625 -176.055664062 c 2
 462.61590782 -176.464201567 l 1
 423.536784994 -230.82985589 353.446800029 -264.25 256.150390625 -264.25 c 0
 117.21484375 -264.25 27 -205.255859375 27 -107.75 c 0
 27 -61.96875 46.859375 -42.8212890625 103.200195312 -42.8212890625 c 0
 124.981445312 -42.8212890625 141.772460938 -45.22265625 152.650390625 -56.1005859375 c 0
 163.946289062 -67.396484375 166.546875 -74.693359375 172.200195312 -86 c 0
 188.299804688 -118.200195312 222.799804688 -132 267.650390625 -132 c 0
 310.266726443 -132 351.166472394 -98.1040555703 356.952885343 -66.4733349344 c 0
 356.978257936 -44.3320456145 357.074993993 -22.2550970756 357.18869676 -0.0947265625 c 1
 145.200195312 -0.0947265625 l 2
 83.1005859375 -0.0947265625 35.9501953125 45.189453125 35.9501953125 112.822265625 c 2
 35.9501953125 359.395507812 l 2
 35.9501953125 438.965820312 55.5 477.155273438 137.547851562 477.155273438 c 0
 221.100585938 477.155273438 251 451.229492188 251 370.467773438 c 2
 251 125.108568879 l 1
 287.997076665 125.113353306 323.837383225 125.120327972 357.950195312 125.128673398 c 1
 357.950195312 289.705078125 l 2
 357.950195312 408.155273438 447.0546875 476.646484375 562.650390625 476.646484375 c 0
 676.359375 476.646484375 813.350585938 415.8125 813.350585938 229.97265625 c 0
 813.350585938 38.396484375 744.30859375 -0.0947265625 668.450195312 -0.0947265625 c 2
 488.974282382 -0.0947265625 l 1
 492.576218061 -45.6039457064 506.688896149 -51.68359375 554.650390625 -51.68359375 c 0
 581.259765625 -51.68359375 661.633789062 -51 681.650390625 -51 c 0
484.450195312 125.167651076 m 1
 526.550175189 125.1832566 563.194174447 125.199457983 592.533924927 125.213601366 c 1
 592.539820154 176.817700227 592.55078125 221.120548085 592.55078125 278.205078125 c 0
 592.55078125 326.504882812 570.700195312 351.805664062 538.5 351.805664062 c 0
 501.700195312 351.805664062 484.450195312 308.10546875 484.450195312 252.905273438 c 2
 484.450195312 125.167651076 l 1
EndSplineSet
EndChar

